<?xml version="1.0" encoding="UTF-8"?>
<svg version="1.1" xmlns="http://www.w3.org/2000/svg" width="512" height="512">
<path d="M0 0 C10.23 0 20.46 0 31 0 C31 11.22 31 22.44 31 34 C40.57 34 50.14 34 60 34 C60 22.78 60 11.56 60 0 C70.23 0 80.46 0 91 0 C91 11.22 91 22.44 91 34 C100.57 34 110.14 34 120 34 C120 22.78 120 11.56 120 0 C130.23 0 140.46 0 151 0 C151 11.22 151 22.44 151 34 C160.9 34 170.8 34 181 34 C181 22.78 181 11.56 181 0 C190.9 0 200.8 0 211 0 C211 11.22 211 22.44 211 34 C220.9 34 230.8 34 241 34 C241 22.78 241 11.56 241 0 C251.23 0 261.46 0 272 0 C272 11.22 272 22.44 272 34 C281.57 34 291.14 34 301 34 C301 22.78 301 11.56 301 0 C311.23 0 321.46 0 332 0 C332 11.22 332 22.44 332 34 C341.57 34 351.14 34 361 34 C361 22.78 361 11.56 361 0 C371.23 0 381.46 0 392 0 C392 11.22 392 22.44 392 34 C400.58 34 409.16 34 418 34 C418 42.58 418 51.16 418 60 C429.22 60 440.44 60 452 60 C452 70.23 452 80.46 452 91 C440.78 91 429.56 91 418 91 C418 100.57 418 110.14 418 120 C429.22 120 440.44 120 452 120 C452 130.23 452 140.46 452 151 C440.78 151 429.56 151 418 151 C418 160.57 418 170.14 418 180 C429.22 180 440.44 180 452 180 C452 190.23 452 200.46 452 211 C440.78 211 429.56 211 418 211 C418 220.9 418 230.8 418 241 C429.22 241 440.44 241 452 241 C452 250.9 452 260.8 452 271 C440.78 271 429.56 271 418 271 C418 280.9 418 290.8 418 301 C429.22 301 440.44 301 452 301 C452 311.23 452 321.46 452 332 C440.78 332 429.56 332 418 332 C418 341.57 418 351.14 418 361 C429.22 361 440.44 361 452 361 C452 371.23 452 381.46 452 392 C440.78 392 429.56 392 418 392 C418 401.57 418 411.14 418 421 C429.22 421 440.44 421 452 421 C452 431.23 452 441.46 452 452 C440.78 452 429.56 452 418 452 C418 460.58 418 469.16 418 478 C409.42 478 400.84 478 392 478 C392 489.22 392 500.44 392 512 C381.77 512 371.54 512 361 512 C361 500.78 361 489.56 361 478 C351.43 478 341.86 478 332 478 C332 489.22 332 500.44 332 512 C321.77 512 311.54 512 301 512 C301 500.78 301 489.56 301 478 C291.43 478 281.86 478 272 478 C272 489.22 272 500.44 272 512 C261.77 512 251.54 512 241 512 C241 500.78 241 489.56 241 478 C231.1 478 221.2 478 211 478 C211 489.22 211 500.44 211 512 C201.1 512 191.2 512 181 512 C181 500.78 181 489.56 181 478 C171.1 478 161.2 478 151 478 C151 489.22 151 500.44 151 512 C140.77 512 130.54 512 120 512 C120 500.78 120 489.56 120 478 C110.43 478 100.86 478 91 478 C91 489.22 91 500.44 91 512 C80.77 512 70.54 512 60 512 C60 500.78 60 489.56 60 478 C50.43 478 40.86 478 31 478 C31 489.22 31 500.44 31 512 C20.77 512 10.54 512 0 512 C0 500.78 0 489.56 0 478 C-8.58 478 -17.16 478 -26 478 C-26 469.42 -26 460.84 -26 452 C-37.22 452 -48.44 452 -60 452 C-60 441.77 -60 431.54 -60 421 C-48.78 421 -37.56 421 -26 421 C-26 411.43 -26 401.86 -26 392 C-37.22 392 -48.44 392 -60 392 C-60 381.77 -60 371.54 -60 361 C-48.78 361 -37.56 361 -26 361 C-26 351.43 -26 341.86 -26 332 C-37.22 332 -48.44 332 -60 332 C-60 321.77 -60 311.54 -60 301 C-48.78 301 -37.56 301 -26 301 C-26 291.1 -26 281.2 -26 271 C-37.22 271 -48.44 271 -60 271 C-60 261.1 -60 251.2 -60 241 C-48.78 241 -37.56 241 -26 241 C-26 231.1 -26 221.2 -26 211 C-37.22 211 -48.44 211 -60 211 C-60 200.77 -60 190.54 -60 180 C-48.78 180 -37.56 180 -26 180 C-26 170.43 -26 160.86 -26 151 C-37.22 151 -48.44 151 -60 151 C-60 140.77 -60 130.54 -60 120 C-48.78 120 -37.56 120 -26 120 C-26 110.43 -26 100.86 -26 91 C-37.22 91 -48.44 91 -60 91 C-60 80.77 -60 70.54 -60 60 C-48.78 60 -37.56 60 -26 60 C-26 51.42 -26 42.84 -26 34 C-17.42 34 -8.84 34 0 34 C0 22.78 0 11.56 0 0 Z M5 65 C5 191.06 5 317.12 5 447 C131.06 447 257.12 447 387 447 C387 320.94 387 194.88 387 65 C260.94 65 134.88 65 5 65 Z " fill="#000000" transform="translate(60,0)"/>
<path d="M0 0 C106.26 0 212.52 0 322 0 C322 106.26 322 212.52 322 322 C215.74 322 109.48 322 0 322 C0 215.74 0 109.48 0 0 Z M31 31 C31 53.77 31 76.54 31 100 C47.83 100 64.66 100 82 100 C82 109.9 82 119.8 82 130 C65.17 130 48.34 130 31 130 C31 183.13 31 236.26 31 291 C53.44 291 75.88 291 99 291 C99 278.46 99 265.92 99 253 C95.7 251.35 92.4 249.7 89 248 C79.38942447 241.14801559 72.49649247 231.61970391 70 220 C67.72834383 205.13958258 70.58109998 192.50272372 79.19140625 180.19921875 C86.99274134 170.71293007 97.93999968 165.6090836 110 164 C122.80570517 162.89385935 135.65526252 166.77582007 145.75 174.75 C153.00944713 181.42869136 159.29710922 192.02679478 160.17700195 202.0078125 C160.62495881 217.48463255 159.07655147 230.37389171 148 242.12109375 C142.32177587 247.48498761 137.13397012 250.10874357 130 254 C130 266.21 130 278.42 130 291 C183.13 291 236.26 291 291 291 C291 268.23 291 245.46 291 222 C274.17 222 257.34 222 240 222 C240 212.1 240 202.2 240 192 C256.83 192 273.66 192 291 192 C291 138.87 291 85.74 291 31 C268.23 31 245.46 31 222 31 C222 43.21 222 55.42 222 68 C225.63 69.98 229.26 71.96 233 74 C243.52800135 81.60280763 250.12448059 91.79404853 252.46875 104.55078125 C253.81852752 115.14960248 252.22280173 125.64392141 247 135 C246.59007812 135.74894531 246.18015625 136.49789062 245.7578125 137.26953125 C239.3073993 147.9655554 229.78540333 153.51522973 218 157 C204.59307104 159.65099225 191.64432392 157.23836352 180 150 C169.32824196 142.37731568 163.93928402 131.97952727 161.46484375 119.24609375 C159.72047933 105.47162987 163.42962072 92.52925013 171.88671875 81.55078125 C177.11796235 75.97998431 183.72761585 71.42412805 191 69 C191 56.46 191 43.92 191 31 C138.2 31 85.4 31 31 31 Z M193.6875 103.875 C191.25723482 108.37549108 190.79351294 111.37760169 191.4375 116.4375 C193.58578304 121.33558533 196.44031944 124.22522004 201 127 C205.39708828 128.45333778 208.78699157 128.38055167 213.1875 127 C217.69195301 123.79683341 221.12546401 120.3663915 223.0625 115.125 C222.96165455 110.08272731 221.96028981 105.20532603 218.53125 101.34765625 C213.77303304 97.32416396 210.59781313 96.64408456 204.5390625 96.72265625 C199.4036416 97.28360223 196.8054609 99.99861618 193.6875 103.875 Z M102.6875 200.25 C99.88239256 203.77114802 98.91938561 206.40497988 99 211 C100.26084618 217.22096748 102.87395358 220.40086102 108 224 C111.714608 225.857304 115.94593118 225.44282906 120 225 C124.83858548 222.67031069 127.67031069 219.83858548 130 215 C130.64980519 210.45136366 130.58927283 206.47318208 128.875 202.1875 C125.07913127 197.75898648 122.33978787 194.90447893 116.5 194 C110.41028219 193.67358297 106.80093251 195.92212314 102.6875 200.25 Z " fill="#000000" transform="translate(95,95)"/>
</svg>
