<?xml version="1.0" encoding="UTF-8"?>
<svg version="1.1" xmlns="http://www.w3.org/2000/svg" width="512" height="512">
<path d="M0 0 C4.04910932 0.84356444 5.39935838 2.45171835 8 5.625 C8.61231995 8.67805481 8.61231995 8.67805481 8.59594727 12.12426758 C8.6026796 13.41943802 8.60941193 14.71460846 8.61634827 16.04902649 C8.60817644 16.73642725 8.60000462 17.42382801 8.59158516 18.1320591 C8.56606412 20.29857485 8.57099455 22.46319707 8.58348083 24.62980652 C8.60419508 29.2325807 8.58458641 33.83476486 8.5625 38.4375 C8.54133232 43.76409642 8.5369663 49.09007804 8.56300163 54.41666222 C8.56633953 56.53959969 8.54521863 58.66133768 8.52259827 60.78413391 C8.54433564 68.70531047 8.68304089 75.1302021 14.44752502 81.13215637 C18.48499363 84.68946054 22.02924495 86.83513741 27.4140625 86.96875 C28.25275879 86.99678711 29.09145508 87.02482422 29.95556641 87.05371094 C30.83647949 87.07723633 31.71739258 87.10076172 32.625 87.125 C46.42771977 87.68174008 58.73701065 89.36201065 69 99.625 C77.22321322 109.78784091 78.52156616 120.16817483 78.44604492 132.87426758 C78.43752613 135.05580924 78.46639849 137.23473038 78.49804688 139.41601562 C78.55918588 151.76837514 76.11410697 161.63744917 67.8125 171.125 C58.79701948 179.13876046 51.12250867 181.85210807 39.1875 182.125 C26.23090679 182.08614316 26.23090679 182.08614316 15 187.625 C14.34 187.625 13.68 187.625 13 187.625 C12.31225595 188.94758472 11.65288627 190.28486503 11 191.625 C10.24203125 193.171875 10.24203125 193.171875 9.46875 194.75 C7.72725493 198.83337708 7.4533087 202.66524557 7.3125 207.0625 C7.27833984 207.79404297 7.24417969 208.52558594 7.20898438 209.27929688 C7.12748247 211.06069562 7.06204477 212.84281749 7 214.625 C7.68964844 214.59019531 8.37929688 214.55539063 9.08984375 214.51953125 C16.02131314 214.31985929 22.9587411 214.36432656 28.59765625 218.9140625 C34.16181359 224.98110287 34.28726618 232.31741061 34.125 240.0625 C34.11597656 240.88943359 34.10695313 241.71636719 34.09765625 242.56835938 C34.07431512 244.58736708 34.03845288 246.60622356 34 248.625 C35.45246124 248.61833817 35.45246124 248.61833817 36.93426514 248.61154175 C46.05701388 248.57100875 55.17974437 248.54102188 64.30256271 248.52137566 C68.99276226 248.51093583 73.68288915 248.49677295 78.37304688 248.47412109 C82.89880335 248.45239988 87.42448991 248.44043287 91.95029449 248.43524551 C93.67747346 248.43154847 95.40464857 248.42432912 97.13179779 248.41353989 C99.54986357 248.39903455 101.96763994 248.39702165 104.38574219 248.39794922 C105.10071869 248.39075867 105.81569519 248.38356812 106.55233765 248.37615967 C110.19375136 248.3912872 112.94334165 248.54817982 116 250.625 C118.0815902 253.30133026 117.99587591 254.74253668 117.875 258.1875 C117 261.625 117 261.625 115.31080043 263.31649452 C112.4017914 264.96373944 110.48932321 264.9994528 107.15219307 264.99858761 C105.94964099 265.00557735 104.74708891 265.0125671 103.50809586 265.01976866 C102.17199124 265.01237501 100.83588809 265.00471276 99.49978638 264.99681091 C98.08167606 264.99938495 96.66356763 265.0032854 95.24546421 265.0084005 C91.34386515 265.0186943 87.44249157 265.01035782 83.54090333 264.99910367 C79.33494619 264.99026511 75.12902146 264.99874887 70.92306519 265.00531006 C63.63304725 265.01447485 56.34309222 265.0131315 49.05307388 265.00512505 C38.50634914 264.99390601 27.95971427 265.00292331 17.41299735 265.01768685 C0.29372504 265.04147076 -16.82553619 265.05482614 -33.94482422 265.05883789 C-34.96975983 265.05908276 -35.99469544 265.05932763 -37.05068971 265.05957992 C-48.48573834 265.06212584 -59.92078612 265.06269266 -71.35583496 265.06164551 C-75.5020345 265.06131249 -79.64823404 265.06102709 -83.79443359 265.06079102 C-84.81751676 265.06072823 -85.84059993 265.06066544 -86.89468561 265.06060075 C-103.9467525 265.05999619 -120.99876823 265.07486668 -138.05081379 265.10162407 C-148.57217919 265.11744423 -159.09337963 265.11967143 -169.61474682 265.10449005 C-176.82301921 265.09503639 -184.03119204 265.09976271 -191.2394527 265.11570387 C-195.40021382 265.12441351 -199.56071061 265.12650202 -203.72145844 265.11117744 C-207.5299515 265.09726201 -211.33796563 265.10167742 -215.14643253 265.12069846 C-217.17783375 265.12602711 -219.20925705 265.1115993 -221.24060905 265.09648794 C-229.94995205 265.097005 -229.94995205 265.097005 -237 269.625 C-240.443078 274.789617 -240.1456902 279.94994386 -240.13371277 285.99972534 C-240.13597833 286.84027029 -240.13824388 287.68081524 -240.14057809 288.54683125 C-240.14690541 291.36180123 -240.14608954 294.17672291 -240.14526367 296.99169922 C-240.14825594 299.01061058 -240.15165863 301.02952136 -240.15544128 303.0484314 C-240.16427828 308.53190458 -240.16661926 314.01536215 -240.16725707 319.49884176 C-240.16820662 324.07640915 -240.17188543 328.6539729 -240.17542917 333.23153889 C-240.18357248 344.0311515 -240.1860135 354.83075577 -240.18530273 365.63037109 C-240.18470186 376.77127059 -240.1952559 387.91212167 -240.2110464 399.05300891 C-240.22412072 408.61832274 -240.22948668 418.18362075 -240.22884732 427.74894345 C-240.22859232 433.46176487 -240.23144499 439.17454328 -240.24202538 444.8873558 C-240.25170458 450.26026953 -240.25178671 455.63309909 -240.24450874 461.00601578 C-240.24346271 462.97685112 -240.24582691 464.94769171 -240.2518692 466.91851807 C-240.25958932 469.61121347 -240.25494415 472.3036182 -240.24723816 474.99630737 C-240.25238172 475.77404223 -240.25752529 476.55177709 -240.26282471 477.35307968 C-240.22683581 483.05359703 -239.79017683 488.43058969 -236.0625 493 C-232.13947784 496.09086595 -228.18531861 495.76792543 -223.42959785 495.75642776 C-222.64760566 495.7584804 -221.86561347 495.76053303 -221.05992454 495.76264787 C-218.41779261 495.76833967 -215.77571245 495.76685794 -213.13357544 495.76544189 C-211.22889135 495.76802427 -209.32420781 495.77103708 -207.41952503 495.7744453 C-202.16842634 495.78253335 -196.9173413 495.78430587 -191.66623712 495.78504276 C-186.00969591 495.78689016 -180.35316185 495.79443584 -174.69662476 495.80117798 C-162.32082928 495.81477409 -149.94503703 495.82078785 -137.56923532 495.82518864 C-129.84681409 495.82794859 -122.12439411 495.83218546 -114.40197372 495.83669281 C-93.03488533 495.84888657 -71.66779848 495.85922145 -50.30070686 495.8625679 C-48.91871371 495.86278954 -47.53672055 495.86301132 -46.15472739 495.86323325 C-44.76936944 495.86345389 -43.38401148 495.86367438 -41.99865353 495.8638947 C-39.2193172 495.86433726 -36.43998086 495.86478437 -33.66064453 495.86523438 C-32.97152966 495.86534377 -32.28241479 495.86545316 -31.57241765 495.86556586 C-9.2195648 495.86919783 13.13325565 495.88512317 35.48609609 495.90842474 C59.11018196 495.93300657 82.73424275 495.94673322 106.35834324 495.94793582 C119.23975657 495.94885393 132.12112747 495.95464037 145.00252914 495.97275543 C155.96886046 495.98812267 166.93513622 495.99329687 177.90147625 495.98501733 C183.49999505 495.98109898 189.09840188 495.98209803 194.69690704 495.99607468 C199.81785177 496.00874261 204.93859957 496.00767904 210.05954374 495.99548396 C211.91619479 495.99351458 213.77285945 495.99666211 215.62949131 496.00532833 C218.14587477 496.01633427 220.66155253 496.00899487 223.17791557 495.9969368 C223.90513056 496.00453199 224.63234554 496.01212718 225.38159734 496.01995254 C229.76850944 495.97431589 232.4853215 495.26692675 236 492.625 C240.64191747 487.651517 240.14651003 481.7141505 240.13371277 475.25027466 C240.13597833 474.40972971 240.13824388 473.56918476 240.14057809 472.70316875 C240.14690541 469.88819877 240.14608954 467.07327709 240.14526367 464.25830078 C240.14825594 462.23938942 240.15165863 460.22047864 240.15544128 458.2015686 C240.16427828 452.71809542 240.16661926 447.23463785 240.16725707 441.75115824 C240.16820662 437.17359085 240.17188543 432.5960271 240.17542917 428.01846111 C240.18357248 417.2188485 240.1860135 406.41924423 240.18530273 395.61962891 C240.18470186 384.47872941 240.1952559 373.33787833 240.2110464 362.19699109 C240.22412072 352.63167726 240.22948668 343.06637925 240.22884732 333.50105655 C240.22859232 327.78823513 240.23144499 322.07545672 240.24202538 316.3626442 C240.25170458 310.98973047 240.25178671 305.61690091 240.24450874 300.24398422 C240.24346271 298.27314888 240.24582691 296.30230829 240.2518692 294.33148193 C240.25958932 291.63878653 240.25494415 288.9463818 240.24723816 286.25369263 C240.2549535 285.08709034 240.2549535 285.08709034 240.26282471 283.89692032 C240.23297346 279.16858427 239.64879839 275.11865593 238 270.625 C233.04800281 265.92060267 229.63572408 265.47868682 223.03369141 265.4831543 C222.21077103 265.47967987 221.38785065 265.47620544 220.53999329 265.47262573 C218.74971825 265.46526426 216.95943407 265.45992097 215.16914749 265.45633507 C212.33659672 265.44918095 209.50422033 265.43352274 206.67172241 265.41499329 C198.61710998 265.36247116 190.56259253 265.31453095 182.5078125 265.29907227 C177.5840391 265.28900184 172.66070321 265.25970141 167.73710251 265.21775246 C165.85924969 265.20542405 163.98133512 265.20032455 162.10344315 265.20255089 C159.47685153 265.20489871 156.85151931 265.18277809 154.22509766 265.1550293 C153.44780807 265.16163071 152.67051849 265.16823212 151.86967468 265.17503357 C148.38470516 265.11450321 146.36382216 264.89045377 143.51327515 262.81062317 C141.3095843 259.62783266 141.52748342 257.40513266 142 253.625 C143.76015131 250.4399643 144.49890916 249.79203028 148 248.625 C150.639473 248.51855369 153.25292709 248.46775541 155.89282227 248.46386719 C156.69649734 248.45890228 157.50017242 248.45393738 158.32820129 248.44882202 C160.99094499 248.43420202 163.65362898 248.42739659 166.31640625 248.421875 C168.17146302 248.41612082 170.02651979 248.41036312 171.88157654 248.40460205 C175.77627845 248.39409074 179.67095973 248.38824978 183.56567383 248.38476562 C188.53637101 248.37929854 193.50679183 248.35530944 198.47740269 248.32679367 C202.31319449 248.30808631 206.14892101 248.30295727 209.98475456 248.30142975 C211.81583088 248.29841796 213.64690645 248.29043969 215.4779377 248.27724457 C239.14223617 248.11896641 239.14223617 248.11896641 247.375 255.75 C248.16648437 256.45382812 248.95796875 257.15765625 249.7734375 257.8828125 C255.02511023 264.35066208 256.59584995 270.88357216 256.5146637 279.06797791 C256.52160922 279.97516069 256.52855475 280.88234348 256.53571075 281.81701666 C256.55389663 284.83391455 256.54373989 287.85001858 256.53344727 290.86694336 C256.54050997 293.03921595 256.54925646 295.21148362 256.55955505 297.38374329 C256.58201891 303.26807257 256.57911625 309.1521325 256.57023358 315.03648829 C256.56511641 319.9544804 256.57242219 324.87242222 256.57970566 329.79040915 C256.59669509 341.39474148 256.5931483 352.99894228 256.57641602 364.60327148 C256.55949338 376.56341915 256.57533365 388.52320187 256.6076389 400.48330969 C256.63435252 410.76384455 256.64160603 421.04426594 256.63312382 431.32483202 C256.62820011 437.45973439 256.63038047 443.5944172 256.65091133 449.72929192 C256.66929617 455.49885971 256.66327486 461.26790336 256.63871193 467.03744316 C256.63371312 469.15053548 256.63716952 471.26366793 256.64986038 473.37672806 C256.71711495 485.54026542 256.76372726 494.82675759 248.5625 504.5 C241.0861887 510.69986791 234.59395413 512.9371965 224.89169693 512.88226891 C224.10013344 512.88577498 223.30856996 512.88928105 222.4930197 512.89289337 C219.84230156 512.90219248 217.19180385 512.8972879 214.54107666 512.89242554 C212.6207161 512.89616254 210.70035707 512.90076427 208.78000045 512.90615618 C203.50390181 512.91839533 198.22786655 512.91812463 192.95175695 512.91576743 C187.2610816 512.9153595 181.57042662 512.92639618 175.87976074 512.93588257 C164.73096101 512.95249855 153.58218242 512.95799239 142.43337134 512.95910732 C133.37136711 512.96005751 124.30936987 512.96416634 115.24736786 512.97050858 C93.73772762 512.98525626 72.22809425 512.99755813 50.71844864 512.99651146 C50.03067527 512.9964803 49.34290191 512.99644914 48.63428692 512.99641704 C45.14843833 512.99625083 41.66258974 512.99605275 38.17674115 512.99584763 C37.13830565 512.99578779 37.13830565 512.99578779 36.07889165 512.99572675 C34.67891189 512.99564587 33.27893213 512.99556228 31.87895237 512.99547596 C10.09993894 512.99425059 -11.67901221 513.00926166 -33.45800781 513.03662109 C-57.93213464 513.06735364 -82.40621339 513.08452755 -106.8803618 513.08269465 C-119.83681203 513.08203052 -132.79319202 513.08753279 -145.74962616 513.10905075 C-156.78084861 513.12725385 -167.81196898 513.13161698 -178.84319994 513.1180319 C-184.47087331 513.11149793 -190.09835077 513.11140077 -195.72600555 513.1287384 C-200.88046651 513.14445483 -206.03457599 513.14161985 -211.18902829 513.12417014 C-213.05104977 513.12109713 -214.91309739 513.12474395 -216.77508804 513.13589029 C-227.85514524 513.19781126 -236.9671905 512.68840104 -246.8125 507 C-253.52445629 499.71273317 -256.14817681 492.65672089 -256.15390015 482.90354919 C-256.1582824 482.00149295 -256.16266465 481.09943671 -256.1671797 480.17004544 C-256.18057863 477.13476453 -256.18674908 474.09951268 -256.19287109 471.06420898 C-256.20077131 468.89282601 -256.20904021 466.72144436 -256.21765137 464.55006409 C-256.2438846 457.40708675 -256.25918204 450.26410352 -256.2734375 443.12109375 C-256.27879697 440.66251179 -256.28417448 438.20392986 -256.28956985 435.74534798 C-256.31120202 425.51727399 -256.32993814 415.28920158 -256.34119225 405.0611105 C-256.35742665 390.40284481 -256.39058833 375.74494765 -256.44759309 361.08678192 C-256.48630496 350.7809179 -256.50582654 340.4751248 -256.51111281 330.16918999 C-256.514765 324.01403934 -256.52677259 317.85917157 -256.55921555 311.70409966 C-256.58931704 305.91004142 -256.59560025 300.1164369 -256.58383179 294.32231712 C-256.58361122 292.19953469 -256.5919023 290.07673108 -256.60948563 287.95402145 C-256.70391649 275.89427847 -256.73841911 266.76874624 -248.89453125 257.00390625 C-248.20746094 256.40449219 -247.52039063 255.80507812 -246.8125 255.1875 C-246.13832031 254.57003906 -245.46414062 253.95257813 -244.76953125 253.31640625 C-234.91606498 247.298704 -223.80766694 248.21672491 -212.68896484 248.28442383 C-210.73677585 248.28527104 -208.7845859 248.28479312 -206.83239746 248.28309631 C-201.55621374 248.28223861 -196.28023628 248.299828 -191.00410032 248.32081819 C-185.48147355 248.33962247 -179.9588416 248.34133838 -174.43618774 248.34489441 C-163.98876501 248.35420386 -153.54143691 248.37880276 -143.09405577 248.40894288 C-131.19563554 248.44252114 -119.29721069 248.45898151 -107.39875484 248.47402918 C-82.93245085 248.50535328 -58.46623073 248.55809238 -34 248.625 C-34.02094727 248.03074219 -34.04189453 247.43648437 -34.06347656 246.82421875 C-34.14741854 244.09132295 -34.19890281 241.35869943 -34.25 238.625 C-34.28351563 237.69042969 -34.31703125 236.75585938 -34.3515625 235.79296875 C-34.43868692 229.56357276 -33.68669331 224.77208842 -30 219.625 C-23.57214724 214.17529874 -17.00248475 214.4649503 -9 214.625 C-9.02320313 213.57441406 -9.04640625 212.52382812 -9.0703125 211.44140625 C-9.27461119 198.55215605 -8.46901853 188.14304856 0.3125 177.9375 C10.3745387 169.2794667 18.54713343 165.81541822 31.91015625 165.44921875 C32.75513672 165.42537109 33.60011719 165.40152344 34.47070312 165.37695312 C36.20222057 165.33389354 37.93407251 165.30269236 39.66601562 165.28320312 C45.62154411 165.08756697 49.01385859 163.87344844 54 160.625 C54.66 160.625 55.32 160.625 56 160.625 C56.68774405 159.30241528 57.34711373 157.96513497 58 156.625 C58.51175781 155.71878906 59.02351563 154.81257812 59.55078125 153.87890625 C62.06117174 147.97106421 61.43150024 141.4216383 61.375 135.125 C61.39240234 133.18560547 61.39240234 133.18560547 61.41015625 131.20703125 C61.38475611 122.96891923 61.11632634 117.33090159 55.6875 110.875 C50.03247822 106.14056316 44.47954389 104.57386084 37.234375 104.4140625 C36.34363281 104.38570313 35.45289063 104.35734375 34.53515625 104.328125 C32.69420236 104.27648534 30.85302958 104.23208618 29.01171875 104.1953125 C16.80921006 103.7739309 8.55632683 99.68436397 0.25 90.8125 C-5.96294926 83.40802622 -8.08757018 75.51766916 -8.19287109 65.98632812 C-8.20513733 65.01704628 -8.20513733 65.01704628 -8.21765137 64.02818298 C-8.24232907 61.90421444 -8.25897006 59.78031159 -8.2734375 57.65625 C-8.27876118 56.92789444 -8.28408485 56.19953888 -8.28956985 55.44911194 C-8.31621675 51.59840959 -8.33562382 47.7477388 -8.35009766 43.89697266 C-8.36346472 40.71536692 -8.39137867 37.53439833 -8.43212891 34.35302734 C-8.4814409 30.50222172 -8.50621509 26.65199592 -8.51332474 22.80088806 C-8.52003276 21.33684443 -8.53524348 19.87281354 -8.55921555 18.40895081 C-8.59087498 16.3598378 -8.59090574 14.3129657 -8.58349609 12.26367188 C-8.59158295 11.09960815 -8.5996698 9.93554443 -8.60800171 8.73620605 C-7.64259105 3.79610236 -4.91800454 1.02458428 0 0 Z M-18 231.625 C-18 237.235 -18 242.845 -18 248.625 C-6.12 248.625 5.76 248.625 18 248.625 C18 243.015 18 237.405 18 231.625 C16.2670702 229.8920702 14.03785664 230.49679954 11.72851562 230.48605347 C10.99310547 230.4880777 10.25769531 230.49010193 9.5 230.4921875 C8.74912109 230.49123077 7.99824219 230.49027405 7.22460938 230.48928833 C5.63411373 230.48860662 4.04361533 230.49046028 2.453125 230.49462891 C0.01035345 230.49997733 -2.43223421 230.49468366 -4.875 230.48828125 C-6.41666707 230.48894203 -7.95833403 230.4902232 -9.5 230.4921875 C-10.23541016 230.49016327 -10.97082031 230.48813904 -11.72851562 230.48605347 C-15.15246342 230.19443487 -15.15246342 230.19443487 -18 231.625 Z " fill="#000000" transform="translate(256,-0.625)"/>
<path d="M0 0 C2.02221737 -0.01192977 4.04141144 -0.06116808 6.06298828 -0.11157227 C7.97917969 -0.12220703 7.97917969 -0.12220703 9.93408203 -0.13305664 C11.10261719 -0.14651123 12.27115234 -0.15996582 13.47509766 -0.17382812 C16.52783203 0.42553711 16.52783203 0.42553711 18.94384766 2.73388672 C20.52783203 5.42553711 20.52783203 5.42553711 20.46533203 9.05053711 C19.18692294 13.65280984 19.18692294 13.65280984 16.52783203 15.42553711 C13.76434335 16.2689632 11.30012896 16.54502421 8.41845703 16.52319336 C7.7381543 16.5206958 7.05785156 16.51819824 6.35693359 16.515625 C5.50583008 16.506521 4.65472656 16.49741699 3.77783203 16.48803711 C1.05533203 16.46741211 -1.66716797 16.44678711 -4.47216797 16.42553711 C-4.47216797 24.01553711 -4.47216797 31.60553711 -4.47216797 39.42553711 C85.94783203 39.42553711 176.36783203 39.42553711 269.52783203 39.42553711 C269.52783203 31.83553711 269.52783203 24.24553711 269.52783203 16.42553711 C266.8100351 16.43219894 264.09223816 16.43886078 261.29208374 16.44572449 C235.7173028 16.50698307 210.14253152 16.55165336 184.56769371 16.58097363 C171.41847209 16.59644891 158.26930428 16.61755115 145.12011719 16.65185547 C133.66059351 16.68173747 122.20110879 16.7011073 110.74154723 16.70780259 C104.67262362 16.71171686 98.60381147 16.72092985 92.53492355 16.74272728 C86.82390507 16.76307338 81.11304409 16.76937465 75.4019928 16.76486015 C73.30495473 16.76568619 71.20791145 16.77166291 69.11090469 16.78315353 C66.24890322 16.79806811 63.38749729 16.79449433 60.52548218 16.78630066 C59.6947325 16.79503918 58.86398282 16.80377771 58.00805891 16.81278104 C53.1231979 16.77495272 49.75992594 16.13806917 45.52783203 13.42553711 C43.98196327 10.33379959 44.23423682 7.83124159 44.52783203 4.42553711 C45.97646523 2.23072052 45.97646523 2.23072052 48.52783203 0.42553711 C51.57041607 -0.1677963 54.57046215 -0.11391553 57.66220093 -0.08239746 C59.06367762 -0.0917574 59.06367762 -0.0917574 60.49346697 -0.10130644 C63.63196719 -0.11729262 66.76969681 -0.10460991 69.90820312 -0.09204102 C72.15519159 -0.09745969 74.40217651 -0.10458092 76.64915466 -0.11328125 C82.75871819 -0.13154971 88.86801217 -0.12443185 94.97758055 -0.11176491 C101.36629697 -0.10165304 107.75498997 -0.11102577 114.14370728 -0.11730957 C125.56354212 -0.12505913 136.98322745 -0.11260884 148.40303703 -0.09227222 C158.75394107 -0.07440953 169.10466562 -0.07749776 179.45556641 -0.09594727 C191.47622601 -0.11736294 203.49675003 -0.12531568 215.51743567 -0.11349821 C221.88028309 -0.10725932 228.24300691 -0.10643843 234.60584641 -0.11964417 C240.58949912 -0.1311947 246.57281283 -0.12319103 252.55642891 -0.10006714 C254.75343449 -0.09477538 256.95046858 -0.09630176 259.14746284 -0.1051178 C262.14519306 -0.11603831 265.14183508 -0.1023511 268.13949585 -0.08239746 C269.01031748 -0.09132035 269.88113911 -0.10024323 270.77834928 -0.10943651 C276.17220507 -0.03973278 279.23405018 0.8576184 283.52783203 4.42553711 C286.3713651 8.03024636 285.8336705 12.52453496 285.82861328 16.91772461 C285.83289841 17.74128448 285.83718353 18.56484436 285.84159851 19.4133606 C285.84733328 21.15324994 285.84784836 22.89316326 285.84350586 24.63305664 C285.84035128 27.28435572 285.86379609 29.93453259 285.88916016 32.58569336 C285.8914339 34.27970238 285.8921363 35.97371438 285.89111328 37.66772461 C285.90032303 38.45541229 285.90953278 39.24309998 285.91902161 40.05465698 C285.87877795 44.88370084 285.31834344 48.30923778 282.52783203 52.42553711 C277.70953466 56.6133386 271.97731533 55.84280937 265.95068359 55.80648804 C264.17322187 55.813508 264.17322187 55.813508 262.35985184 55.82066977 C259.07423171 55.83056635 255.78894398 55.82700327 252.50333214 55.81771111 C248.9586243 55.81092661 245.41396158 55.82139887 241.8692627 55.82965088 C234.92659697 55.84299683 227.9840285 55.84010666 221.04135895 55.83141296 C215.39934999 55.8246402 209.7573683 55.82371792 204.11535645 55.82698441 C203.31262275 55.8274441 202.50988905 55.8279038 201.6828301 55.82837743 C200.05213641 55.8293366 198.42144274 55.83030924 196.79074907 55.83129521 C181.49659592 55.83985162 166.20249669 55.83001103 150.90835238 55.81389411 C137.78278733 55.80049069 124.65730189 55.80281871 111.53173828 55.81665039 C96.2926388 55.83270176 81.05358659 55.83902763 65.81447983 55.8298136 C64.18975577 55.82885794 62.56503169 55.82791483 60.94030762 55.82698441 C60.14089414 55.82652158 59.34148066 55.82605875 58.51784253 55.8255819 C52.88204136 55.82299068 47.24627016 55.82736585 41.61047363 55.83442307 C34.74312202 55.84283335 27.87587329 55.8405679 21.00853348 55.82458083 C17.50411058 55.81669171 13.99985928 55.81361731 10.49543762 55.82352829 C6.69844589 55.83169219 2.90194095 55.82148386 -0.89501953 55.80648804 C-2.00541973 55.8131802 -3.11581993 55.81987237 -4.25986862 55.82676733 C-13.64310508 55.75459107 -13.64310508 55.75459107 -17.47216797 52.42553711 C-20.73179434 47.59738548 -20.92688447 43.36052965 -20.90576172 37.73803711 C-20.91100357 36.91730713 -20.91624542 36.09657715 -20.92164612 35.25097656 C-20.92804352 33.52304206 -20.92675899 31.79506388 -20.91821289 30.06713867 C-20.90969278 27.43320827 -20.93850996 24.80144173 -20.97021484 22.16772461 C-20.97182692 20.48282942 -20.97124919 18.79793042 -20.96826172 17.11303711 C-20.9794957 16.33162354 -20.99072968 15.55020996 -21.00230408 14.74511719 C-20.93650038 9.54750841 -19.97591902 6.5025171 -16.47216797 2.42553711 C-11.8522737 -0.97249086 -5.47705666 0.01532137 0 0 Z " fill="#000000" transform="translate(123.47216796875,427.574462890625)"/>
<path d="M0 0 C1.02780327 -0.00810448 1.02780327 -0.00810448 2.07637024 -0.01637268 C4.33065622 -0.02883174 6.58365785 -0.0123896 8.83789062 0.00561523 C10.41060452 0.00546018 11.9833188 0.00397011 13.55603027 0.00120544 C16.84791002 -0.00017727 20.1393534 0.01235766 23.43115234 0.03515625 C27.64458966 0.06354087 31.85730221 0.06080204 36.07079315 0.04806614 C39.3170996 0.0411015 42.56323938 0.04890714 45.80952454 0.06132317 C47.36281189 0.06583006 48.91611719 0.06618113 50.46940613 0.06225777 C52.64273573 0.05933773 54.81507678 0.07588859 56.98828125 0.09765625 C58.84096619 0.10576073 58.84096619 0.10576073 60.7310791 0.11402893 C64.28873561 0.53670943 66.15373756 1.35640379 68.99414062 3.50170898 C72.07444273 8.10954141 72.43721754 12.31714497 72.39257812 17.71655273 C72.3954483 18.49051895 72.39831848 19.26448517 72.40127563 20.06190491 C72.40330823 21.69150529 72.39783484 23.32113051 72.38525391 24.95068359 C72.3692097 27.42854084 72.38511766 29.90476182 72.40429688 32.38256836 C72.40231387 33.97306671 72.39846902 35.56356406 72.39257812 37.15405273 C72.39865082 37.88655746 72.40472351 38.61906219 72.41098022 39.37376404 C72.34255663 44.44487047 71.50571977 48.05379219 68.99414062 52.50170898 C65.03113761 55.54469448 62.01024099 55.88022639 57.08007812 55.88989258 C56.40462952 55.89514954 55.72918091 55.90040649 55.03326416 55.90582275 C52.81165093 55.91897269 50.59076052 55.91030308 48.36914062 55.90014648 C46.81884626 55.90216867 45.26855283 55.90508132 43.71826172 55.90884399 C40.47354043 55.91326054 37.22906737 55.90685805 33.984375 55.89282227 C29.83149455 55.87573055 25.6791958 55.88557535 21.52633667 55.90353966 C18.32637167 55.91439572 15.1265439 55.91092284 11.92657471 55.90315628 C10.39560883 55.9011593 8.86463038 55.90359588 7.3336792 55.91059494 C5.19151956 55.91823975 3.05029348 55.90656428 0.90820312 55.88989258 C-0.91783447 55.88631241 -0.91783447 55.88631241 -2.78076172 55.88265991 C-7.17931175 55.36309992 -9.80939273 53.82636848 -12.75585938 50.56420898 C-15.36326565 46.26198864 -15.179344 41.7961849 -15.20898438 36.88452148 C-15.21468445 36.14974579 -15.22038452 35.41497009 -15.22625732 34.65792847 C-15.23568311 33.10635813 -15.24223166 31.55476799 -15.24609375 30.00317383 C-15.25579798 27.64164995 -15.28684228 25.28099756 -15.31835938 22.91967773 C-15.32489049 21.40796412 -15.33014054 19.89624432 -15.33398438 18.38452148 C-15.35250458 17.33423264 -15.35250458 17.33423264 -15.37139893 16.26272583 C-15.35036121 11.58465786 -14.55625826 8.42598759 -12.00585938 4.50170898 C-8.06192803 0.61792589 -5.47888772 0.00073711 0 0 Z M0.99414062 16.50170898 C0.99414062 24.09170898 0.99414062 31.68170898 0.99414062 39.50170898 C19.14414062 39.50170898 37.29414063 39.50170898 55.99414062 39.50170898 C55.99414062 31.91170898 55.99414062 24.32170898 55.99414062 16.50170898 C37.84414063 16.50170898 19.69414062 16.50170898 0.99414062 16.50170898 Z " fill="#000000" transform="translate(408.005859375,355.498291015625)"/>
<path d="M0 0 C0.68359589 -0.00846954 1.36719177 -0.01693909 2.07150269 -0.02566528 C4.32072797 -0.04897495 6.56926682 -0.05005899 8.81860352 -0.04882812 C10.38892386 -0.05593318 11.95924162 -0.06363268 13.52955627 -0.07189941 C16.81714092 -0.08533016 20.10448548 -0.08691931 23.39208984 -0.08105469 C27.59669619 -0.07515848 31.80014786 -0.10575193 36.00453091 -0.14617157 C39.24658877 -0.17207162 42.48836938 -0.17492398 45.73051643 -0.17127991 C47.28022222 -0.17296889 48.82994112 -0.18259018 50.37954521 -0.20042419 C52.55068247 -0.22266338 54.71949294 -0.21289135 56.890625 -0.1953125 C58.12352768 -0.19736694 59.35643036 -0.19942139 60.62669373 -0.20153809 C65.14032427 0.62754221 66.76672578 2.21653169 70.01000977 5.41992188 C72.35632218 9.4553258 72.31676486 13.53803245 72.31079102 18.09960938 C72.31507614 18.83059845 72.31936127 19.56158752 72.32377625 20.31472778 C72.32950006 21.85612964 72.33003421 23.3975585 72.32568359 24.93896484 C72.32252886 27.2807493 72.34598707 29.62126256 72.37133789 31.96289062 C72.37361183 33.4667953 72.37431394 34.97070333 72.37329102 36.47460938 C72.38250076 37.1665036 72.39171051 37.85839783 72.40119934 38.57125854 C72.34820211 44.22118306 71.07958176 48.83295688 67.51000977 53.29492188 C64.05757535 55.88424769 60.45977252 55.55793641 56.32299805 55.58105469 C55.31026321 55.58850204 55.31026321 55.58850204 54.27706909 55.59609985 C52.04480976 55.61069786 49.81262148 55.61751934 47.58032227 55.62304688 C46.0271708 55.62880008 44.47401935 55.63455779 42.92086792 55.64031982 C39.66428293 55.65082295 36.40772259 55.65667018 33.15112305 55.66015625 C28.98254906 55.66564095 24.81430171 55.68967111 20.64583015 55.7181282 C17.43731744 55.73677076 14.22888319 55.74196103 11.02032089 55.74349213 C9.48375538 55.74651531 7.94719113 55.75453261 6.41067886 55.76767731 C4.25880463 55.78477299 2.10772553 55.78284953 -0.04418945 55.77636719 C-1.87927567 55.78183563 -1.87927567 55.78183563 -3.75143433 55.78741455 C-7.31534204 55.38300283 -9.16305666 54.59513071 -11.98999023 52.41992188 C-14.91028981 47.24817583 -15.43701905 42.933482 -15.38842773 37.07226562 C-15.392733 35.90988121 -15.392733 35.90988121 -15.39712524 34.72401428 C-15.39915478 33.09619408 -15.39370313 31.46834887 -15.38110352 29.84057617 C-15.36501091 27.36060754 -15.38100032 24.88226287 -15.40014648 22.40234375 C-15.39816428 20.81314748 -15.39432108 19.22395221 -15.38842773 17.63476562 C-15.39450043 16.90023666 -15.40057312 16.1657077 -15.40682983 15.40892029 C-15.34269846 10.67730196 -14.6292292 7.36796672 -11.98999023 3.41992188 C-7.98183248 0.39584107 -4.96265902 0.03391066 0 0 Z M1.01000977 16.41992188 C1.01000977 24.00992187 1.01000977 31.59992188 1.01000977 39.41992188 C19.16000977 39.41992188 37.31000977 39.41992188 56.01000977 39.41992188 C56.01000977 31.82992188 56.01000977 24.23992187 56.01000977 16.41992188 C37.86000977 16.41992188 19.71000977 16.41992188 1.01000977 16.41992188 Z " fill="#000000" transform="translate(46.989990234375,355.580078125)"/>
<path d="M0 0 C0.73336075 -0.0033284 1.4667215 -0.0066568 2.2223053 -0.01008606 C3.76790747 -0.0151311 5.31352046 -0.01749514 6.85913086 -0.01733398 C9.21160971 -0.01952098 11.56361955 -0.03770341 13.91601562 -0.05664062 C15.42317549 -0.05957504 16.93033757 -0.06155952 18.4375 -0.0625 C19.13455551 -0.06968552 19.83161102 -0.07687103 20.54978943 -0.08427429 C26.40901896 -0.05713034 30.6271346 0.73101666 35.09765625 4.60546875 C38.7624157 8.89847267 38.45876743 12.96149842 38.48828125 18.34375 C38.49398132 19.14652878 38.4996814 19.94930756 38.5055542 20.77641296 C38.51499664 22.47519618 38.52153518 24.17399765 38.52539062 25.87280273 C38.53508129 28.46045251 38.56610483 31.04730271 38.59765625 33.63476562 C38.60418826 35.28775572 38.60943796 36.94075147 38.61328125 38.59375 C38.62562805 39.36270096 38.63797485 40.13165192 38.6506958 40.92390442 C38.63102066 45.7139095 38.04676015 49.08162271 35.28515625 53.16796875 C30.96780212 56.9743815 26.28744333 56.61992432 20.8203125 56.6015625 C19.45391884 56.60942528 19.45391884 56.60942528 18.05992126 56.6174469 C16.13769549 56.62385641 14.21543043 56.62254398 12.29321289 56.61401367 C9.36077642 56.60550681 6.43029093 56.63427446 3.49804688 56.66601562 C1.62630266 56.66762795 -0.24544498 56.66704952 -2.1171875 56.6640625 C-2.98923325 56.67529648 -3.86127899 56.68653046 -4.75975037 56.69810486 C-10.20162698 56.63617204 -13.46771142 55.90017273 -17.71484375 52.16796875 C-20.60201518 48.5311531 -20.03863102 43.89868275 -20.05078125 39.45703125 C-20.05743805 38.61127533 -20.06409485 37.76551941 -20.07095337 36.89413452 C-20.08106498 35.10717947 -20.08577085 33.32018676 -20.08544922 31.53320312 C-20.08981763 28.80925772 -20.12613814 26.08693962 -20.1640625 23.36328125 C-20.16993208 21.62370343 -20.17390053 19.88411795 -20.17578125 18.14453125 C-20.1973378 16.93018906 -20.1973378 16.93018906 -20.21932983 15.6913147 C-20.17682407 10.38992032 -19.24586072 7.36190001 -15.71484375 3.16796875 C-10.73919236 -0.14913218 -5.83738801 0.00929219 0 0 Z M-3.71484375 16.16796875 C-3.71484375 24.08796875 -3.71484375 32.00796875 -3.71484375 40.16796875 C4.86515625 40.16796875 13.44515625 40.16796875 22.28515625 40.16796875 C22.28515625 32.24796875 22.28515625 24.32796875 22.28515625 16.16796875 C13.70515625 16.16796875 5.12515625 16.16796875 -3.71484375 16.16796875 Z " fill="#000000" transform="translate(376.71484375,282.83203125)"/>
<path d="M0 0 C0.73336075 -0.0033284 1.4667215 -0.0066568 2.2223053 -0.01008606 C3.76790747 -0.0151311 5.31352046 -0.01749514 6.85913086 -0.01733398 C9.21160971 -0.01952098 11.56361955 -0.03770341 13.91601562 -0.05664062 C15.42317549 -0.05957504 16.93033757 -0.06155952 18.4375 -0.0625 C19.13455551 -0.06968552 19.83161102 -0.07687103 20.54978943 -0.08427429 C26.43963602 -0.0569885 30.64962823 0.71416606 35.09765625 4.66796875 C38.73989304 8.83052508 38.46008057 12.14266739 38.48828125 17.46484375 C38.49398132 18.29123352 38.4996814 19.11762329 38.5055542 19.96905518 C38.51500976 21.72089354 38.52154038 23.47274973 38.52539062 25.22460938 C38.53506771 27.89354957 38.56607331 30.56171031 38.59765625 33.23046875 C38.60418929 34.93358918 38.60943858 36.63671512 38.61328125 38.33984375 C38.62562805 39.13380554 38.63797485 39.92776733 38.6506958 40.74578857 C38.63137315 45.59966561 38.09722247 49.0318561 35.28515625 53.16796875 C30.95878824 56.99087182 26.26445728 56.60433813 20.78515625 56.56640625 C19.87185547 56.56927643 18.95855469 56.57214661 18.01757812 56.57510376 C16.09113951 56.57714064 14.16468003 56.5716371 12.23828125 56.55908203 C9.29510101 56.54302301 6.35329395 56.55894345 3.41015625 56.578125 C1.53515323 56.5761425 -0.33984894 56.57229869 -2.21484375 56.56640625 C-3.5306543 56.57551529 -3.5306543 56.57551529 -4.87304688 56.58480835 C-9.58115431 56.53079993 -13.03084554 56.42325542 -16.71484375 53.16796875 C-19.97447013 48.33981712 -20.16956025 44.10296129 -20.1484375 38.48046875 C-20.15367935 37.65973877 -20.1589212 36.83900879 -20.1643219 35.9934082 C-20.1707193 34.2654737 -20.16943477 32.53749552 -20.16088867 30.80957031 C-20.15236856 28.17563991 -20.18118574 25.54387337 -20.21289062 22.91015625 C-20.21450271 21.22526106 -20.21392497 19.54036206 -20.2109375 17.85546875 C-20.22217148 17.07405518 -20.23340546 16.2926416 -20.24497986 15.48754883 C-20.17898453 10.27480337 -19.16423602 7.29802339 -15.71484375 3.16796875 C-10.73919236 -0.14913218 -5.83738801 0.00929219 0 0 Z M-3.71484375 16.16796875 C-3.71484375 24.08796875 -3.71484375 32.00796875 -3.71484375 40.16796875 C4.86515625 40.16796875 13.44515625 40.16796875 22.28515625 40.16796875 C22.28515625 32.24796875 22.28515625 24.32796875 22.28515625 16.16796875 C13.70515625 16.16796875 5.12515625 16.16796875 -3.71484375 16.16796875 Z " fill="#000000" transform="translate(246.71484375,282.83203125)"/>
<path d="M0 0 C0.73336075 -0.0033284 1.4667215 -0.0066568 2.2223053 -0.01008606 C3.76790747 -0.0151311 5.31352046 -0.01749514 6.85913086 -0.01733398 C9.21160971 -0.01952098 11.56361955 -0.03770341 13.91601562 -0.05664062 C15.42317549 -0.05957504 16.93033757 -0.06155952 18.4375 -0.0625 C19.13455551 -0.06968552 19.83161102 -0.07687103 20.54978943 -0.08427429 C26.43963602 -0.0569885 30.64962823 0.71416606 35.09765625 4.66796875 C38.79011182 8.88791797 38.46056203 12.32430798 38.48828125 17.71875 C38.49398132 18.56970749 38.4996814 19.42066498 38.5055542 20.29740906 C38.51500923 22.10052241 38.52154017 23.90365308 38.52539062 25.70678711 C38.53508112 28.45913073 38.566093 31.21072283 38.59765625 33.96289062 C38.60418788 35.71483932 38.60943772 37.46679335 38.61328125 39.21875 C38.62562805 40.03974686 38.63797485 40.86074371 38.6506958 41.70661926 C38.63275761 46.33283772 38.38738262 49.48375795 35.28515625 53.16796875 C30.8689341 56.938442 26.30933187 56.60464879 20.78515625 56.56640625 C19.87185547 56.56927643 18.95855469 56.57214661 18.01757812 56.57510376 C16.09113951 56.57714064 14.16468003 56.5716371 12.23828125 56.55908203 C9.29510101 56.54302301 6.35329395 56.55894345 3.41015625 56.578125 C1.53515323 56.5761425 -0.33984894 56.57229869 -2.21484375 56.56640625 C-3.5306543 56.57551529 -3.5306543 56.57551529 -4.87304688 56.58480835 C-9.58115431 56.53079993 -13.03084554 56.42325542 -16.71484375 53.16796875 C-19.84007005 48.51111233 -20.16963029 44.19495277 -20.1484375 38.734375 C-20.15367935 37.93821274 -20.1589212 37.14205048 -20.1643219 36.32176208 C-20.17071866 34.64510255 -20.1694356 32.968398 -20.16088867 31.29174805 C-20.15237956 28.74120339 -20.18116834 26.19290193 -20.21289062 23.64257812 C-20.21450305 22.00651108 -20.21392432 20.37044011 -20.2109375 18.734375 C-20.22217148 17.97999649 -20.23340546 17.22561798 -20.24497986 16.44837952 C-20.17330136 10.94029253 -18.87835609 7.70031887 -15.71484375 3.16796875 C-10.73919236 -0.14913218 -5.83738801 0.00929219 0 0 Z M-3.71484375 16.16796875 C-3.71484375 24.08796875 -3.71484375 32.00796875 -3.71484375 40.16796875 C4.86515625 40.16796875 13.44515625 40.16796875 22.28515625 40.16796875 C22.28515625 32.24796875 22.28515625 24.32796875 22.28515625 16.16796875 C13.70515625 16.16796875 5.12515625 16.16796875 -3.71484375 16.16796875 Z " fill="#000000" transform="translate(116.71484375,282.83203125)"/>
<path d="M0 0 C0.73336075 -0.0033284 1.4667215 -0.0066568 2.2223053 -0.01008606 C3.76790747 -0.0151311 5.31352046 -0.01749514 6.85913086 -0.01733398 C9.21160971 -0.01952098 11.56361955 -0.03770341 13.91601562 -0.05664062 C15.42317549 -0.05957504 16.93033757 -0.06155952 18.4375 -0.0625 C19.13455551 -0.06968552 19.83161102 -0.07687103 20.54978943 -0.08427429 C26.40901896 -0.05713034 30.6271346 0.73101666 35.09765625 4.60546875 C38.73234985 8.86325268 38.44527471 12.82501155 38.453125 18.16015625 C38.4581176 19.33458786 38.4581176 19.33458786 38.46321106 20.53274536 C38.46827144 22.1886537 38.47061966 23.84457222 38.47045898 25.50048828 C38.47264205 28.02653941 38.49079742 30.55215132 38.50976562 33.078125 C38.51270046 34.68880059 38.51468465 36.29947826 38.515625 37.91015625 C38.52281052 38.66239471 38.52999603 39.41463318 38.53739929 40.18966675 C38.51398932 45.59725591 37.90276365 49.28945693 34.34765625 53.41796875 C31.42679104 55.89627863 28.97772208 56.29318101 25.27612305 56.3449707 C24.47486496 56.35780594 23.67360687 56.37064117 22.84806824 56.38386536 C21.55429008 56.39494576 21.55429008 56.39494576 20.234375 56.40625 C19.34281204 56.41432175 18.45124908 56.42239349 17.53266907 56.43070984 C15.64557839 56.44453781 13.75846283 56.45526572 11.87133789 56.46313477 C8.99381825 56.4803422 6.11744944 56.52423863 3.24023438 56.56835938 C1.40495635 56.5784873 -0.43033143 56.58700309 -2.265625 56.59375 C-3.12207108 56.61125809 -3.97851715 56.62876617 -4.86091614 56.64680481 C-10.27762691 56.62725791 -13.48439056 55.87924293 -17.71484375 52.16796875 C-19.38353865 49.40782362 -19.96974211 47.33032329 -20.00537109 44.12133789 C-20.0181308 43.33694839 -20.0308905 42.5525589 -20.04403687 41.74440002 C-20.04626251 40.90577927 -20.04848816 40.06715851 -20.05078125 39.203125 C-20.06076645 37.89763954 -20.06076645 37.89763954 -20.07095337 36.56578064 C-20.08106513 34.72755035 -20.08577085 32.88928346 -20.08544922 31.05102539 C-20.08982316 28.24368681 -20.12615918 25.43792001 -20.1640625 22.63085938 C-20.16993089 20.84245328 -20.17390013 19.05403974 -20.17578125 17.265625 C-20.19015228 16.42902847 -20.20452332 15.59243195 -20.21932983 14.73048401 C-20.18816025 10.74116042 -20.03495106 8.67970753 -17.87353516 5.22436523 C-12.40293308 0.01300114 -7.23189769 0.01151203 0 0 Z M-3.71484375 16.16796875 C-3.71484375 24.08796875 -3.71484375 32.00796875 -3.71484375 40.16796875 C4.86515625 40.16796875 13.44515625 40.16796875 22.28515625 40.16796875 C22.28515625 32.24796875 22.28515625 24.32796875 22.28515625 16.16796875 C13.70515625 16.16796875 5.12515625 16.16796875 -3.71484375 16.16796875 Z " fill="#000000" transform="translate(441.71484375,282.83203125)"/>
<path d="M0 0 C0.73336075 -0.0033284 1.4667215 -0.0066568 2.2223053 -0.01008606 C3.76790747 -0.0151311 5.31352046 -0.01749514 6.85913086 -0.01733398 C9.21160971 -0.01952098 11.56361955 -0.03770341 13.91601562 -0.05664062 C15.42317549 -0.05957504 16.93033757 -0.06155952 18.4375 -0.0625 C19.13455551 -0.06968552 19.83161102 -0.07687103 20.54978943 -0.08427429 C26.40901896 -0.05713034 30.6271346 0.73101666 35.09765625 4.60546875 C38.7624157 8.89847267 38.45876743 12.96149842 38.48828125 18.34375 C38.49398132 19.14652878 38.4996814 19.94930756 38.5055542 20.77641296 C38.51499664 22.47519618 38.52153518 24.17399765 38.52539062 25.87280273 C38.53508129 28.46045251 38.56610483 31.04730271 38.59765625 33.63476562 C38.60418826 35.28775572 38.60943796 36.94075147 38.61328125 38.59375 C38.62562805 39.36270096 38.63797485 40.13165192 38.6506958 40.92390442 C38.63102066 45.7139095 38.04676015 49.08162271 35.28515625 53.16796875 C30.95878824 56.99087182 26.26445728 56.60433813 20.78515625 56.56640625 C19.87185547 56.56927643 18.95855469 56.57214661 18.01757812 56.57510376 C16.09113951 56.57714064 14.16468003 56.5716371 12.23828125 56.55908203 C9.29510101 56.54302301 6.35329395 56.55894345 3.41015625 56.578125 C1.53515323 56.5761425 -0.33984894 56.57229869 -2.21484375 56.56640625 C-3.5306543 56.57551529 -3.5306543 56.57551529 -4.87304688 56.58480835 C-9.60411876 56.5305365 -12.96471071 56.36974978 -16.71484375 53.16796875 C-20.31006883 48.86480929 -20.16786996 44.71090054 -20.1484375 39.359375 C-20.15367935 38.51503403 -20.1589212 37.67069305 -20.1643219 36.80076599 C-20.17072874 35.01977637 -20.16942244 33.23874437 -20.16088867 31.45776367 C-20.15238162 28.74255511 -20.18115206 26.02945393 -20.21289062 23.31445312 C-20.21450298 21.57942771 -20.21392445 19.84439859 -20.2109375 18.109375 C-20.22217148 17.30295059 -20.23340546 16.49652618 -20.24497986 15.66566467 C-20.18011001 10.38105284 -19.22921234 7.34995994 -15.71484375 3.16796875 C-10.73919236 -0.14913218 -5.83738801 0.00929219 0 0 Z M-3.71484375 16.16796875 C-3.71484375 24.08796875 -3.71484375 32.00796875 -3.71484375 40.16796875 C4.86515625 40.16796875 13.44515625 40.16796875 22.28515625 40.16796875 C22.28515625 32.24796875 22.28515625 24.32796875 22.28515625 16.16796875 C13.70515625 16.16796875 5.12515625 16.16796875 -3.71484375 16.16796875 Z " fill="#000000" transform="translate(311.71484375,282.83203125)"/>
<path d="M0 0 C0.73336075 -0.0033284 1.4667215 -0.0066568 2.2223053 -0.01008606 C3.76790747 -0.0151311 5.31352046 -0.01749514 6.85913086 -0.01733398 C9.21160971 -0.01952098 11.56361955 -0.03770341 13.91601562 -0.05664062 C15.42317549 -0.05957504 16.93033757 -0.06155952 18.4375 -0.0625 C19.13455551 -0.06968552 19.83161102 -0.07687103 20.54978943 -0.08427429 C26.43963602 -0.0569885 30.64962823 0.71416606 35.09765625 4.66796875 C38.79011182 8.88791797 38.46056203 12.32430798 38.48828125 17.71875 C38.49398132 18.56970749 38.4996814 19.42066498 38.5055542 20.29740906 C38.51500923 22.10052241 38.52154017 23.90365308 38.52539062 25.70678711 C38.53508112 28.45913073 38.566093 31.21072283 38.59765625 33.96289062 C38.60418788 35.71483932 38.60943772 37.46679335 38.61328125 39.21875 C38.62562805 40.03974686 38.63797485 40.86074371 38.6506958 41.70661926 C38.63275761 46.33283772 38.38738262 49.48375795 35.28515625 53.16796875 C30.8689341 56.938442 26.30933187 56.60464879 20.78515625 56.56640625 C19.87185547 56.56927643 18.95855469 56.57214661 18.01757812 56.57510376 C16.09113951 56.57714064 14.16468003 56.5716371 12.23828125 56.55908203 C9.29510101 56.54302301 6.35329395 56.55894345 3.41015625 56.578125 C1.53515323 56.5761425 -0.33984894 56.57229869 -2.21484375 56.56640625 C-3.5306543 56.57551529 -3.5306543 56.57551529 -4.87304688 56.58480835 C-9.58115431 56.53079993 -13.03084554 56.42325542 -16.71484375 53.16796875 C-19.84007005 48.51111233 -20.16963029 44.19495277 -20.1484375 38.734375 C-20.15367935 37.93821274 -20.1589212 37.14205048 -20.1643219 36.32176208 C-20.17071866 34.64510255 -20.1694356 32.968398 -20.16088867 31.29174805 C-20.15237956 28.74120339 -20.18116834 26.19290193 -20.21289062 23.64257812 C-20.21450305 22.00651108 -20.21392432 20.37044011 -20.2109375 18.734375 C-20.22217148 17.97999649 -20.23340546 17.22561798 -20.24497986 16.44837952 C-20.17330136 10.94029253 -18.87835609 7.70031887 -15.71484375 3.16796875 C-10.73919236 -0.14913218 -5.83738801 0.00929219 0 0 Z M-3.71484375 16.16796875 C-3.71484375 24.08796875 -3.71484375 32.00796875 -3.71484375 40.16796875 C4.86515625 40.16796875 13.44515625 40.16796875 22.28515625 40.16796875 C22.28515625 32.24796875 22.28515625 24.32796875 22.28515625 16.16796875 C13.70515625 16.16796875 5.12515625 16.16796875 -3.71484375 16.16796875 Z " fill="#000000" transform="translate(181.71484375,282.83203125)"/>
<path d="M0 0 C0.73336075 -0.0033284 1.4667215 -0.0066568 2.2223053 -0.01008606 C3.76790747 -0.0151311 5.31352046 -0.01749514 6.85913086 -0.01733398 C9.21160971 -0.01952098 11.56361955 -0.03770341 13.91601562 -0.05664062 C15.42317549 -0.05957504 16.93033757 -0.06155952 18.4375 -0.0625 C19.13455551 -0.06968552 19.83161102 -0.07687103 20.54978943 -0.08427429 C26.47107803 -0.05684284 30.67177024 0.69799483 35.09765625 4.73046875 C35.81953125 5.53484375 36.54140625 6.33921875 37.28515625 7.16796875 C37.78015625 7.66296875 37.78015625 7.66296875 38.28515625 8.16796875 C38.42362781 11.05486197 38.49836236 13.91605559 38.5234375 16.8046875 C38.53150925 17.67688431 38.53958099 18.54908112 38.54789734 19.44770813 C38.56175831 21.29967246 38.57247142 23.15166255 38.58032227 25.00366211 C38.59748023 27.82650924 38.64134059 30.64816863 38.68554688 33.47070312 C38.69567833 35.26952263 38.70419302 37.06835211 38.7109375 38.8671875 C38.72844559 39.70803391 38.74595367 40.54888031 38.76399231 41.41520691 C38.74425185 46.79402249 37.96023871 49.96343552 34.28515625 54.16796875 C31.49074311 55.86487152 29.39827101 56.42135894 26.14672852 56.44262695 C25.34231827 56.45215897 24.53790802 56.46169098 23.7091217 56.47151184 C22.4183799 56.47014473 22.4183799 56.47014473 21.1015625 56.46875 C19.76278297 56.47517769 19.76278297 56.47517769 18.3969574 56.48173523 C16.51163582 56.48747139 14.62629211 56.48798405 12.7409668 56.48364258 C9.86143108 56.48048386 6.98292428 56.50394607 4.10351562 56.52929688 C2.26953254 56.53157011 0.43554671 56.53227325 -1.3984375 56.53125 C-2.25690781 56.54045975 -3.11537811 56.54966949 -3.99986267 56.55915833 C-9.76102508 56.51472204 -12.95378816 55.4359787 -17.46484375 51.73046875 C-20.52306704 47.90768963 -19.90681416 42.81813 -19.953125 38.1484375 C-19.96119675 37.37164139 -19.96926849 36.59484528 -19.97758484 35.79450989 C-19.99138936 34.15298674 -20.00212769 32.51143532 -20.01000977 30.86987305 C-20.02152932 29.19888847 -20.04198096 27.52794068 -20.0715332 25.85717773 C-20.11437865 23.43317861 -20.13040077 21.0102691 -20.140625 18.5859375 C-20.16688713 17.47776924 -20.16688713 17.47776924 -20.19367981 16.34721375 C-20.17101223 10.86692715 -18.85908029 7.67704054 -15.71484375 3.16796875 C-10.73919236 -0.14913218 -5.83738801 0.00929219 0 0 Z M-3.71484375 16.16796875 C-3.71484375 24.08796875 -3.71484375 32.00796875 -3.71484375 40.16796875 C4.86515625 40.16796875 13.44515625 40.16796875 22.28515625 40.16796875 C22.28515625 32.24796875 22.28515625 24.32796875 22.28515625 16.16796875 C13.70515625 16.16796875 5.12515625 16.16796875 -3.71484375 16.16796875 Z " fill="#000000" transform="translate(51.71484375,282.83203125)"/>
<path d="M0 0 C0.93312515 -0.00619858 1.86625031 -0.01239716 2.82765198 -0.01878357 C4.79695596 -0.02587299 6.76631999 -0.02272308 8.7355957 -0.01000977 C11.74087419 0.00384617 14.74303165 -0.0302153 17.74804688 -0.06835938 C19.66536534 -0.06931074 21.58268769 -0.06745082 23.5 -0.0625 C24.84087929 -0.08238731 24.84087929 -0.08238731 26.20884705 -0.10267639 C30.36866025 -0.04092659 33.41762474 0.17503289 36.80493164 2.73071289 C42.67283183 9.3561295 41.65654916 17.37699913 41.63208008 25.73364258 C41.6289199 27.99414299 41.65241464 30.25333281 41.67773438 32.51367188 C41.68000788 33.96744628 41.68071062 35.42122417 41.6796875 36.875 C41.68266846 38.18267334 41.68564941 39.49034668 41.6887207 40.83764648 C41.13190461 46.41420525 39.87299752 50.12639498 35.71508789 53.97290039 C31.29813006 56.04383522 27.75524927 56.12616064 22.9375 56.0625 C22.04781021 56.06395523 21.15812042 56.06541046 20.24147034 56.06690979 C18.3680594 56.06525575 16.49463418 56.05375011 14.62133789 56.03295898 C11.75934 56.0039613 8.89919162 56.01236888 6.03710938 56.02539062 C4.21223061 56.01915376 2.38735768 56.01076322 0.5625 56 C-0.7157943 56.00440346 -0.7157943 56.00440346 -2.01991272 56.00889587 C-6.73718421 55.93420587 -9.83394273 55.58700132 -13.68359375 52.56640625 C-17.95159946 47.84111421 -17.84969547 43.08429269 -17.88671875 36.94921875 C-17.89241882 36.21444305 -17.8981189 35.47966736 -17.9039917 34.72262573 C-17.91341748 33.17105539 -17.91996604 31.61946526 -17.92382812 30.06787109 C-17.93353235 27.70634722 -17.96457666 25.34569483 -17.99609375 22.984375 C-18.00262487 21.47266139 -18.00787491 19.96094159 -18.01171875 18.44921875 C-18.03023895 17.3989299 -18.03023895 17.3989299 -18.0491333 16.3274231 C-18.02239463 10.38165754 -16.53139274 6.64255325 -12.60131836 2.22680664 C-8.40756688 -0.1597471 -4.75092022 -0.0263007 0 0 Z M-1.68359375 16.56640625 C-1.68359375 24.15640625 -1.68359375 31.74640625 -1.68359375 39.56640625 C7.22640625 39.56640625 16.13640625 39.56640625 25.31640625 39.56640625 C25.31640625 31.97640625 25.31640625 24.38640625 25.31640625 16.56640625 C16.40640625 16.56640625 7.49640625 16.56640625 -1.68359375 16.56640625 Z " fill="#000000" transform="translate(277.68359375,355.43359375)"/>
<path d="M0 0 C0.93312515 -0.00619858 1.86625031 -0.01239716 2.82765198 -0.01878357 C4.79695596 -0.02587299 6.76631999 -0.02272308 8.7355957 -0.01000977 C11.74087419 0.00384617 14.74303165 -0.0302153 17.74804688 -0.06835938 C19.66536534 -0.06931074 21.58268769 -0.06745082 23.5 -0.0625 C24.84087929 -0.08238731 24.84087929 -0.08238731 26.20884705 -0.10267639 C30.40806762 -0.04034161 33.41246283 0.17626797 36.80493164 2.79321289 C41.23959657 7.69001069 41.62560749 11.81666267 41.6171875 18.24609375 C41.62147263 18.97708282 41.62575775 19.7080719 41.63017273 20.46121216 C41.63589654 22.00261402 41.63643069 23.54404287 41.63208008 25.08544922 C41.62892534 27.42723367 41.65238356 29.76774694 41.67773438 32.109375 C41.68000831 33.61327967 41.68071042 35.11718771 41.6796875 36.62109375 C41.68889725 37.31298798 41.69810699 38.0048822 41.70759583 38.71774292 C41.6545986 44.36766744 40.38597824 48.97944126 36.81640625 53.44140625 C34.12426189 55.46051452 31.5494684 55.6980475 28.30737305 55.7434082 C27.50611496 55.75624344 26.70485687 55.76907867 25.87931824 55.78230286 C24.58554008 55.79338326 24.58554008 55.79338326 23.265625 55.8046875 C22.37406204 55.81275925 21.48249908 55.82083099 20.56391907 55.82914734 C18.67682839 55.84297531 16.78971283 55.85370322 14.90258789 55.86157227 C12.02506825 55.8787797 9.14869944 55.92267613 6.27148438 55.96679688 C4.43620635 55.9769248 2.60091857 55.98544059 0.765625 55.9921875 C-0.09082108 56.00969559 -0.94726715 56.02720367 -1.82966614 56.04524231 C-7.22730064 56.02576425 -10.5629087 55.39189886 -14.68359375 51.56640625 C-17.48041618 46.62085062 -18.06739147 42.54019671 -18.08203125 36.91015625 C-18.08490143 36.20419312 -18.08777161 35.49822998 -18.09072876 34.77087402 C-18.09275679 33.28848461 -18.08731579 31.80606765 -18.07470703 30.32373047 C-18.0586335 28.07197471 -18.07459704 25.82201333 -18.09375 23.5703125 C-18.09176734 22.12108984 -18.0879232 20.67186829 -18.08203125 19.22265625 C-18.07864746 17.92134766 -18.07526367 16.62003906 -18.07177734 15.27929688 C-17.51787051 9.98129995 -16.10269337 6.20347052 -12.60131836 2.16430664 C-8.40167238 -0.13564173 -4.71943813 -0.02612641 0 0 Z M-1.68359375 16.56640625 C-1.68359375 24.15640625 -1.68359375 31.74640625 -1.68359375 39.56640625 C7.22640625 39.56640625 16.13640625 39.56640625 25.31640625 39.56640625 C25.31640625 31.97640625 25.31640625 24.38640625 25.31640625 16.56640625 C16.40640625 16.56640625 7.49640625 16.56640625 -1.68359375 16.56640625 Z " fill="#000000" transform="translate(210.68359375,355.43359375)"/>
<path d="M0 0 C0.84452728 -0.00953201 1.68905457 -0.01906403 2.55917358 -0.02888489 C3.46857697 -0.02797348 4.37798035 -0.02706207 5.31494141 -0.02612305 C6.25326813 -0.03040817 7.19159485 -0.0346933 8.15835571 -0.03910828 C10.14381097 -0.04485219 12.12928727 -0.04535139 14.11474609 -0.04101562 C17.14799081 -0.03786105 20.18025519 -0.06129535 23.21337891 -0.08666992 C25.14306518 -0.08894349 27.07275407 -0.08964615 29.00244141 -0.08862305 C29.90779633 -0.09783279 30.81315125 -0.10704254 31.74594116 -0.11653137 C36.51639719 -0.08160769 40.06905116 -0.04717772 43.79150391 3.2746582 C46.87180602 7.88249063 47.23458082 12.09009419 47.18994141 17.48950195 C47.19281158 18.26346817 47.19568176 19.03743439 47.19863892 19.83485413 C47.20067152 21.46445451 47.19519812 23.09407973 47.18261719 24.72363281 C47.16657298 27.20149006 47.18248095 29.67771103 47.20166016 32.15551758 C47.19967715 33.74601593 47.1958323 35.33651327 47.18994141 36.92700195 C47.19905045 38.02575905 47.19905045 38.02575905 47.20834351 39.14671326 C47.13991991 44.21781968 46.30308305 47.8267414 43.79150391 52.2746582 C39.56149844 56.13019609 34.75281498 55.72647616 29.32666016 55.70825195 C27.96026649 55.71611473 27.96026649 55.71611473 26.56626892 55.72413635 C24.64404314 55.73054586 22.72177808 55.72923344 20.79956055 55.72070312 C17.86712408 55.71219626 14.93663859 55.74096391 12.00439453 55.77270508 C10.13265032 55.7743174 8.26090268 55.77373897 6.38916016 55.77075195 C5.51711441 55.78198593 4.64506866 55.79321991 3.74659729 55.80479431 C-1.7152855 55.74263381 -4.90188082 54.95254012 -9.20849609 51.2746582 C-11.22448635 48.25067283 -11.46241365 47.64305318 -11.49902344 44.24975586 C-11.51178314 43.44527008 -11.52454285 42.6407843 -11.53768921 41.81192017 C-11.53991486 40.94626434 -11.5421405 40.08060852 -11.54443359 39.1887207 C-11.55109039 38.29478607 -11.55774719 37.40085144 -11.56460571 36.47982788 C-11.57473079 34.58854225 -11.57942278 32.69722091 -11.57910156 30.8059082 C-11.58346944 27.91728554 -11.61977505 25.03019745 -11.65771484 22.1418457 C-11.66358415 20.30330926 -11.66755278 18.46476556 -11.66943359 16.6262207 C-11.68380463 15.76461334 -11.69817566 14.90300598 -11.71298218 14.01528931 C-11.6822602 9.96717854 -11.54945329 7.82266711 -9.3671875 4.31518555 C-6.23359095 1.35311815 -4.26795052 0.02649624 0 0 Z M4.79150391 16.2746582 C4.79150391 23.8646582 4.79150391 31.4546582 4.79150391 39.2746582 C13.37150391 39.2746582 21.95150391 39.2746582 30.79150391 39.2746582 C30.79150391 31.6846582 30.79150391 24.0946582 30.79150391 16.2746582 C22.21150391 16.2746582 13.63150391 16.2746582 4.79150391 16.2746582 Z " fill="#000000" transform="translate(433.20849609375,427.725341796875)"/>
<path d="M0 0 C1.40324524 -0.00786278 1.40324524 -0.00786278 2.83483887 -0.0158844 C4.80833953 -0.02229414 6.78187845 -0.02098119 8.75537109 -0.01245117 C11.77120026 -0.00393463 14.78513874 -0.03272764 17.80078125 -0.06445312 C19.7213536 -0.06606515 21.6419293 -0.06548758 23.5625 -0.0625 C24.46158081 -0.07373398 25.36066162 -0.08496796 26.2869873 -0.09654236 C30.41474088 -0.05068335 32.68650348 0.06596679 36.26367188 2.27709961 C39.12382744 5.33418506 40.52694249 7.30283214 40.57177734 11.45849609 C40.58453705 12.26298187 40.59729675 13.06746765 40.61044312 13.89633179 C40.61266876 14.76198761 40.61489441 15.62764343 40.6171875 16.51953125 C40.6238443 17.41346588 40.6305011 18.30740051 40.63735962 19.22842407 C40.64748469 21.1197097 40.65217668 23.01103105 40.65185547 24.90234375 C40.65622335 27.79096641 40.69252895 30.67805451 40.73046875 33.56640625 C40.73633806 35.4049427 40.74030669 37.2434864 40.7421875 39.08203125 C40.75655853 39.94363861 40.77092957 40.80524597 40.78573608 41.69296265 C40.75533677 45.6985573 40.60477911 47.89532586 38.50244141 51.39306641 C35.18557205 54.44015302 32.55656274 55.67950664 28.05102539 55.70825195 C27.22659439 55.71778397 26.40216339 55.72731598 25.55274963 55.73713684 C24.67038132 55.73622543 23.788013 55.73531403 22.87890625 55.734375 C21.96419052 55.73866013 21.04947479 55.74294525 20.10704041 55.74736023 C18.17464017 55.75309698 16.24221833 55.75360861 14.30981445 55.74926758 C11.35785982 55.74610885 8.40690881 55.76957054 5.45507812 55.79492188 C3.5755221 55.7971951 1.69596338 55.79789826 -0.18359375 55.796875 C-1.06393784 55.80608475 -1.94428192 55.81529449 -2.8513031 55.82478333 C-7.5518885 55.78940445 -11.09076284 55.75497852 -14.71875 52.43359375 C-17.63904957 47.2618477 -18.16577881 42.94715387 -18.1171875 37.0859375 C-18.12149277 35.92355309 -18.12149277 35.92355309 -18.12588501 34.73768616 C-18.12791454 33.10986596 -18.12246289 31.48202075 -18.10986328 29.85424805 C-18.09377067 27.37427941 -18.10976009 24.89593474 -18.12890625 22.41601562 C-18.12692405 20.82681935 -18.12308084 19.23762408 -18.1171875 17.6484375 C-18.12326019 16.91390854 -18.12933289 16.17937958 -18.1355896 15.42259216 C-18.07145822 10.69097383 -17.35798896 7.3816386 -14.71875 3.43359375 C-10.36651634 -0.43284481 -5.52382473 -0.01803615 0 0 Z M-1.71875 16.43359375 C-1.71875 24.02359375 -1.71875 31.61359375 -1.71875 39.43359375 C6.86125 39.43359375 15.44125 39.43359375 24.28125 39.43359375 C24.28125 31.84359375 24.28125 24.25359375 24.28125 16.43359375 C15.70125 16.43359375 7.12125 16.43359375 -1.71875 16.43359375 Z " fill="#000000" transform="translate(49.71875,427.56640625)"/>
<path d="M0 0 C1.40324524 -0.00786278 1.40324524 -0.00786278 2.83483887 -0.0158844 C4.80833953 -0.02229414 6.78187845 -0.02098119 8.75537109 -0.01245117 C11.77120026 -0.00393463 14.78513874 -0.03272764 17.80078125 -0.06445312 C19.7213536 -0.06606515 21.6419293 -0.06548758 23.5625 -0.0625 C24.46158081 -0.07373398 25.36066162 -0.08496796 26.2869873 -0.09654236 C30.41474088 -0.05068335 32.68650348 0.06596679 36.26367188 2.27709961 C39.12382744 5.33418506 40.52694249 7.30283214 40.57177734 11.45849609 C40.58453705 12.26298187 40.59729675 13.06746765 40.61044312 13.89633179 C40.61266876 14.76198761 40.61489441 15.62764343 40.6171875 16.51953125 C40.6238443 17.41346588 40.6305011 18.30740051 40.63735962 19.22842407 C40.64748469 21.1197097 40.65217668 23.01103105 40.65185547 24.90234375 C40.65622335 27.79096641 40.69252895 30.67805451 40.73046875 33.56640625 C40.73633806 35.4049427 40.74030669 37.2434864 40.7421875 39.08203125 C40.75655853 39.94363861 40.77092957 40.80524597 40.78573608 41.69296265 C40.75533677 45.6985573 40.60477911 47.89532586 38.50244141 51.39306641 C35.20660529 54.42083056 32.5570132 55.6705391 28.08276367 55.75585938 C27.26478806 55.77507446 26.44681244 55.79428955 25.60404968 55.81408691 C24.72795547 55.82258667 23.85186127 55.83108643 22.94921875 55.83984375 C21.58426018 55.85694397 21.58426018 55.85694397 20.19172668 55.87438965 C18.26775747 55.89326128 16.34372403 55.90634638 14.41967773 55.9140625 C11.48891309 55.9334603 8.56096488 55.99551184 5.63085938 56.05859375 C3.75782909 56.07165691 1.88477882 56.08215665 0.01171875 56.08984375 C-1.29331352 56.12688416 -1.29331352 56.12688416 -2.62471008 56.16467285 C-8.26131209 56.12378491 -11.26897055 54.93060519 -15.43193054 51.11364746 C-18.42979876 47.19967213 -17.89411356 42.35551434 -17.921875 37.6328125 C-17.92757507 36.87821243 -17.93327515 36.12361237 -17.93914795 35.34614563 C-17.94857619 33.75169263 -17.95512327 32.15722034 -17.95898438 30.56274414 C-17.96867524 28.13978553 -17.999712 25.71768111 -18.03125 23.29492188 C-18.03778245 21.74089042 -18.04303197 20.18685293 -18.046875 18.6328125 C-18.0592218 17.91590744 -18.0715686 17.19900238 -18.08428955 16.46037292 C-18.06172513 11.2928547 -17.22388152 7.87218168 -14.71875 3.43359375 C-10.45580553 -0.48161053 -5.4813244 -0.01789738 0 0 Z M-1.71875 16.43359375 C-1.71875 24.02359375 -1.71875 31.61359375 -1.71875 39.43359375 C6.86125 39.43359375 15.44125 39.43359375 24.28125 39.43359375 C24.28125 31.84359375 24.28125 24.25359375 24.28125 16.43359375 C15.70125 16.43359375 7.12125 16.43359375 -1.71875 16.43359375 Z " fill="#000000" transform="translate(344.71875,355.56640625)"/>
<path d="M0 0 C0.84452728 -0.00953201 1.68905457 -0.01906403 2.55917358 -0.02888489 C3.46857697 -0.02797348 4.37798035 -0.02706207 5.31494141 -0.02612305 C6.25326813 -0.03040817 7.19159485 -0.0346933 8.15835571 -0.03910828 C10.14381097 -0.04485219 12.12928727 -0.04535139 14.11474609 -0.04101562 C17.14799081 -0.03786105 20.18025519 -0.06129535 23.21337891 -0.08666992 C25.14306518 -0.08894349 27.07275407 -0.08964615 29.00244141 -0.08862305 C29.90779633 -0.09783279 30.81315125 -0.10704254 31.74594116 -0.11653137 C40.18232384 -0.05477008 40.18232384 -0.05477008 43.79150391 3.2746582 C46.63725913 8.32644629 47.22941649 12.65469008 47.15478516 18.4387207 C47.15553291 19.57136856 47.15553291 19.57136856 47.15629578 20.72689819 C47.15396981 22.3118556 47.14432929 23.89681773 47.12768555 25.48168945 C47.10400061 27.89999526 47.10714716 30.31720253 47.11376953 32.7355957 C47.10819455 34.28247723 47.1010858 35.82935416 47.09228516 37.3762207 C47.09365227 38.4529454 47.09365227 38.4529454 47.095047 39.55142212 C47.011779 45.47202752 46.26738483 48.65520966 42.26416016 53.04785156 C38.22349637 56.16522489 34.16243172 55.97884097 29.22900391 55.90356445 C27.86473267 55.90718239 27.86473267 55.90718239 26.47290039 55.91087341 C24.55659612 55.90989717 22.64026286 55.89655697 20.72412109 55.87158203 C17.80028949 55.83726133 14.87948122 55.85093741 11.95556641 55.87036133 C10.08836611 55.86346246 8.22117358 55.8537897 6.35400391 55.84106445 C5.48509521 55.84602432 4.61618652 55.85098419 3.72094727 55.85609436 C-1.71859499 55.75117727 -4.91730478 54.92872036 -9.20849609 51.2746582 C-11.22448635 48.25067283 -11.46241365 47.64305318 -11.49902344 44.24975586 C-11.51178314 43.44527008 -11.52454285 42.6407843 -11.53768921 41.81192017 C-11.53991486 40.94626434 -11.5421405 40.08060852 -11.54443359 39.1887207 C-11.55109039 38.29478607 -11.55774719 37.40085144 -11.56460571 36.47982788 C-11.57473079 34.58854225 -11.57942278 32.69722091 -11.57910156 30.8059082 C-11.58346944 27.91728554 -11.61977505 25.03019745 -11.65771484 22.1418457 C-11.66358415 20.30330926 -11.66755278 18.46476556 -11.66943359 16.6262207 C-11.68380463 15.76461334 -11.69817566 14.90300598 -11.71298218 14.01528931 C-11.6822602 9.96717854 -11.54945329 7.82266711 -9.3671875 4.31518555 C-6.23359095 1.35311815 -4.26795052 0.02649624 0 0 Z M4.79150391 16.2746582 C4.79150391 23.8646582 4.79150391 31.4546582 4.79150391 39.2746582 C13.37150391 39.2746582 21.95150391 39.2746582 30.79150391 39.2746582 C30.79150391 31.6846582 30.79150391 24.0946582 30.79150391 16.2746582 C22.21150391 16.2746582 13.63150391 16.2746582 4.79150391 16.2746582 Z " fill="#000000" transform="translate(138.20849609375,355.725341796875)"/>
</svg>
