<?xml version="1.0" encoding="UTF-8"?>
<svg version="1.1" xmlns="http://www.w3.org/2000/svg" width="512" height="512">
<path d="M0 0 C2.12886657 -0.002025 4.25773246 -0.00493998 6.38659668 -0.00869751 C10.83120377 -0.01310077 15.27562902 -0.00675444 19.72021484 0.00732422 C25.38886749 0.02441471 31.05709385 0.01456278 36.7257309 -0.00339317 C41.11662958 -0.01428516 45.50742885 -0.01075991 49.89833069 -0.0030098 C51.9873103 -0.00102273 54.07629923 -0.00341393 56.16526794 -0.01044846 C78.45102302 -0.06904371 94.64085828 4.04107891 111.37109375 19.5703125 C116.06362308 24.35107743 119.39403513 29.40401878 122.40625 35.3359375 C122.88892334 36.28339844 122.88892334 36.28339844 123.38134766 37.25 C128.06501668 47.0185831 129.46766056 56.41498385 129.44194031 67.20005035 C129.43738672 69.27826058 129.45166583 71.35565257 129.47033691 73.43377686 C129.51292861 78.5861416 129.52435962 83.73848128 129.53656006 88.89099121 C129.54813067 93.26849897 129.5717823 97.64562433 129.61125183 102.02297211 C129.62471661 104.05871713 129.62067374 106.0939285 129.61584473 108.12969971 C129.68177298 116.24951211 130.10013692 121.60523234 135.15625 128.1484375 C139.36080106 131.43895572 143.70825738 133.48442992 149.14453125 133.34375 C154.42992893 132.33798501 158.59798625 129.50907491 162.03125 125.3984375 C163.67772824 121.89065585 164.28545922 119.1034697 164.3097229 115.24150085 C164.32088638 114.22492905 164.33204987 113.20835724 164.34355164 112.16098022 C164.34679192 110.50481186 164.34679192 110.50481186 164.35009766 108.81518555 C164.36014328 107.64402695 164.3701889 106.47286835 164.38053894 105.26622009 C164.41141434 101.39753711 164.42841849 97.52892347 164.4453125 93.66015625 C164.46402064 90.97686247 164.48349738 88.29358532 164.5039978 85.61030579 C164.55074393 79.27104778 164.58750813 72.93177292 164.62067068 66.59243089 C164.65892157 59.37353374 164.70832393 52.15472632 164.75865483 44.93590486 C164.8619127 30.09014429 164.94972102 15.24433525 165.03125 0.3984375 C175.26125 0.3984375 185.49125 0.3984375 196.03125 0.3984375 C196.12179809 16.34151822 196.19537536 32.28439277 196.23849869 48.22765636 C196.25906027 55.63160137 196.28705704 63.03537441 196.33300781 70.43920898 C196.37307318 76.89787413 196.39872927 83.35641464 196.40760398 89.81520063 C196.41278573 93.23017499 196.42482781 96.64479301 196.45417023 100.05965233 C196.48341771 103.88657708 196.48719694 107.71277551 196.48535156 111.53979492 C196.49973267 112.65254791 196.51411377 113.7653009 196.52893066 114.91177368 C196.45864246 128.47720354 192.13309175 140.53178202 183 150.6484375 C171.23843105 161.89863389 157.65511276 165.02504257 141.9296875 164.7109375 C136.04893439 164.44291989 131.24028165 163.15263814 126.03125 160.3984375 C124.74541016 159.74488281 124.74541016 159.74488281 123.43359375 159.078125 C111.65716624 152.57711072 103.69461555 142.94516556 99.890625 130.015625 C96.43253016 116.78081048 97.49875843 102.61039219 97.53125 89.0234375 C97.54287535 84.13518654 97.54135744 79.2476417 97.50718689 74.359478 C97.50020258 72.43093782 97.51689896 70.50235736 97.53430176 68.57388306 C97.4717134 57.64378874 94.79525775 48.38525342 87.03125 40.3984375 C77.657668 32.82552565 68.20571538 31.2882536 56.4128418 31.25317383 C55.69782501 31.24981522 54.98280823 31.2464566 54.24612427 31.24299622 C51.90755423 31.23358111 49.56905651 31.2315479 47.23046875 31.23046875 C45.58673576 31.22724962 43.94300304 31.22388507 42.29927063 31.22038269 C38.8623488 31.21441501 35.42545203 31.21254035 31.98852539 31.21313477 C27.61113487 31.21323625 23.23390703 31.19958713 18.85655499 31.18236256 C15.46337666 31.17117712 12.07023687 31.16921756 8.67704201 31.16974449 C7.06450655 31.1685741 5.45196979 31.16420599 3.83945274 31.15641212 C-9.93139683 31.0960804 -23.6489003 31.13661741 -34.5234375 40.79296875 C-43.8210314 51.12083657 -44.05710564 61.72377211 -44.96875 75.3984375 C-34.07875 75.3984375 -23.18875 75.3984375 -11.96875 75.3984375 C-11.96875 94.8684375 -11.96875 114.3384375 -11.96875 134.3984375 C3.90103903 134.24088381 3.90103903 134.24088381 19.77026367 134.03808594 C40.94566816 133.85714509 40.94566816 133.85714509 51.03125 138.3984375 C52.0018335 138.83341553 52.97241699 139.26839355 53.97241211 139.71655273 C68.155932 146.44966262 77.82466319 158.4183421 83.84375 172.6484375 C88.27935817 185.24326589 88.32462741 198.33616572 88.27416992 211.52880859 C88.27524604 213.18814671 88.27718959 214.84748446 88.27992249 216.50682068 C88.28472212 220.96771342 88.27717589 225.42850431 88.26696944 229.88938475 C88.25810184 234.58857807 88.2599481 239.28776901 88.2603302 243.98696899 C88.25939706 251.87642084 88.25076222 259.76583396 88.23706055 267.65527344 C88.2213498 276.73419716 88.21606233 285.81307852 88.2167961 294.89201486 C88.21747547 304.61600022 88.21051202 314.33996958 88.2013495 324.06395006 C88.1992338 326.8396349 88.19851046 329.61531709 88.19811058 332.39100266 C88.19709414 336.77913736 88.19089343 341.16723755 88.18094444 345.55536079 C88.17806317 347.15111262 88.17678499 348.74686843 88.17737198 350.34262276 C88.18670566 391.22024348 80.26480467 428.57317885 53.03125 460.3984375 C52.34546875 461.20667969 51.6596875 462.01492188 50.953125 462.84765625 C41.52162701 473.65316744 31.19002951 482.76693539 19.03125 490.3984375 C18.14276367 490.95893799 18.14276367 490.95893799 17.23632812 491.53076172 C-6.17455637 506.0541808 -31.87614761 512.62680903 -59.28125 512.6484375 C-60.42699493 512.64944962 -60.42699493 512.64944962 -61.59588623 512.65048218 C-102.2232708 512.59338677 -138.57721212 496.31752265 -167.47265625 467.91748047 C-183.79824982 451.34146167 -195.61008153 430.38617751 -202.40625 408.2109375 C-202.62893555 407.48946533 -202.85162109 406.76799316 -203.08105469 406.0246582 C-207.33787534 391.03559905 -208.41742184 376.10393167 -208.38867188 360.61669922 C-208.396034 358.70898957 -208.40462634 356.80128434 -208.41433716 354.89358521 C-208.4363273 349.76973295 -208.43949558 344.64604251 -208.43758965 339.52214956 C-208.43746899 335.22312246 -208.44607095 330.9241285 -208.45436716 326.62511075 C-208.47351713 316.47645053 -208.47651459 306.32787254 -208.46972656 296.17919922 C-208.4630796 285.75097292 -208.4859961 275.32309974 -208.52304029 264.89494503 C-208.55382871 255.89735835 -208.56508781 246.89988482 -208.56120348 237.90224659 C-208.55914686 232.54750388 -208.56444737 227.19303677 -208.58909607 221.83834457 C-208.61151496 216.8032277 -208.60936066 211.76868301 -208.58916855 206.73356247 C-208.58578607 204.8987228 -208.59072659 203.06384339 -208.60515213 201.22905731 C-208.7246934 184.88232223 -206.13189314 170.78560293 -195.96875 157.3984375 C-195.39640625 156.62113281 -194.8240625 155.84382812 -194.234375 155.04296875 C-186.36131295 145.26893231 -174.93284961 138.80516417 -162.96875 135.3984375 C-162.36524719 135.2222438 -161.76174438 135.04605011 -161.13995361 134.86451721 C-158.67598456 134.33559124 -156.44510934 134.2785477 -153.92480469 134.28491211 C-152.40282471 134.28509338 -152.40282471 134.28509338 -150.85009766 134.28527832 C-149.26140869 134.29295227 -149.26140869 134.29295227 -147.640625 134.30078125 C-146.66174316 134.30178833 -145.68286133 134.30279541 -144.67431641 134.30383301 C-141.022449 134.30905965 -137.37059831 134.32302092 -133.71875 134.3359375 C-121.4675 134.366875 -121.4675 134.366875 -108.96875 134.3984375 C-108.96875 114.9284375 -108.96875 95.4584375 -108.96875 75.3984375 C-98.07875 75.3984375 -87.18875 75.3984375 -75.96875 75.3984375 C-76.05125 72.7584375 -76.13375 70.1184375 -76.21875 67.3984375 C-76.41524772 47.83083697 -69.35781498 31.54976274 -55.984375 17.28125 C-51.64404749 13.08777567 -46.91327025 9.98308625 -41.65625 7.0859375 C-41.07673584 6.76028809 -40.49722168 6.43463867 -39.90014648 6.09912109 C-27.26273701 -0.51269727 -13.8634661 -0.04668471 0 0 Z M-77.96875 106.3984375 C-77.96875 115.6384375 -77.96875 124.8784375 -77.96875 134.3984375 C-66.41875 134.3984375 -54.86875 134.3984375 -42.96875 134.3984375 C-42.96875 125.1584375 -42.96875 115.9184375 -42.96875 106.3984375 C-54.51875 106.3984375 -66.06875 106.3984375 -77.96875 106.3984375 Z M-168.71875 173.8359375 C-175.32562101 181.36042948 -177.2866686 187.75103627 -177.1640625 197.515625 C-177.1612326 198.37278107 -177.15840271 199.22993713 -177.15548706 200.11306763 C-177.14434999 202.83333682 -177.1192576 205.55326891 -177.09375 208.2734375 C-177.08371182 210.12499522 -177.07458744 211.97655814 -177.06640625 213.828125 C-177.04443188 218.3516911 -177.009947 222.87500727 -176.96875 227.3984375 C-169.61026565 230.90987034 -162.23828223 233.86779071 -154.46875 236.3359375 C-153.40793213 236.67439697 -152.34711426 237.01285645 -151.25415039 237.36157227 C-136.56438181 241.91639793 -121.29115562 245.78262018 -105.96875 247.3984375 C-105.95416748 246.81465332 -105.93958496 246.23086914 -105.92456055 245.62939453 C-105.84905915 242.92681791 -105.75274662 240.22534286 -105.65625 237.5234375 C-105.63369141 236.605625 -105.61113281 235.6878125 -105.58789062 234.7421875 C-105.09665239 222.05930944 -100.9521902 211.56224113 -92.34375 202.1484375 C-87.96875 198.3984375 -87.96875 198.3984375 -75.96875 192.3984375 C-75.96875 183.1584375 -75.96875 173.9184375 -75.96875 164.3984375 C-85.03601863 164.353068 -94.10321059 164.3164535 -103.17056751 164.29481316 C-107.38190272 164.28442153 -111.59315555 164.27034784 -115.80444336 164.24755859 C-119.87636297 164.22566401 -123.94820386 164.21383422 -128.02017784 164.20868301 C-129.5657341 164.20501684 -131.11128655 164.19785866 -132.65680885 164.18697739 C-146.47427196 164.09365517 -157.97165297 164.31010149 -168.71875 173.8359375 Z M-44.96875 164.3984375 C-45.14694429 168.78593332 -45.25554956 173.17249735 -45.3515625 177.5625 C-45.4028833 178.80523682 -45.4542041 180.04797363 -45.50708008 181.32836914 C-45.81045178 187.64670048 -45.81045178 187.64670048 -43.70495605 193.40971375 C-40.29967601 196.49500861 -36.25431978 197.92719524 -31.96875 199.3984375 C-24.07324106 204.05678777 -19.28764529 213.34678653 -16.59594727 221.83837891 C-15.41719611 226.6497392 -15.12027653 231.5310563 -14.78125 236.4609375 C-14.69939453 237.51732422 -14.61753906 238.57371094 -14.53320312 239.66210938 C-14.33488074 242.24030032 -14.1469545 244.81879141 -13.96875 247.3984375 C10.63378108 243.0972957 34.05055731 237.28398687 57.03125 227.3984375 C57.08118675 222.88185036 57.11722002 218.36541524 57.14111328 213.84863281 C57.15108806 212.31637772 57.16467276 210.78414125 57.18212891 209.25195312 C57.32517952 196.36056884 57.30891679 184.97850168 49.03125 174.3984375 C40.61001714 166.28467359 31.04644979 164.26484312 19.62719727 164.28491211 C18.923918 164.28476608 18.22063873 164.28462006 17.49604797 164.2844696 C15.19655149 164.28516024 12.89713839 164.2929124 10.59765625 164.30078125 C8.99340357 164.30264845 7.38915031 164.30407093 5.78489685 164.30506897 C1.58129273 164.30887035 -2.62227634 164.3186801 -6.8258667 164.32977295 C-11.1228386 164.34003844 -15.41981622 164.34457756 -19.71679688 164.34960938 C-28.13413059 164.36030469 -36.55143592 164.37735226 -44.96875 164.3984375 Z M-73.10351562 226.8125 C-76.09602586 231.47018599 -75.5398374 236.79714487 -75.5 242.1484375 C-75.5038269 243.27991211 -75.50765381 244.41138672 -75.51159668 245.57714844 C-75.51431298 247.96420178 -75.50697167 250.35128504 -75.49023438 252.73828125 C-75.46882246 256.38609356 -75.49004746 260.03193625 -75.515625 263.6796875 C-75.51298168 266.0026085 -75.50785661 268.32552828 -75.5 270.6484375 C-75.50809692 271.73608398 -75.51619385 272.82373047 -75.52453613 273.94433594 C-75.44884391 280.07516436 -75.07555255 283.73666163 -70.96875 288.3984375 C-66.96619551 291.91583387 -63.37073914 292.75812266 -58.02734375 292.6796875 C-53.46752474 292.05671412 -50.66072762 289.14652141 -47.65625 285.8984375 C-45.19429376 282.25109493 -44.84526635 279.17327344 -44.80761719 274.83276367 C-44.79800964 273.93470505 -44.7884021 273.03664642 -44.77850342 272.1113739 C-44.77425354 271.14778458 -44.77000366 270.18419525 -44.765625 269.19140625 C-44.75707489 267.69327141 -44.75707489 267.69327141 -44.74835205 266.16487122 C-44.73891271 264.05255184 -44.73237231 261.94021781 -44.72851562 259.82788086 C-44.71881736 256.60829771 -44.6877865 253.38935508 -44.65625 250.16992188 C-44.64971874 248.11458711 -44.64446875 246.0592478 -44.640625 244.00390625 C-44.6282782 243.04638962 -44.6159314 242.08887299 -44.60321045 241.1023407 C-44.62397396 234.82357293 -45.1803281 229.56290612 -49.50390625 224.65625 C-58.04004501 218.32509849 -65.74183474 218.48767148 -73.10351562 226.8125 Z M-176.96875 261.3984375 C-177.06280098 276.17747839 -177.13302331 290.95647889 -177.17599869 305.73575974 C-177.19649629 312.60030967 -177.22436675 319.46467211 -177.27050781 326.32910156 C-177.31511549 332.96865617 -177.33796876 339.60806901 -177.34825897 346.24777985 C-177.35558082 348.76558727 -177.36987583 351.28338557 -177.39167023 353.80110931 C-177.69753931 390.64148675 -168.32221147 421.93835363 -142.21875 448.5859375 C-121.06508562 469.50717557 -92.03408268 482.01470011 -62.12792969 482.42578125 C-33.00915343 482.05702244 -5.90150612 472.63126467 16.03125 453.3984375 C16.83820313 452.74746094 17.64515625 452.09648437 18.4765625 451.42578125 C40.44659274 433.09387499 53.43073404 404.90126835 56.29959106 376.76686096 C57.28022604 364.94613266 57.15724739 353.13395226 57.12890625 341.28125 C57.12703767 338.96955394 57.12561585 336.65785749 57.12461853 334.34616089 C57.12082798 328.30632403 57.11102785 322.2665118 57.09991455 316.22668457 C57.0896254 310.04565768 57.08510494 303.86462676 57.08007812 297.68359375 C57.06940198 285.58853094 57.0523679 273.49348628 57.03125 261.3984375 C55.58669845 261.71456092 54.14243837 262.03201641 52.69830322 262.35003662 C51.89399998 262.52667721 51.08969673 262.70331779 50.26102066 262.88531113 C47.83930901 263.44260796 45.49722634 264.12645333 43.140625 264.9140625 C27.64747254 269.93624108 12.00833691 273.30332249 -3.96875 276.3984375 C-7.30298612 277.06062664 -10.63606926 277.72846806 -13.96875 278.3984375 C-14.18789062 279.42582031 -14.40703125 280.45320313 -14.6328125 281.51171875 C-18.86064089 300.33773544 -18.86064089 300.33773544 -25.65234375 307.06640625 C-27.20305761 308.32339942 -27.20305761 308.32339942 -26.96875 310.3984375 C-27.83693359 310.80449219 -27.83693359 310.80449219 -28.72265625 311.21875 C-30.97295561 312.40064636 -32.86624626 313.76203358 -34.90625 315.2734375 C-45.90227851 322.59216447 -58.60759689 324.17003311 -71.45703125 321.73828125 C-83.35944799 318.50742547 -93.12380426 311.59361167 -99.4375 300.9140625 C-103.27159984 293.55794071 -104.99154581 286.5698863 -105.96875 278.3984375 C-106.7716748 278.2533374 -107.57459961 278.1082373 -108.40185547 277.95874023 C-122.7903913 275.33287848 -137.09037868 272.5948752 -151.21875 268.7734375 C-152.24468262 268.49685303 -153.27061523 268.22026855 -154.32763672 267.93530273 C-160.23563399 266.29192543 -165.96357279 264.36931809 -171.68261719 262.15478516 C-174.04211194 261.24138858 -174.04211194 261.24138858 -176.96875 261.3984375 Z " fill="#000000" transform="translate(261.96875,-0.3984375)"/>
</svg>
