<?xml version="1.0" encoding="UTF-8"?>
<svg version="1.1" xmlns="http://www.w3.org/2000/svg" width="512" height="512">
<path d="M0 0 C1.55487373 -0.01564648 1.55487373 -0.01564648 3.14115906 -0.03160906 C4.27849991 -0.02268617 5.41584076 -0.01376328 6.58764648 -0.00457001 C8.40163689 -0.01392995 8.40163689 -0.01392995 10.25227356 -0.02347898 C13.61069497 -0.0366909 16.96822396 -0.03191306 20.32659149 -0.01953411 C23.94765828 -0.01049813 27.56864608 -0.02444609 31.18969727 -0.0354538 C38.28392102 -0.05325923 45.37797568 -0.04939009 52.47220612 -0.03780323 C58.2367746 -0.02877711 64.00129562 -0.02754134 69.76586914 -0.0318985 C70.99558425 -0.0328179 70.99558425 -0.0328179 72.2501421 -0.03375587 C73.91546505 -0.03503474 75.58078799 -0.0363316 77.24611092 -0.03764623 C92.869301 -0.04905796 108.49239727 -0.03592906 124.11557198 -0.01444477 C137.52688339 0.00342676 150.93805632 0.00032282 164.34936523 -0.01811981 C179.91587098 -0.03951609 195.48229447 -0.04795927 211.04881287 -0.03567076 C212.70807901 -0.03439653 214.36734516 -0.03313905 216.02661133 -0.0318985 C216.84304517 -0.0312814 217.65947901 -0.03066429 218.50065327 -0.03002849 C224.25965153 -0.02657186 230.0185977 -0.03241067 235.77758789 -0.04181671 C242.7939737 -0.0530243 249.81018047 -0.05002293 256.82654572 -0.02869374 C260.40784054 -0.01816643 263.98883664 -0.01408969 267.57012939 -0.02729034 C271.44853395 -0.04137015 275.32644715 -0.02458196 279.20483398 -0.00457001 C280.91084526 -0.01795434 280.91084526 -0.01795434 282.65132141 -0.03160906 C283.6879039 -0.02117807 284.72448639 -0.01074708 285.79248047 0 C286.68797104 0.00064941 287.58346161 0.00129882 288.50608826 0.00196791 C291.66799033 0.66525925 292.87852395 2.03916874 294.89624023 4.50336456 C295.42749023 6.50336456 295.42749023 6.50336456 295.39624023 8.50336456 C295.41170898 9.49336456 295.41170898 9.49336456 295.42749023 10.50336456 C294.60359289 13.60509574 293.50484137 14.59235545 290.89624023 16.50336456 C287.55695723 17.06932799 284.25890267 16.96804471 280.88061523 16.89398956 C279.90964905 16.88832977 278.93868286 16.88266998 277.93829346 16.87683868 C274.84043854 16.85446768 271.7437449 16.80426929 268.64624023 16.75336456 C266.54469445 16.73330053 264.44313052 16.71504959 262.34155273 16.69867706 C257.19266854 16.65460037 252.0446512 16.58556715 246.89624023 16.50336456 C246.9171875 17.33062042 246.93813477 18.15787628 246.9597168 19.0102005 C247.04285643 22.75779827 247.09489554 26.50520205 247.14624023 30.25336456 C247.17975586 31.55531769 247.21327148 32.85727081 247.24780273 34.19867706 C247.26069336 35.44906769 247.27358398 36.69945831 247.28686523 37.98773956 C247.3078125 39.13983917 247.32875977 40.29193878 247.3503418 41.4789505 C246.89624023 44.50336456 246.89624023 44.50336456 245.16967773 46.88617706 C242.53797424 48.75821357 241.32251318 48.9758331 238.13061523 48.89398956 C237.24116211 48.88109894 236.35170898 48.86820831 235.43530273 48.85492706 C234.51491211 48.82141144 233.59452148 48.78789581 232.64624023 48.75336456 C231.24245117 48.72629425 231.24245117 48.72629425 229.81030273 48.69867706 C227.50457008 48.65162129 225.20093079 48.58590169 222.89624023 48.50336456 C222.9171875 49.33062042 222.93813477 50.15787628 222.9597168 51.0102005 C223.04285643 54.75779827 223.09489554 58.50520205 223.14624023 62.25336456 C223.17975586 63.55531769 223.21327148 64.85727081 223.24780273 66.19867706 C223.26069336 67.44906769 223.27358398 68.69945831 223.28686523 69.98773956 C223.3078125 71.13983917 223.32875977 72.29193878 223.3503418 73.4789505 C222.89624023 76.50336456 222.89624023 76.50336456 221.38842773 78.88617706 C217.87917562 81.16334066 214.67294512 81.00328824 210.63061523 80.89398956 C209.92694824 80.88996124 209.22328125 80.88593292 208.49829102 80.88178253 C205.88067385 80.86092278 203.26342968 80.80507682 200.64624023 80.75336456 C194.78874023 80.67086456 188.93124023 80.58836456 182.89624023 80.50336456 C182.89624023 93.70336456 182.89624023 106.90336456 182.89624023 120.50336456 C185.20624023 120.83336456 187.51624023 121.16336456 189.89624023 121.50336456 C197.2379888 124.8981891 202.18304992 130.46138879 205.96289062 137.4855423 C207.33614247 141.92571129 207.10607104 146.19911125 207.02124023 150.81586456 C207.0122168 151.74721222 207.00319336 152.67855988 206.99389648 153.63813019 C206.97042286 155.92680816 206.93758752 158.21495129 206.89624023 160.50336456 C207.81469412 160.4987556 208.733148 160.49414663 209.67943382 160.489398 C232.04802489 160.37888035 254.41656877 160.29618921 276.7853756 160.2443037 C287.60286654 160.21854403 298.42017502 160.18343616 309.23754883 160.1261673 C318.66817494 160.07626397 328.09866887 160.0440573 337.52942336 160.03292209 C342.52100659 160.02641509 347.51221173 160.01116834 352.50367355 159.97471428 C357.20689033 159.94064534 361.90957514 159.93033355 366.61290359 159.93782616 C368.33416896 159.93645647 370.05545308 159.92658903 371.77661133 159.90733719 C382.11775964 159.79739171 391.05791649 160.04447025 399.0245266 167.49333477 C406.28471773 175.05776846 407.34364397 182.01587095 407.31616211 192.15497589 C407.32463165 193.31036362 407.3331012 194.46575134 407.34182739 195.65615082 C407.36517771 199.46601192 407.36621988 203.27546863 407.36499023 207.08539581 C407.37029701 209.07000984 407.37561073 211.054624 407.3818574 213.03923529 C407.40105712 219.27674617 407.4039883 225.51412325 407.3972168 231.75165558 C407.3905825 238.16440595 407.41342284 244.57658018 407.45053053 250.98921376 C407.48132792 256.51391507 407.49257665 262.03843203 407.48869371 267.56321734 C407.48663602 270.85451722 407.49421976 274.14527162 407.5165863 277.43651009 C407.53881776 281.11265593 407.52905015 284.78742691 407.51147461 288.46356964 C407.52473785 289.53870819 407.5380011 290.61384674 407.55166626 291.72156525 C407.46154391 299.8690551 405.53325204 306.55156758 399.92110443 312.64944935 C392.94848599 319.22405335 386.7189857 320.8521715 377.27514648 320.60883331 C376.09758789 320.55662628 376.09758789 320.55662628 374.89624023 320.50336456 C374.92242432 321.05685577 374.9486084 321.61034698 374.97558594 322.18061066 C375.87152655 343.97805189 375.87152655 343.97805189 368.02905273 352.54242706 C362.04803942 358.19762642 356.18629135 360.87552084 347.94082928 360.88647461 C347.27390585 360.89143412 346.60698242 360.89639364 345.91984919 360.90150344 C343.69300771 360.91442027 341.46676973 360.90608773 339.23991394 360.89777374 C337.62407343 360.90266452 336.00823641 360.90885519 334.39240533 360.91623163 C329.95805732 360.93263071 325.52388711 360.93031328 321.08951938 360.92485666 C316.30478985 360.92218642 311.5201077 360.93671819 306.73539734 360.94895172 C297.36360883 360.97000839 287.99188218 360.97454643 278.6200728 360.97276384 C271.00208692 360.97145629 263.38412033 360.97525999 255.76613808 360.9826889 C253.57189395 360.9847881 251.37764983 360.9868857 249.1834057 360.98898172 C247.54520072 360.99054702 247.54520072 360.99054702 245.87390069 360.99214393 C225.21741303 361.01104738 204.56096088 361.00999582 183.90446816 361.0031746 C165.00995624 360.99759951 146.11557993 361.01842297 127.2210997 361.05153507 C107.81850519 361.0852736 88.41597565 361.10044017 69.01335126 361.09581804 C58.12097929 361.09357346 47.22873264 361.09881485 36.33638573 361.12371063 C27.06289629 361.14472586 17.78960088 361.14831352 8.51610347 361.12941104 C3.78568856 361.12025449 -0.94436458 361.11910775 -5.67475128 361.13976669 C-10.00829654 361.158483 -14.3411839 361.15396602 -18.67470416 361.13122088 C-20.23926642 361.12703676 -21.80387918 361.13122889 -23.36838803 361.14481682 C-33.2931217 361.22511848 -41.67231355 360.56622069 -49.23837978 353.51360464 C-55.27028072 347.2061513 -57.46204498 341.38856931 -57.36743164 332.77875519 C-57.34229492 331.88350128 -57.3171582 330.98824738 -57.29125977 330.06586456 C-57.27772461 329.14354034 -57.26418945 328.22121613 -57.25024414 327.27094269 C-57.21516929 325.01446073 -57.16602363 322.75923231 -57.10375977 320.50336456 C-57.85399414 320.56137238 -58.60422852 320.61938019 -59.37719727 320.67914581 C-68.17557763 321.06698374 -74.53211354 319.62647192 -81.17407227 313.63617706 C-88.37410587 305.89388151 -89.55155085 299.13376803 -89.52368164 288.85175323 C-89.53215118 287.69636551 -89.54062073 286.54097778 -89.54934692 285.35057831 C-89.57269724 281.5407172 -89.57373941 277.7312605 -89.57250977 273.92133331 C-89.57781654 271.93671928 -89.58313026 269.95210513 -89.58937693 267.96749383 C-89.60857665 261.72998295 -89.61150783 255.49260587 -89.60473633 249.25507355 C-89.59810203 242.84232318 -89.62094237 236.43014894 -89.65805006 230.01751536 C-89.68884745 224.49281406 -89.70009618 218.9682971 -89.69621325 213.44351178 C-89.69415555 210.15221191 -89.7017393 206.86145751 -89.72410583 203.57021904 C-89.7463373 199.89407319 -89.73656968 196.21930221 -89.71899414 192.54315948 C-89.73225739 191.46802094 -89.74552063 190.39288239 -89.75918579 189.28516388 C-89.66906384 181.13771066 -87.74496034 174.43818192 -82.11397552 168.35312939 C-74.24202862 160.89018848 -67.23224697 160.08771656 -56.74047852 160.20258331 C-54.30232476 160.19494091 -51.86417354 160.18645096 -49.42602539 160.17719269 C-45.60787111 160.17940071 -41.79022644 160.19087203 -37.97216797 160.21845245 C-34.26942024 160.23925575 -30.56819664 160.22309191 -26.86547852 160.20258331 C-25.73599289 160.22108841 -24.60650726 160.23959351 -23.4427948 160.25865936 C-15.36278744 160.18455718 -10.66359803 158.05914437 -4.10375977 153.50336456 C16.68489163 142.78903633 43.64482876 140.47971699 66.05639648 147.16352081 C73.82086135 149.76370437 82.20276317 152.67864208 88.73608398 157.67523956 C93.08079669 160.18862096 96.83425282 160.17157712 101.77124023 160.25336456 C102.65038086 160.283013 103.52952148 160.31266144 104.43530273 160.34320831 C106.58846568 160.41342015 108.74235508 160.46071337 110.89624023 160.50336456 C110.87005615 159.94987335 110.84387207 159.39638214 110.81689453 158.82611847 C109.92095392 137.02867723 109.92095392 137.02867723 117.76342773 128.46430206 C122.83552318 123.66850754 127.7538434 120.50336456 134.89624023 120.50336456 C134.89624023 107.30336456 134.89624023 94.10336456 134.89624023 80.50336456 C123.22838646 80.66147944 123.22838646 80.66147944 111.5612793 80.86371613 C110.09481979 80.87540232 108.62834728 80.88559431 107.16186523 80.89398956 C106.40502441 80.91445343 105.64818359 80.9349173 104.8684082 80.95600128 C101.46549934 80.95825337 99.288266 80.75775119 96.40405273 78.88617706 C94.41594806 75.74435361 94.4382582 73.69237624 94.50561523 69.98773956 C94.51850586 68.73734894 94.53139648 67.48695831 94.54467773 66.19867706 C94.59495117 64.24574738 94.59495117 64.24574738 94.64624023 62.25336456 C94.66428711 60.93594269 94.68233398 59.61852081 94.70092773 58.26117706 C94.74807753 55.00784149 94.8138798 51.75596831 94.89624023 48.50336456 C94.31132812 48.52431183 93.72641602 48.54525909 93.1237793 48.56684113 C90.46477558 48.65016572 87.80604668 48.70207353 85.14624023 48.75336456 C84.22584961 48.78688019 83.30545898 48.82039581 82.35717773 48.85492706 C81.02299805 48.874263 81.02299805 48.874263 79.66186523 48.89398956 C78.4364502 48.92541046 78.4364502 48.92541046 77.1862793 48.95746613 C73.96643357 48.31898926 72.91988391 47.06221712 70.89624023 44.50336456 C70.44213867 41.4789505 70.44213867 41.4789505 70.50561523 37.98773956 C70.51850586 36.73734894 70.53139648 35.48695831 70.54467773 34.19867706 C70.59495117 32.24574738 70.59495117 32.24574738 70.64624023 30.25336456 C70.66428711 28.93594269 70.68233398 27.61852081 70.70092773 26.26117706 C70.74807753 23.00784149 70.8138798 19.75596831 70.89624023 16.50336456 C69.95298889 16.51224701 69.00973755 16.52112946 68.03790283 16.53028107 C59.15066563 16.61135147 50.26350339 16.67132243 41.37598038 16.71061325 C36.8067306 16.73149221 32.23777921 16.75981528 27.66870117 16.80512238 C23.25963151 16.84856945 18.85084893 16.87249934 14.44158173 16.88287354 C12.75902537 16.89026699 11.0764848 16.90470473 9.3940506 16.92628479 C7.03798923 16.95530459 4.6831155 16.95932131 2.3269043 16.95746613 C1.63062927 16.97184723 0.93435425 16.98622833 0.21697998 17.00104523 C-3.16753487 16.97219092 -4.8347633 16.71396017 -7.53497314 14.59998322 C-9.2364389 12.32604437 -9.64755042 11.30596672 -9.60375977 8.50336456 C-9.61922852 7.51336456 -9.61922852 7.51336456 -9.63500977 6.50336456 C-8.3147142 1.53284008 -4.78633225 0.00347105 0 0 Z M86.89624023 16.50336456 C86.89624023 21.78336456 86.89624023 27.06336456 86.89624023 32.50336456 C134.41624023 32.50336456 181.93624023 32.50336456 230.89624023 32.50336456 C230.89624023 27.22336456 230.89624023 21.94336456 230.89624023 16.50336456 C183.37624023 16.50336456 135.85624023 16.50336456 86.89624023 16.50336456 Z M110.89624023 48.50336456 C110.89624023 53.78336456 110.89624023 59.06336456 110.89624023 64.50336456 C142.57624023 64.50336456 174.25624023 64.50336456 206.89624023 64.50336456 C206.89624023 59.22336456 206.89624023 53.94336456 206.89624023 48.50336456 C175.21624023 48.50336456 143.53624023 48.50336456 110.89624023 48.50336456 Z M150.89624023 80.50336456 C150.89624023 93.70336456 150.89624023 106.90336456 150.89624023 120.50336456 C156.17624023 120.50336456 161.45624023 120.50336456 166.89624023 120.50336456 C166.89624023 107.30336456 166.89624023 94.10336456 166.89624023 80.50336456 C161.61624023 80.50336456 156.33624023 80.50336456 150.89624023 80.50336456 Z M129.52124023 141.94086456 C125.65125381 148.04353546 126.89624023 152.80423868 126.89624023 160.50336456 C148.01624023 160.50336456 169.13624023 160.50336456 190.89624023 160.50336456 C191.42377796 149.98738308 191.42377796 149.98738308 187.89624023 141.50336456 C183.81524574 137.52701095 180.45872776 136.39818588 174.88134766 136.34223175 C174.10341354 136.33262421 173.32547943 136.32301666 172.52397156 136.31311798 C171.69162491 136.3088681 170.85927826 136.30461823 170.00170898 136.30023956 C169.13612869 136.29453949 168.2705484 136.28883942 167.3787384 136.28296661 C165.54889136 136.27353255 163.71902745 136.26698897 161.88916016 136.26313019 C159.10410577 136.25343546 156.31979311 136.22240174 153.53491211 136.19086456 C151.75301543 136.18433274 149.97111349 136.17908297 148.18920898 136.17523956 C147.36293503 136.16289276 146.53666107 136.15054596 145.68534851 136.13782501 C139.22199207 136.16245976 134.20843361 137.13032399 129.52124023 141.94086456 Z M-16.23657227 182.72992706 C-30.86910966 196.88401637 -40.0239304 216.26366235 -40.39672852 236.71430206 C-40.52269526 257.12091454 -35.62897578 275.70591226 -22.10375977 291.50336456 C-21.63067383 292.12984894 -21.15758789 292.75633331 -20.67016602 293.40180206 C-10.49266172 306.24423891 7.02349943 315.90731879 22.99389648 319.06586456 C46.02552675 321.64798928 67.37069573 318.32839509 86.39624023 304.44086456 C87.57368727 303.47468811 88.74073482 302.49567787 89.89624023 301.50336456 C90.53432617 301.0070755 91.17241211 300.51078644 91.82983398 299.99945831 C105.67754209 288.79712134 115.61367726 270.1679283 117.89624023 252.50336456 C119.86772178 228.13378193 114.3871749 206.41859878 98.57983398 187.46820831 C83.21750046 170.49584857 62.80211006 161.86319435 40.15405273 160.55805206 C19.13040261 160.0488287 -0.87266533 168.73159427 -16.23657227 182.72992706 Z M-70.47875977 181.94086456 C-72.79040058 185.58614431 -73.22737141 188.61862272 -73.24420166 192.88552094 C-73.2499118 193.75597549 -73.25562195 194.62643005 -73.26150513 195.52326202 C-73.26262299 196.47036041 -73.26374084 197.4174588 -73.26489258 198.39325714 C-73.26985748 199.39696854 -73.27482239 200.40067993 -73.27993774 201.43480682 C-73.29454469 204.75584346 -73.30135887 208.07683233 -73.30688477 211.39789581 C-73.31263731 213.70711519 -73.31839504 216.01633455 -73.32415771 218.32555389 C-73.33466345 223.16843641 -73.34050896 228.01130234 -73.34399414 232.85419464 C-73.34947868 239.05487426 -73.37350787 245.25533427 -73.40196609 251.45594501 C-73.42060387 256.22665291 -73.42579869 260.99730802 -73.42733002 265.76804924 C-73.43035436 268.05375812 -73.43837548 270.33946612 -73.4515152 272.62513924 C-73.46859952 275.82535824 -73.46668942 279.02504209 -73.46020508 282.22528839 C-73.46941986 283.16631409 -73.47863464 284.10733978 -73.48812866 285.07688141 C-73.45276576 290.65779402 -72.7780932 294.57153903 -70.10375977 299.50336456 C-65.22703021 304.25504977 -61.42551919 304.63224079 -54.80688477 304.60102081 C-53.60161133 304.59779816 -52.39633789 304.5945755 -51.15454102 304.59125519 C-49.2731543 304.57868683 -49.2731543 304.57868683 -47.35375977 304.56586456 C-46.0840332 304.56135284 -44.81430664 304.55684113 -43.50610352 304.55219269 C-40.3719414 304.54041012 -37.23787435 304.52395872 -34.10375977 304.50336456 C-36.06690517 301.19931293 -38.11585644 297.98667187 -40.26318359 294.79901886 C-55.22292398 272.31348064 -60.17629876 245.94090916 -55.02075195 219.30292511 C-52.03158684 206.52591843 -46.45380252 194.73432502 -38.90063477 184.05414581 C-37.17102229 181.59884811 -35.6346766 179.08550737 -34.10375977 176.50336456 C-38.45779841 176.41580784 -42.81160854 176.36278487 -47.16625977 176.31586456 C-48.39538086 176.29072784 -49.62450195 176.26559113 -50.89086914 176.23969269 C-61.73469292 176.11663374 -61.73469292 176.11663374 -70.47875977 181.94086456 Z M111.89624023 176.50336456 C113.85938564 179.80741619 115.90833691 183.02005725 118.05566406 186.20771027 C133.01540445 208.69324848 137.96877923 235.06581997 132.81323242 261.70380402 C129.82406731 274.4808107 124.24628299 286.2724041 116.69311523 296.95258331 C114.96350276 299.40788102 113.42715707 301.92122175 111.89624023 304.50336456 C145.79129759 304.57203169 179.68633763 304.62489385 213.5814491 304.65656055 C217.5831081 304.66031267 221.58476698 304.66419564 225.58642578 304.66815948 C226.78141274 304.66933988 226.78141274 304.66933988 228.00054085 304.67054413 C240.89978673 304.68359792 253.79899251 304.70725162 266.6982146 304.73482295 C279.93408114 304.76287789 293.16992668 304.77954101 306.40582174 304.78563005 C314.57303314 304.78974631 322.74013117 304.80274705 330.90730768 304.82711396 C337.16999372 304.84484696 343.43259333 304.84672995 349.69530106 304.84268761 C352.26439678 304.84351384 354.83349674 304.84949312 357.40256691 304.86098099 C360.90790515 304.87588837 364.41275677 304.8723241 367.91810608 304.86412811 C368.93659938 304.87286664 369.95509269 304.88160516 371.00444943 304.89060849 C376.74858449 304.85426272 380.83321682 304.28893118 385.89624023 301.50336456 C390.00715944 297.28426327 391.01399546 293.87285732 391.03668213 288.12120819 C391.04239227 287.25075363 391.04810242 286.38029907 391.0539856 285.4834671 C391.05510345 284.53636871 391.05622131 283.58927032 391.05737305 282.61347198 C391.06233795 281.60976059 391.06730286 280.60604919 391.07241821 279.5719223 C391.08702516 276.25088567 391.09383934 272.9298968 391.09936523 269.60883331 C391.10511778 267.29961394 391.1108755 264.99039458 391.11663818 262.68117523 C391.12714392 257.83829272 391.13298943 252.99542679 391.13647461 248.15253448 C391.14195915 241.95185487 391.16598834 235.75139486 391.19444656 229.55078411 C391.21308434 224.78007622 391.21827915 220.00942111 391.21981049 215.23867989 C391.22283483 212.952971 391.23085595 210.667263 391.24399567 208.38158989 C391.26107999 205.18137089 391.25916989 201.98168704 391.25268555 198.78144073 C391.26190033 197.84041504 391.27111511 196.89938934 391.28060913 195.92984772 C391.24524622 190.34893511 390.57057367 186.4351901 387.89624023 181.50336456 C383.57356855 177.29153062 380.1183952 176.3775568 374.23421097 176.38031673 C373.29618016 176.37832569 372.35814934 176.37633464 371.39169335 176.37428325 C370.36446152 176.3771961 369.3372297 176.38010894 368.27886963 176.38311005 C366.63828036 176.38182841 366.63828036 176.38182841 364.96454787 176.38052088 C361.28713978 176.37886928 357.60977696 176.38438228 353.93237305 176.38983917 C351.30127463 176.39012114 348.67017613 176.38996313 346.03907776 176.38939667 C340.36804991 176.38887215 334.69703356 176.39201142 329.02600861 176.39763451 C320.82664494 176.40575928 312.62728685 176.40836573 304.4279196 176.4096225 C291.12520171 176.41181148 277.82248995 176.4184674 264.51977539 176.42792511 C251.59692414 176.4371032 238.67407455 176.4441821 225.7512207 176.44843292 C224.95474378 176.44869565 224.15826685 176.44895837 223.33765426 176.44922905 C219.34198979 176.45053409 215.3463253 176.45179779 211.3506608 176.45304096 C178.19918282 176.46340878 145.04771235 176.48102292 111.89624023 176.50336456 Z M-41.10375977 320.50336456 C-41.13596604 322.41992031 -41.15892011 324.33663299 -41.17797852 326.25336456 C-41.19175537 327.32070831 -41.20553223 328.38805206 -41.21972656 329.48773956 C-41.01419492 334.83242779 -39.56035836 338.08411465 -35.66625977 341.87836456 C-31.38874959 344.59093199 -27.77546916 344.62929219 -22.75899029 344.63479233 C-21.44558625 344.63863347 -20.13218221 344.64247462 -18.77897805 344.64643216 C-17.31779582 344.64565191 -15.85661364 344.64477313 -14.39543152 344.64380646 C-12.84604246 344.64638996 -11.29665406 344.64940308 -9.74726659 344.65280986 C-5.48282319 344.66088472 -1.21839661 344.6626697 3.04605353 344.66340733 C7.64262 344.66525701 12.23917772 344.67280388 16.83573914 344.67954254 C26.88936946 344.69312941 36.94299579 344.69915101 46.99663377 344.7035532 C53.27229475 344.70631478 59.54795418 344.71055196 65.82361412 344.71505737 C83.19408096 344.72725004 100.56454656 344.73754966 117.93501759 344.74093246 C119.046938 344.74115203 120.15885841 344.7413716 121.30447338 344.74159782 C122.41907321 344.74181609 123.53367304 344.74203437 124.68204862 344.74225926 C126.94070168 344.74270273 129.19935475 344.7431493 131.45800781 344.74359894 C133.13856728 344.74393108 133.13856728 344.74393108 134.85307743 344.74426994 C153.01258552 344.74821909 171.17205351 344.7656767 189.33154611 344.78895846 C207.96900266 344.81266047 226.60643909 344.82513377 245.24391097 344.82630038 C255.71087082 344.82721774 266.17777842 344.83298545 276.64472389 344.85112 C285.55637677 344.86650538 294.46796125 344.87165065 303.37962488 344.86338189 C307.92729483 344.85946997 312.47482694 344.8604314 317.02248001 344.87443924 C321.18560222 344.88714552 325.34848256 344.88600955 329.51160427 344.87384853 C331.01765811 344.87188585 332.5237289 344.87499625 334.02975891 344.88369289 C344.38561416 345.09735159 344.38561416 345.09735159 353.89624023 341.50336456 C358.63898279 336.635813 359.03059623 332.86411622 358.95874023 326.25336456 C358.94520508 324.63688019 358.94520508 324.63688019 358.93139648 322.98773956 C358.91979492 322.16789581 358.90819336 321.34805206 358.89624023 320.50336456 C325.12041077 320.3200297 291.34470567 320.17917408 257.56848868 320.09484193 C253.57585036 320.08483694 249.58321303 320.0744823 245.59057617 320.06391144 C244.39834347 320.06076371 244.39834347 320.06076371 243.18202527 320.0575524 C230.3326425 320.02279477 217.4835477 319.9597478 204.63433544 319.88614219 C191.438001 319.81118175 178.24181679 319.76686316 165.04527819 319.7506566 C156.91002653 319.73970999 148.77558896 319.70520899 140.64058806 319.64003283 C135.05294449 319.59756131 129.46571831 319.58500474 123.87792526 319.59535354 C120.65943617 319.60045002 117.44265115 319.58850128 114.22435188 319.54972076 C99.75172741 319.38394592 89.73583578 319.75808999 77.89624023 328.50336456 C75.32378311 329.72933336 72.88146369 330.53056906 70.14624023 331.37836456 C68.99639648 331.74703644 67.84655273 332.11570831 66.66186523 332.49555206 C41.06352438 339.3465603 15.33565701 336.47242845 -8.10375977 324.50336456 C-8.9584082 323.77633331 -9.81305664 323.04930206 -10.69360352 322.30023956 C-16.21056072 319.3932518 -21.85396546 320.08748472 -27.97875977 320.25336456 C-29.86981445 320.28043488 -29.86981445 320.28043488 -31.79907227 320.30805206 C-34.90141591 320.35505727 -38.00219357 320.4207578 -41.10375977 320.50336456 Z " fill="#000000" transform="translate(97.103759765625,79.49663543701172)"/>
<path d="M0 0 C14.01721588 9.33350638 23.97085468 24.20156056 27.42163086 40.69335938 C29.40151238 53.31219606 29.11121157 67.50101921 23.81640625 79.20947266 C23.34203125 80.28068359 22.86765625 81.35189453 22.37890625 82.45556641 C14.34856639 98.84440906 0.98598798 110.03119998 -16.18359375 116.20947266 C-33.60183722 121.26582178 -52.77725401 119.2495237 -68.60131836 110.66967773 C-84.04490388 101.72907346 -94.07252256 87.56326684 -99.30078125 70.58056641 C-103.37904977 53.39198897 -100.28313242 34.97858889 -91.54296875 19.89306641 C-81.91142203 4.27643418 -67.59470783 -4.32234663 -50.30664062 -9.3347168 C-32.96980297 -13.05687364 -14.8364328 -9.14887544 0 0 Z M-72.58984375 23.27197266 C-82.01294409 34.72750641 -84.25694514 46.62635643 -83.39501953 61.07519531 C-82.19643271 73.17455555 -75.26471978 82.90051304 -66.74609375 91.13134766 C-55.12791493 100.55340731 -41.60758259 102.50020991 -27.18359375 101.20947266 C-15.01153854 98.83443749 -4.93392898 91.766277 2.81640625 82.20947266 C10.54271369 69.53040403 12.96954667 56.24431729 10.12890625 41.68603516 C6.58416792 30.19517507 -0.82857391 19.69143787 -11.18359375 13.38134766 C-32.73169211 2.284077 -55.69231374 5.41797869 -72.58984375 23.27197266 Z " fill="#000000" transform="translate(172.18359375,265.79052734375)"/>
<path d="M0 0 C1.10794922 -0.01260864 2.21589844 -0.02521729 3.35742188 -0.03820801 C4.54916016 -0.03011108 5.74089844 -0.02201416 6.96875 -0.01367188 C8.19658203 -0.01749878 9.42441406 -0.02132568 10.68945312 -0.02526855 C13.28516459 -0.02799029 15.88090336 -0.02061099 18.4765625 -0.00390625 C22.45374599 0.01749738 26.42912282 -0.0037015 30.40625 -0.02929688 C32.92708733 -0.02665365 35.44792353 -0.02152878 37.96875 -0.01367188 C39.16048828 -0.0217688 40.35222656 -0.02986572 41.58007812 -0.03820801 C43.24200195 -0.01929504 43.24200195 -0.01929504 44.9375 0 C45.91138672 0.00318237 46.88527344 0.00636475 47.88867188 0.00964355 C51.32739197 0.68661717 52.4609304 1.65443348 54.46875 4.51757812 C54.97668457 7.70507812 54.97668457 7.70507812 54.98632812 11.51757812 C54.9933374 12.21399414 55.00034668 12.91041016 55.00756836 13.62792969 C55.02514196 15.92488744 55.01352919 18.22060833 55 20.51757812 C55.00269513 22.11653886 55.00657773 23.715498 55.01159668 25.31445312 C55.01749082 28.66357038 55.00893192 32.01226056 54.99023438 35.36132812 C54.96744435 39.65236403 54.98056796 43.94239924 55.00452423 48.23339844 C55.0189848 51.53458179 55.01437515 54.83552823 55.00401306 58.13671875 C55.00134646 59.71875121 55.00461322 61.30080524 55.01393127 62.8828125 C55.02410179 65.09497975 55.0085919 67.30553112 54.98632812 69.51757812 C54.98314575 70.77570313 54.97996338 72.03382813 54.97668457 73.33007812 C54.46875 76.51757812 54.46875 76.51757812 52.78210449 78.92272949 C49.94444632 80.87903808 48.36687042 81.02395008 44.9375 81.03515625 C43.82955078 81.04776489 42.72160156 81.06037354 41.58007812 81.07336426 C40.38833984 81.06526733 39.19660156 81.05717041 37.96875 81.04882812 C36.12700195 81.05456848 36.12700195 81.05456848 34.24804688 81.0604248 C31.65233541 81.06314654 29.05659664 81.05576724 26.4609375 81.0390625 C22.48375401 81.01765887 18.50837718 81.03885775 14.53125 81.06445312 C12.01041267 81.0618099 9.48957647 81.05668503 6.96875 81.04882812 C5.18114258 81.06097351 5.18114258 81.06097351 3.35742188 81.07336426 C2.24947266 81.06075562 1.14152344 81.04814697 0 81.03515625 C-0.97388672 81.03197388 -1.94777344 81.0287915 -2.95117188 81.0255127 C-6.38989197 80.34853908 -7.5234304 79.38072277 -9.53125 76.51757812 C-10.03918457 73.33007812 -10.03918457 73.33007812 -10.04882812 69.51757812 C-10.0558374 68.82116211 -10.06284668 68.12474609 -10.07006836 67.40722656 C-10.08764196 65.11026881 -10.07602919 62.81454792 -10.0625 60.51757812 C-10.06519513 58.91861739 -10.06907773 57.31965825 -10.07409668 55.72070312 C-10.07999082 52.37158587 -10.07143192 49.02289569 -10.05273438 45.67382812 C-10.02994435 41.38279222 -10.04306796 37.09275701 -10.06702423 32.80175781 C-10.0814848 29.50057446 -10.07687515 26.19962802 -10.06651306 22.8984375 C-10.06384646 21.31640504 -10.06711322 19.73435101 -10.07643127 18.15234375 C-10.08660179 15.9401765 -10.0710919 13.72962513 -10.04882812 11.51757812 C-10.04564575 10.25945312 -10.04246338 9.00132812 -10.03918457 7.70507812 C-9.53125 4.51757812 -9.53125 4.51757812 -7.84460449 2.11242676 C-5.00694632 0.15611817 -3.42937042 0.01120617 0 0 Z M6.46875 16.51757812 C6.46875 32.35757812 6.46875 48.19757813 6.46875 64.51757812 C17.02875 64.51757812 27.58875 64.51757812 38.46875 64.51757812 C38.46875 48.67757812 38.46875 32.83757812 38.46875 16.51757812 C27.90875 16.51757812 17.34875 16.51757812 6.46875 16.51757812 Z " fill="#000000" transform="translate(417.53125,279.482421875)"/>
<path d="M0 0 C0.85247314 -0.00700928 1.70494629 -0.01401855 2.58325195 -0.02124023 C5.3995832 -0.03883756 8.21490864 -0.02719147 11.03125 -0.01367188 C12.98893425 -0.01636629 14.9466172 -0.02024829 16.90429688 -0.02526855 C21.00664007 -0.03116595 25.10863482 -0.02259281 29.2109375 -0.00390625 C34.47045628 0.01888337 39.72915864 0.00576159 44.98864746 -0.01819611 C49.0309871 -0.03264751 53.07313305 -0.0280511 57.11547852 -0.01768494 C59.05476986 -0.01501583 60.99407877 -0.01829385 62.93334961 -0.02760315 C65.6435405 -0.03775789 68.35240775 -0.02228315 71.0625 0 C71.86469971 -0.00809692 72.66689941 -0.01619385 73.4934082 -0.02453613 C77.09387563 0.03033112 79.1245547 0.20680866 82.02734375 2.42492676 C83.65685192 4.69235034 84.0743805 5.75722605 84.03125 8.51757812 C84.04671875 9.50757813 84.04671875 9.50757813 84.0625 10.51757812 C83.25733917 13.54877184 82.02578717 14.61141893 79.53125 16.51757812 C76.5833973 16.912136 74.00947717 17.06490127 71.0625 17.03515625 C69.78379028 17.04567017 69.78379028 17.04567017 68.47924805 17.05639648 C65.6629168 17.07399381 62.84759136 17.06234772 60.03125 17.04882812 C58.07356575 17.05152254 56.1158828 17.05540454 54.15820312 17.0604248 C50.05585993 17.0663222 45.95386518 17.05774906 41.8515625 17.0390625 C36.59204372 17.01627288 31.33334136 17.02939466 26.07385254 17.05335236 C22.0315129 17.06780376 17.98936695 17.06320735 13.94702148 17.05284119 C12.00773014 17.05017208 10.06842123 17.0534501 8.12915039 17.0627594 C5.4189595 17.07291414 2.71009225 17.0574394 0 17.03515625 C-0.80219971 17.04325317 -1.60439941 17.0513501 -2.4309082 17.05969238 C-6.03137563 17.00482513 -8.0620547 16.82834759 -10.96484375 14.61022949 C-12.59435192 12.34280591 -13.0118805 11.2779302 -12.96875 8.51757812 C-12.98421875 7.52757812 -12.98421875 7.52757812 -13 6.51757812 C-11.24883612 -0.07503884 -5.81974348 -0.05874101 0 0 Z " fill="#000000" transform="translate(316.46875,343.482421875)"/>
<path d="M0 0 C0.85247314 -0.00700928 1.70494629 -0.01401855 2.58325195 -0.02124023 C5.3995832 -0.03883756 8.21490864 -0.02719147 11.03125 -0.01367188 C12.98893425 -0.01636629 14.9466172 -0.02024829 16.90429688 -0.02526855 C21.00664007 -0.03116595 25.10863482 -0.02259281 29.2109375 -0.00390625 C34.47045628 0.01888337 39.72915864 0.00576159 44.98864746 -0.01819611 C49.0309871 -0.03264751 53.07313305 -0.0280511 57.11547852 -0.01768494 C59.05476986 -0.01501583 60.99407877 -0.01829385 62.93334961 -0.02760315 C65.6435405 -0.03775789 68.35240775 -0.02228315 71.0625 0 C71.86469971 -0.00809692 72.66689941 -0.01619385 73.4934082 -0.02453613 C77.09387563 0.03033112 79.1245547 0.20680866 82.02734375 2.42492676 C83.65685192 4.69235034 84.0743805 5.75722605 84.03125 8.51757812 C84.04671875 9.50757813 84.04671875 9.50757813 84.0625 10.51757812 C83.25733917 13.54877184 82.02578717 14.61141893 79.53125 16.51757812 C76.5833973 16.912136 74.00947717 17.06490127 71.0625 17.03515625 C69.78379028 17.04567017 69.78379028 17.04567017 68.47924805 17.05639648 C65.6629168 17.07399381 62.84759136 17.06234772 60.03125 17.04882812 C58.07356575 17.05152254 56.1158828 17.05540454 54.15820312 17.0604248 C50.05585993 17.0663222 45.95386518 17.05774906 41.8515625 17.0390625 C36.59204372 17.01627288 31.33334136 17.02939466 26.07385254 17.05335236 C22.0315129 17.06780376 17.98936695 17.06320735 13.94702148 17.05284119 C12.00773014 17.05017208 10.06842123 17.0534501 8.12915039 17.0627594 C5.4189595 17.07291414 2.71009225 17.0574394 0 17.03515625 C-0.80219971 17.04325317 -1.60439941 17.0513501 -2.4309082 17.05969238 C-6.03137563 17.00482513 -8.0620547 16.82834759 -10.96484375 14.61022949 C-12.59435192 12.34280591 -13.0118805 11.2779302 -12.96875 8.51757812 C-12.98421875 7.52757812 -12.98421875 7.52757812 -13 6.51757812 C-11.24883612 -0.07503884 -5.81974348 -0.05874101 0 0 Z " fill="#000000" transform="translate(316.46875,311.482421875)"/>
<path d="M0 0 C0.85247314 -0.00700928 1.70494629 -0.01401855 2.58325195 -0.02124023 C5.3995832 -0.03883756 8.21490864 -0.02719147 11.03125 -0.01367188 C12.98893425 -0.01636629 14.9466172 -0.02024829 16.90429688 -0.02526855 C21.00664007 -0.03116595 25.10863482 -0.02259281 29.2109375 -0.00390625 C34.47045628 0.01888337 39.72915864 0.00576159 44.98864746 -0.01819611 C49.0309871 -0.03264751 53.07313305 -0.0280511 57.11547852 -0.01768494 C59.05476986 -0.01501583 60.99407877 -0.01829385 62.93334961 -0.02760315 C65.6435405 -0.03775789 68.35240775 -0.02228315 71.0625 0 C71.86469971 -0.00809692 72.66689941 -0.01619385 73.4934082 -0.02453613 C77.09387563 0.03033112 79.1245547 0.20680866 82.02734375 2.42492676 C83.65685192 4.69235034 84.0743805 5.75722605 84.03125 8.51757812 C84.04671875 9.50757813 84.04671875 9.50757813 84.0625 10.51757812 C83.25733917 13.54877184 82.02578717 14.61141893 79.53125 16.51757812 C76.5833973 16.912136 74.00947717 17.06490127 71.0625 17.03515625 C69.78379028 17.04567017 69.78379028 17.04567017 68.47924805 17.05639648 C65.6629168 17.07399381 62.84759136 17.06234772 60.03125 17.04882812 C58.07356575 17.05152254 56.1158828 17.05540454 54.15820312 17.0604248 C50.05585993 17.0663222 45.95386518 17.05774906 41.8515625 17.0390625 C36.59204372 17.01627288 31.33334136 17.02939466 26.07385254 17.05335236 C22.0315129 17.06780376 17.98936695 17.06320735 13.94702148 17.05284119 C12.00773014 17.05017208 10.06842123 17.0534501 8.12915039 17.0627594 C5.4189595 17.07291414 2.71009225 17.0574394 0 17.03515625 C-0.80219971 17.04325317 -1.60439941 17.0513501 -2.4309082 17.05969238 C-6.03137563 17.00482513 -8.0620547 16.82834759 -10.96484375 14.61022949 C-12.59435192 12.34280591 -13.0118805 11.2779302 -12.96875 8.51757812 C-12.98421875 7.52757812 -12.98421875 7.52757812 -13 6.51757812 C-11.24883612 -0.07503884 -5.81974348 -0.05874101 0 0 Z " fill="#000000" transform="translate(316.46875,279.482421875)"/>
<path d="M0 0 C0.7115625 -0.01546875 1.423125 -0.0309375 2.15625 -0.046875 C5.60314984 -0.02115187 7.64752229 0.24568064 10.46875 2.28125 C12.08267327 4.61979188 12.54379543 5.69709278 12.5 8.5 C12.5103125 9.16 12.520625 9.82 12.53125 10.5 C11.72167176 13.54782397 10.55457707 14.65682414 8 16.5 C5.16934716 16.90100915 2.81653341 17.06122899 0 17 C-0.7115625 17.01546875 -1.423125 17.0309375 -2.15625 17.046875 C-5.60314984 17.02115187 -7.64752229 16.75431936 -10.46875 14.71875 C-12.08267327 12.38020812 -12.54379543 11.30290722 -12.5 8.5 C-12.51546875 7.51 -12.51546875 7.51 -12.53125 6.5 C-10.82633794 0.08150756 -5.75061521 -0.12501337 0 0 Z " fill="#000000" transform="translate(412,79.5)"/>
</svg>
