<?xml version="1.0" encoding="UTF-8"?>
<svg version="1.1" xmlns="http://www.w3.org/2000/svg" width="512" height="512">
<path d="M0 0 C0.93147858 0.00359528 1.86295715 0.00719055 2.82266235 0.01089478 C3.79816544 0.01074875 4.77366852 0.01060272 5.7787323 0.01045227 C9.01987899 0.01115184 12.260969 0.01894626 15.50210571 0.02676392 C17.74270089 0.02862794 19.98329648 0.03005192 22.22389221 0.03105164 C28.13404456 0.03487804 34.04417251 0.04470936 39.95431519 0.05575562 C45.98000763 0.06596711 52.005704 0.07054869 58.03140259 0.07559204 C69.86409563 0.08633152 81.69677052 0.10340941 93.52944946 0.12442017 C98.88957797 10.20455554 104.20300535 20.27874206 109.04507446 30.62051392 C109.9950575 32.60121512 110.94693582 34.58100823 111.90054321 36.55996704 C113.34967775 39.56897141 114.78826465 42.58088604 116.19595337 45.60952759 C122.46276532 59.05215268 128.40188478 68.47366515 140.52944946 77.12442017 C142.39411893 78.63235778 144.24882264 80.15272606 146.09194946 81.68692017 C148.9147042 84.03346827 151.74151995 86.27507138 154.73529053 88.40179443 C164.26351418 95.37634238 167.08376718 101.75659152 169.33413696 113.11660767 C169.6725941 114.63681959 170.01521749 116.15610924 170.36175537 117.67449951 C171.25214916 121.63226524 172.08055134 125.60056577 172.89736938 129.57406616 C173.5762617 132.82119471 174.30039691 136.0574515 175.02671623 139.29424858 C175.89497762 143.16911083 176.7420623 147.04848113 177.58413696 150.92910767 C177.82433878 152.03016657 177.82433878 152.03016657 178.06939316 153.15346909 C178.51789274 155.23256209 178.95175254 157.31412939 179.38052368 159.39736938 C179.62777191 160.57886566 179.87502014 161.76036194 180.12976074 162.97766113 C180.72557058 167.66848652 179.98129626 170.90575762 177.33413696 174.77676392 C176.64106445 175.79745972 176.64106445 175.79745972 175.93399048 176.83877563 C175.42924194 177.57241333 174.92449341 178.30605103 174.40444946 179.06192017 C173.88616577 179.86001099 173.36788208 180.65810181 172.83389282 181.4803772 C169.93250572 185.89028077 166.94681739 189.83865082 163.29116821 193.65176392 C154.82100829 203.04640131 151.73486824 211.049 152.25405884 223.55134583 C152.78152772 232.14703414 153.80188444 240.6958017 154.85122681 249.2406311 C155.89292654 257.91875652 156.44686794 266.63229765 157.03146362 275.35083008 C157.21373739 278.01497198 157.40955006 280.67772876 157.61099243 283.34048462 C157.67312424 284.16531342 157.73525604 284.99014221 157.79927063 285.83996582 C157.91488982 287.3701672 158.03137039 288.90030386 158.14891052 290.43035889 C158.41374412 294.00353578 158.59095107 297.54118809 158.52944946 301.12442017 C170.17057599 302.5882744 180.6112511 302.16099614 190.25405884 294.87637329 C199.46442547 286.61622871 202.43883533 279.51733603 203.14660645 267.45397949 C203.46187526 258.66454883 203.13578337 249.89395083 202.52944946 241.12442017 C197.57944946 241.12442017 192.62944946 241.12442017 187.52944946 241.12442017 C187.52944946 230.89442017 187.52944946 220.66442017 187.52944946 210.12442017 C207.65944946 210.12442017 227.78944946 210.12442017 248.52944946 210.12442017 C248.52944946 220.35442017 248.52944946 230.58442017 248.52944946 241.12442017 C243.57944946 241.12442017 238.62944946 241.12442017 233.52944946 241.12442017 C233.72844849 242.53094849 233.92744751 243.93747681 234.13247681 245.3866272 C239.53190357 287.30552318 239.53190357 287.30552318 227.93438721 303.29092407 C224.08590126 307.99250458 219.93803075 312.2613425 215.52944946 316.43692017 C214.68888 317.25186951 213.84831055 318.06681885 212.98226929 318.90646362 C210.51421401 321.24064374 207.99081973 323.47331128 205.40444946 325.67520142 C204.28122787 326.66969551 204.28122787 326.66969551 203.13531494 327.6842804 C194.9450293 334.06559963 191.48957511 332.12442017 179.52944946 332.12442017 C179.52944946 351.92442017 179.52944946 371.72442017 179.52944946 392.12442017 C139.59944946 392.12442017 99.66944946 392.12442017 58.52944946 392.12442017 C58.52944946 401.69442017 58.52944946 411.26442017 58.52944946 421.12442017 C61.06116821 421.08961548 63.59288696 421.05481079 66.20132446 421.01895142 C68.69366329 420.99545643 71.18598909 420.97729673 73.67837524 420.95962524 C75.39099789 420.94467556 77.10358318 420.9243083 78.81607056 420.89810181 C94.38402809 420.66608374 107.72300733 422.14675942 120.77944946 431.43692017 C130.91484195 441.34196283 136.42907645 453.04473257 136.64273071 467.20254517 C136.67225752 472.17803178 136.6163862 477.14970704 136.52944946 482.12442017 C141.14944946 482.12442017 145.76944946 482.12442017 150.52944946 482.12442017 C150.52944946 492.02442017 150.52944946 501.92442017 150.52944946 512.12442017 C131.05944946 512.12442017 111.58944946 512.12442017 91.52944946 512.12442017 C91.52944946 502.22442017 91.52944946 492.32442017 91.52944946 482.12442017 C96.14944946 482.12442017 100.76944946 482.12442017 105.52944946 482.12442017 C105.441734 479.43548749 105.33477021 476.74956709 105.21694946 474.06192017 C105.19439087 473.3097522 105.17183228 472.55758423 105.14859009 471.78262329 C104.84655958 465.43998273 103.8083459 460.28937178 99.02944946 455.74942017 C95.7425674 453.61294683 93.25035237 452.99968356 89.41267395 452.98397827 C88.57580551 452.97826813 87.73893707 452.97255798 86.87670898 452.9666748 C85.96184723 452.96555695 85.04698547 452.96443909 84.10440063 452.96328735 C83.13824326 452.95832245 82.17208588 452.95335754 81.176651 452.94824219 C77.97523287 452.9336179 74.77386429 452.92681803 71.57241821 452.92129517 C69.34905496 452.91554384 67.12569172 452.90978611 64.90232849 452.90402222 C60.23758716 452.89351141 55.57286308 452.88766929 50.90811157 452.88418579 C44.93262261 452.87870155 38.95736157 452.85467518 32.98194408 452.82621384 C28.38798864 452.80758435 23.79408806 452.80238168 19.20009804 452.80084991 C16.99729479 452.79782347 14.7944925 452.78979523 12.5917263 452.77666473 C9.50853545 452.7595984 6.42590089 452.76148612 3.34268188 452.76797485 C2.43389282 452.75876007 1.52510376 452.74954529 0.58877563 452.74005127 C-4.52131548 452.77371735 -8.04821182 453.27648575 -12.47055054 456.12442017 C-16.4354897 460.30368037 -17.48905664 463.61624951 -17.78695679 469.23379517 C-17.82885132 469.98789673 -17.87074585 470.74199829 -17.91390991 471.51895142 C-17.95322632 472.2962561 -17.99254272 473.07356079 -18.03305054 473.87442017 C-18.09782593 475.06358032 -18.09782593 475.06358032 -18.16390991 476.27676392 C-18.26958045 478.22579831 -18.3705302 480.17508765 -18.47055054 482.12442017 C-13.85055054 482.12442017 -9.23055054 482.12442017 -4.47055054 482.12442017 C-4.47055054 492.02442017 -4.47055054 501.92442017 -4.47055054 512.12442017 C-23.94055054 512.12442017 -43.41055054 512.12442017 -63.47055054 512.12442017 C-63.47055054 502.22442017 -63.47055054 492.32442017 -63.47055054 482.12442017 C-58.85055054 482.12442017 -54.23055054 482.12442017 -49.47055054 482.12442017 C-49.50535522 480.81988892 -49.54015991 479.51535767 -49.57601929 478.17129517 C-49.86806436 462.69142389 -48.37104258 449.82240899 -39.15805054 436.87442017 C-28.73685243 426.21086862 -16.65544076 421.12960189 -1.84136963 420.93765259 C2.32439094 420.92307079 6.48893581 420.95735229 10.65444946 420.99942017 C12.39142347 421.00946985 14.1284031 421.01859218 15.86538696 421.02676392 C20.08699599 421.04690518 24.30781129 421.08608036 28.52944946 421.12442017 C28.52944946 411.55442017 28.52944946 401.98442017 28.52944946 392.12442017 C-11.40055054 392.12442017 -51.33055054 392.12442017 -92.47055054 392.12442017 C-92.47055054 372.32442017 -92.47055054 352.52442017 -92.47055054 332.12442017 C-97.75055054 332.12442017 -103.03055054 332.12442017 -108.47055054 332.12442017 C-112.6081187 330.05963502 -115.0220116 328.61784415 -118.34555054 325.67520142 C-119.16808319 324.97494339 -119.99061584 324.27468536 -120.83807373 323.5532074 C-123.4529621 321.24662976 -125.96726285 318.86390895 -128.47055054 316.43692017 C-129.3302948 315.62261536 -130.19003906 314.80831055 -131.07583618 313.96932983 C-142.74099212 302.56421374 -148.40686999 292.59254391 -149.08145142 276.14347839 C-149.1645428 264.4053468 -148.11350671 252.73686097 -146.47055054 241.12442017 C-151.42055054 241.12442017 -156.37055054 241.12442017 -161.47055054 241.12442017 C-161.47055054 230.89442017 -161.47055054 220.66442017 -161.47055054 210.12442017 C-141.34055054 210.12442017 -121.21055054 210.12442017 -100.47055054 210.12442017 C-100.47055054 220.35442017 -100.47055054 230.58442017 -100.47055054 241.12442017 C-105.42055054 241.12442017 -110.37055054 241.12442017 -115.47055054 241.12442017 C-117.98291613 266.99207099 -117.98291613 266.99207099 -108.41000366 289.97402954 C-100.3782068 297.88348372 -93.07277967 301.61322472 -81.72055054 301.87442017 C-78.2760441 301.78444968 -74.88897925 301.55428246 -71.47055054 301.12442017 C-71.43091187 300.43783325 -71.39127319 299.75124634 -71.35043335 299.04385376 C-71.14476683 295.52877429 -70.93347467 292.01406783 -70.72055054 288.49942017 C-70.67997528 287.82712372 -70.63940002 287.15482727 -70.59759521 286.4621582 C-69.961657 276.01797376 -69.21418474 265.58447073 -68.41195679 255.15176392 C-68.27335739 253.33735809 -68.27335739 253.33735809 -68.13195801 251.48629761 C-67.66446958 245.37261315 -67.18955972 239.25964093 -66.70394897 233.14736938 C-66.52820593 230.86500217 -66.35273808 228.58261374 -66.17758179 226.30020142 C-66.09125992 225.24622665 -66.00493805 224.19225189 -65.91600037 223.1063385 C-65.84223679 222.12786453 -65.76847321 221.14939056 -65.69247437 220.14126587 C-65.62522659 219.28958328 -65.55797882 218.4379007 -65.48869324 217.56040955 C-65.4534515 212.82856125 -66.53163768 209.59314568 -69.17367554 205.71035767 C-69.73627075 204.87601196 -70.29886597 204.04166626 -70.87850952 203.18203735 C-71.48638306 202.29677368 -72.09425659 201.41151001 -72.72055054 200.49942017 C-73.3393811 199.57806274 -73.95821167 198.65670532 -74.59579468 197.70742798 C-77.75605784 193.01932364 -80.9819032 188.39419114 -84.32601929 183.83535767 C-84.92833374 182.99956177 -85.53064819 182.16376587 -86.1512146 181.30264282 C-87.29495002 179.72182119 -88.45885716 178.15533732 -89.64535522 176.60635376 C-90.16388062 175.88528442 -90.68240601 175.16421509 -91.21664429 174.42129517 C-91.67740356 173.80609009 -92.13816284 173.19088501 -92.61288452 172.55703735 C-96.36629594 161.9111531 -89.01921632 144.55403723 -86.53573608 133.59609985 C-85.86327071 130.61899214 -85.21197759 127.63842567 -84.57870483 124.65274048 C-83.80716334 121.01624208 -82.99823396 117.3899243 -82.16311455 113.76751709 C-81.85404377 112.39905338 -81.5576923 111.02764387 -81.27522469 109.65344238 C-79.17280894 99.49725962 -75.83924658 94.23368473 -67.47055054 88.12442017 C-66.50504272 87.31231079 -65.53953491 86.50020142 -64.54476929 85.66348267 C-63.36334351 84.71602173 -63.36334351 84.71602173 -62.15805054 83.74942017 C-57.93835347 80.32804417 -53.75075036 76.87359796 -49.59555054 73.37442017 C-49.06018677 72.92663208 -48.524823 72.47884399 -47.97323608 72.01748657 C-42.51452006 67.40851267 -38.26086546 63.34068721 -35.0730896 56.8812561 C-34.77160507 56.27741089 -34.47012054 55.67356567 -34.15950012 55.05142212 C-33.17558673 53.07508558 -32.20592927 51.09211234 -31.23617554 49.10879517 C-30.55162589 47.72781719 -29.86612507 46.34731034 -29.17971802 44.96725464 C-27.3827375 41.34863678 -25.59751579 37.72434796 -23.81509399 34.09854126 C-21.29299862 28.9736232 -18.75479468 23.8566581 -16.21853638 18.73873901 C-14.86894279 16.01527364 -13.52376421 13.28969635 -12.18203735 10.56234741 C-11.57151359 9.32489493 -10.96097949 8.08744755 -10.35043335 6.8500061 C-9.81702332 5.7658844 -9.28361328 4.6817627 -8.73403931 3.56478882 C-6.49493863 -0.75992797 -4.73780403 0.00772777 0 0 Z M13.52944946 30.12442017 C11.07973223 34.77648574 8.63090259 39.42901466 6.18374634 44.08242798 C4.64303671 47.01147085 3.09919586 49.9387392 1.54702759 52.86172485 C-0.06015221 55.89864436 -1.64321966 58.94691714 -3.22055054 61.99942017 C-3.76453491 63.01649048 -4.30851929 64.03356079 -4.86898804 65.08145142 C-5.37172241 66.06242798 -5.87445679 67.04340454 -6.39242554 68.05410767 C-6.84198608 68.91246216 -7.29154663 69.77081665 -7.75473022 70.65518188 C-9.48856356 76.636079 -2.99654159 85.37763727 -0.18708801 90.61538696 C10.83345044 111.05889113 10.83345044 111.05889113 29.40049744 123.70854187 C41.28416128 126.71248098 54.77441744 126.46670631 65.52944946 120.12442017 C77.30499964 110.44383619 93.51065021 88.7354878 95.52944946 73.12442017 C94.89494856 70.98339125 94.89494856 70.98339125 93.73110962 68.83071899 C93.31382599 67.99337723 92.89654236 67.15603546 92.46661377 66.2933197 C92.00524017 65.39840317 91.54386658 64.50348663 91.06851196 63.58145142 C90.60335175 62.65724899 90.13819153 61.73304657 89.65893555 60.78083801 C88.16856936 57.82708094 86.66151841 54.88218404 85.15444946 51.93692017 C84.14558444 49.94070696 83.13775883 47.94396808 82.13101196 45.94668579 C80.28891054 42.30467537 78.4456104 38.66333963 76.58657837 35.02993774 C76.21272003 34.29809769 75.83886169 33.56625763 75.45367432 32.8122406 C74.64302456 31.14446451 74.64302456 31.14446451 73.52944946 30.12442017 C71.65764006 30.03055636 69.78226886 30.00698213 67.90811157 30.01089478 C66.10635719 30.01100807 66.10635719 30.01100807 64.26820374 30.01112366 C62.30730553 30.01886559 62.30730553 30.01886559 60.30679321 30.02676392 C58.96300814 30.02862818 57.61922239 30.03005204 56.2754364 30.03105164 C52.7326267 30.03487615 49.18985776 30.04470585 45.64706421 30.05575562 C42.0342972 30.06597117 38.42152362 30.07054956 34.80874634 30.07559204 C27.71563066 30.08632819 20.62254272 30.10340381 13.52944946 30.12442017 Z M-34.84164429 101.89785767 C-35.8268103 102.76410767 -35.8268103 102.76410767 -36.83187866 103.64785767 C-37.51701538 104.25887329 -38.2021521 104.86988892 -38.90805054 105.49942017 C-40.25958431 106.6962372 -41.61240097 107.89160744 -42.96664429 109.08535767 C-43.56662231 109.61951294 -44.16660034 110.15366821 -44.78475952 110.70401001 C-46.47055054 112.12442017 -46.47055054 112.12442017 -49.47055054 114.12442017 C-50.33586116 116.16166988 -50.33586116 116.16166988 -50.85263062 118.58657837 C-51.07908768 119.51126419 -51.30554474 120.43595001 -51.53886414 121.38865662 C-51.88596687 122.89174629 -51.88596687 122.89174629 -52.24008179 124.42520142 C-52.48473679 125.45372726 -52.72939178 126.48225311 -52.98146057 127.54194641 C-53.4958086 129.72028695 -54.00396999 131.90009607 -54.50643921 134.08120728 C-55.27860613 137.41771603 -56.07926859 140.74648226 -56.88265991 144.07559204 C-57.37854534 146.19172039 -57.87274214 148.3082453 -58.36508179 150.42520142 C-58.60660477 151.42118851 -58.84812775 152.4171756 -59.0969696 153.44334412 C-59.30766586 154.37748642 -59.51836212 155.31162872 -59.73544312 156.27407837 C-59.92624954 157.09189285 -60.11705597 157.90970734 -60.31364441 158.75230408 C-60.60352044 163.134667 -58.4262092 166.46350942 -55.93148804 169.90957642 C-55.43713257 170.59946655 -54.9427771 171.28935669 -54.43344116 172.00015259 C-53.90943726 172.72178589 -53.38543335 173.44341919 -52.84555054 174.18692017 C-51.75839253 175.7042756 -50.67245998 177.22250979 -49.58773804 178.74160767 C-49.05632202 179.48507446 -48.52490601 180.22854126 -47.97738647 180.99453735 C-44.69769528 185.63031602 -41.59069378 190.38038419 -38.47055054 195.12442017 C-37.78194946 196.031754 -37.09334839 196.93908783 -36.38388062 197.87391663 C-34.19640919 201.59015132 -34.00933969 203.47908614 -34.13851929 207.74575806 C-34.15440598 208.38847939 -34.17029266 209.03120073 -34.18666077 209.69339848 C-34.25193142 211.83939458 -34.35558005 213.98053043 -34.47055054 216.12442017 C-34.50988708 216.87550426 -34.54922363 217.62658836 -34.5897522 218.40043259 C-34.91753372 224.33318726 -35.346228 230.25746597 -35.78305054 236.18301392 C-35.91803647 238.06726313 -36.05254938 239.95154629 -36.18661499 241.83586121 C-36.53702389 246.74330775 -36.89376306 251.65027328 -37.25192261 256.55715942 C-37.61776243 261.58515896 -37.97747537 266.61359662 -38.33773804 271.64199829 C-39.04275458 281.46990746 -39.75504135 291.29726933 -40.47055054 301.12442017 C-32.88055054 301.12442017 -25.29055054 301.12442017 -17.47055054 301.12442017 C-4.2683243 268.93148585 0.27542474 239.67590019 0.14419556 204.93911743 C0.12948729 199.83861645 0.21370816 194.75530655 0.39028931 189.65786743 C1.61766072 153.76799946 -2.90509282 129.52956795 -26.80664062 101.87290955 C-27.6857309 100.96590805 -28.56482117 100.05890656 -29.47055054 99.12442017 C-32.17465844 99.12442017 -32.83749228 100.11776732 -34.84164429 101.89785767 Z M116.52944946 99.12442017 C93.70985574 122.6685388 86.06640873 145.92316316 86.35429764 178.24508858 C86.44779743 183.32715062 86.62520895 188.40500281 86.80117798 193.48477173 C86.93843872 198.57153168 86.91956328 203.65268413 86.90034103 208.74087334 C86.83340304 242.09191587 91.87594738 270.26952085 104.52944946 301.12442017 C112.11944946 301.12442017 119.70944946 301.12442017 127.52944946 301.12442017 C127.34769165 298.62807007 127.16593384 296.13171997 126.97866821 293.5597229 C126.37502701 285.25807875 125.77736246 276.95601185 125.18254089 268.65373135 C124.82216391 263.62625445 124.45985308 258.59893336 124.09292603 253.57192993 C123.7380717 248.70930147 123.38855406 243.84631472 123.0425415 238.98304939 C122.91045254 237.13923854 122.77652755 235.29555815 122.640625 233.45202446 C122.01132138 224.90059138 121.43751593 216.34900736 121.23477173 207.77554321 C121.20714249 206.63949142 121.17951324 205.50343964 121.15104675 204.33296204 C121.8941808 198.03180024 125.71433471 193.42299441 129.46694946 188.49942017 C130.25122698 187.40451606 131.03139721 186.30665878 131.80752563 185.20596313 C134.98224767 180.7606184 138.20771009 176.41100627 141.80288696 172.29629517 C145.51125185 167.8462573 147.58621696 165.09953745 147.41616821 159.18301392 C146.73281752 155.07100152 145.53848401 151.13919786 144.34146118 147.1522522 C143.40618551 143.66479313 142.76218586 140.17473437 142.12710571 136.62051392 C139.65139613 119.95338219 139.65139613 119.95338219 129.90444946 106.99942017 C127.8179618 105.6464246 125.69495186 104.34696962 123.52944946 103.12442017 C122.61421509 102.38449829 121.69898071 101.64457642 120.75601196 100.88223267 C118.74062338 98.91787207 118.74062338 98.91787207 116.52944946 99.12442017 Z M28.52944946 151.12442017 C28.52944946 180.82442017 28.52944946 210.52442017 28.52944946 241.12442017 C38.42944946 241.12442017 48.32944946 241.12442017 58.52944946 241.12442017 C58.52944946 211.42442017 58.52944946 181.72442017 58.52944946 151.12442017 C48.62944946 151.12442017 38.72944946 151.12442017 28.52944946 151.12442017 Z M24.52944946 271.12442017 C21.22944946 281.02442017 17.92944946 290.92442017 14.52944946 301.12442017 C33.66944946 301.12442017 52.80944946 301.12442017 72.52944946 301.12442017 C69.22944946 291.22442017 65.92944946 281.32442017 62.52944946 271.12442017 C49.98944946 271.12442017 37.44944946 271.12442017 24.52944946 271.12442017 Z M-61.47055054 332.12442017 C-61.47055054 341.69442017 -61.47055054 351.26442017 -61.47055054 361.12442017 C7.82944946 361.12442017 77.12944946 361.12442017 148.52944946 361.12442017 C148.52944946 351.55442017 148.52944946 341.98442017 148.52944946 332.12442017 C79.22944946 332.12442017 9.92944946 332.12442017 -61.47055054 332.12442017 Z " fill="#000000" transform="translate(212.47055053710938,-0.124420166015625)"/>
</svg>
