<?xml version="1.0" encoding="UTF-8"?>
<svg version="1.1" xmlns="http://www.w3.org/2000/svg" width="1182" height="284">
<path d="M0 0 C3 1 3 1 4.50831604 3.42208862 C5.03996872 4.49951324 5.5716214 5.57693787 6.11938477 6.68701172 C6.41587418 7.2808667 6.71236359 7.87472168 7.01783752 8.48657227 C8.00178668 10.46308665 8.97143089 12.44628306 9.94140625 14.4296875 C10.62967127 15.81810294 11.31889122 17.20604537 12.00901794 18.59353638 C13.83374746 22.26781825 15.64679632 25.94774001 17.45709229 29.62915039 C20.3199926 35.44568619 23.20096272 41.25332169 26.07966232 47.06204987 C26.77884181 48.47316959 27.4776769 49.88446 28.17616653 51.29592133 C34.80873472 64.69617781 41.52420799 78.04588536 49 91 C49.30067383 90.41847168 49.60134766 89.83694336 49.91113281 89.23779297 C55.94067522 77.59115984 62.04488852 65.99347184 68.35205078 54.49462891 C72.86866829 46.2587883 77.32069773 37.98904207 81.75341797 29.70776367 C86.74083872 20.41519894 91.87603528 11.2231365 97 2 C112.84 2 128.68 2 145 2 C135.50403226 20.99193548 135.50403226 20.99193548 130.75 30.125 C130.19699219 31.18847656 129.64398437 32.25195312 129.07421875 33.34765625 C124.98476345 41.18189749 120.77931067 48.94679125 116.52050781 56.68994141 C112.74547806 63.57534813 109.10375154 70.52361638 105.5 77.5 C100.95564789 86.2972612 96.29168125 95.01591457 91.51953125 103.69140625 C87.74512171 110.57648401 84.10349777 117.52414195 80.5 124.5 C75.93997348 133.32721352 71.2626463 142.077765 66.47558594 150.78369141 C60.81737797 161.10171107 55.40442195 171.54739613 50 182 C49.01 182 48.02 182 47 182 C46.59797363 181.19071045 46.19594727 180.3814209 45.78173828 179.54760742 C44.23645746 176.43963105 42.68915179 173.33267799 41.140625 170.22631836 C40.48067741 168.9015053 39.82145654 167.57632988 39.16308594 166.25073242 C34.8608376 157.58997557 30.44474741 148.9977568 25.925354 140.44830322 C21.31283131 131.71715135 16.78253642 122.94436496 12.2734375 114.15942383 C11.32503492 112.3134496 10.37477886 110.46842667 9.42285156 108.62426758 C8.0253911 105.91686485 6.63316972 103.20682928 5.2421875 100.49609375 C4.81420868 99.6691954 4.38622986 98.84229706 3.94528198 97.99034119 C3.55712311 97.23096756 3.16896423 96.47159393 2.76904297 95.68920898 C2.42614227 95.0225975 2.08324158 94.35598602 1.72994995 93.66917419 C1 92 1 92 1 90 C0.34 90 -0.32 90 -1 90 C-1.25797363 90.68199463 -1.51594727 91.36398926 -1.78173828 92.06665039 C-3.18565376 95.44702003 -4.81388247 98.68430134 -6.4921875 101.93359375 C-7.00486176 102.93172844 -7.00486176 102.93172844 -7.52789307 103.95002747 C-8.64084454 106.11394806 -9.7576362 108.27585483 -10.875 110.4375 C-11.25815369 111.18052368 -11.64130737 111.92354736 -12.03607178 112.68908691 C-17.07184218 122.45076647 -22.2013846 132.14956631 -27.51416016 141.76391602 C-34.26892878 154.03737022 -40.60615881 166.5359565 -47 179 C-47.99 179 -48.98 179 -50 179 C-51.40356445 177.17773438 -51.40356445 177.17773438 -52.86328125 174.59375 C-53.68783813 173.15539795 -53.68783813 173.15539795 -54.52905273 171.68798828 C-55.11759033 170.63595215 -55.70612793 169.58391602 -56.3125 168.5 C-57.58041493 166.27846646 -58.8486528 164.0571172 -60.1171875 161.8359375 C-61.08736816 160.12422363 -61.08736816 160.12422363 -62.07714844 158.37792969 C-64.98619229 153.26752711 -67.96359813 148.19782777 -70.9375 143.125 C-78.97946843 129.3519736 -86.93542382 115.52942902 -94.89550781 101.70898438 C-102.14033048 89.1323608 -109.4073281 76.56963043 -116.73071289 64.03857422 C-121.64056611 55.63133855 -126.50753291 47.19977415 -131.36376953 38.76147461 C-134.56388621 33.20551842 -137.77945588 27.65938436 -141.0234375 22.12890625 C-141.66990234 21.02611328 -142.31636719 19.92332031 -142.98242188 18.78710938 C-144.21824202 16.68149631 -145.45641972 14.57726466 -146.69726562 12.47460938 C-147.52387695 11.06598633 -147.52387695 11.06598633 -148.3671875 9.62890625 C-148.85300293 8.80463135 -149.33881836 7.98035645 -149.83935547 7.13110352 C-151 5 -151 5 -152 2 C-144.84730558 1.77150204 -137.69555352 1.61407594 -130.54003906 1.50561523 C-128.10706415 1.46039807 -125.67433322 1.39901088 -123.2421875 1.32104492 C-119.74157584 1.21165081 -116.24419834 1.16078766 -112.7421875 1.12109375 C-111.65759247 1.07464218 -110.57299744 1.02819061 -109.45553589 0.98033142 C-102.06815489 0.97541102 -102.06815489 0.97541102 -99.05047607 3.87001038 C-97.48363113 6.181066 -96.21482647 8.48841274 -95 11 C-94.42443359 11.96881104 -93.84886719 12.93762207 -93.25585938 13.93579102 C-92.78986328 14.78326904 -92.32386719 15.63074707 -91.84375 16.50390625 C-91.30379395 17.47884033 -90.76383789 18.45377441 -90.20751953 19.45825195 C-89.64403809 20.48265381 -89.08055664 21.50705566 -88.5 22.5625 C-83.7988567 31.03418272 -79.02865397 39.45635926 -74.125 47.8125 C-68.05144266 58.16223109 -62.08331576 68.56908948 -56.15283203 79.0012207 C-55.50942871 80.13132568 -54.86602539 81.26143066 -54.203125 82.42578125 C-53.63239258 83.43036377 -53.06166016 84.43494629 -52.47363281 85.4699707 C-51.378021 87.3509888 -50.20748873 89.18876691 -49 91 C-43.6445115 81.77610726 -38.52068989 72.4537166 -33.5602417 63.01187134 C-31.60903277 59.29821001 -29.64970807 55.58883073 -27.69140625 51.87890625 C-27.10027039 50.75832069 -27.10027039 50.75832069 -26.49719238 49.61509705 C-22.65274235 42.33165548 -18.76965797 35.06918959 -14.875 27.8125 C-14.26124512 26.66861816 -13.64749023 25.52473633 -13.01513672 24.34619141 C-11.86389577 22.20094137 -10.7125361 20.05575503 -9.56103516 17.91064453 C-6.36241547 11.94662452 -3.18001453 5.97395701 0 0 Z " fill="#FDFDFD" transform="translate(883,0)"/>
<path d="M0 0 C13.72654558 -0.04530558 27.45304095 -0.08194767 41.17964458 -0.10362434 C47.55444316 -0.11403156 53.92918763 -0.12813457 60.30395508 -0.15087891 C66.46368245 -0.1727168 72.62335799 -0.18459162 78.78312111 -0.18975449 C81.12527087 -0.19343066 83.46741801 -0.20060897 85.80954552 -0.21146011 C107.20742666 -0.30659384 126.03555385 0.09738654 143 15 C153.93562679 26.40216377 158.93343777 39.73814828 159.375 55.5 C158.92242494 70.41687406 154.32528419 84.23703232 143.93359375 95.23046875 C138.5769564 100.13260354 132.9146153 103.63579441 126.31152344 106.60864258 C125.31779724 107.05701981 124.32407104 107.50539703 123.30023193 107.96736145 C122.5411554 108.30813217 121.78207886 108.64890289 121 109 C124.92627856 114.97485543 128.8552285 120.94794807 132.78588867 126.91992188 C134.11785919 128.94427317 135.4492567 130.96900163 136.7800293 132.99414062 C149.27517503 152.5063636 149.27517503 152.5063636 162.79614258 171.30078125 C164 173 164 173 164 175 C148.92792424 177.7426132 130.59351034 181.00385677 116 175 C104.37327544 166.78774027 97.6898773 151.97636695 91.46711731 139.57302856 C87.58153223 131.82902661 83.03482359 124.79102416 77.99494934 117.75175476 C77.47220932 117.02068008 76.9494693 116.28960541 76.41088867 115.53637695 C75.9446257 114.89843704 75.47836273 114.26049713 74.99797058 113.60322571 C74 112 74 112 74 110 C62.78 110 51.56 110 40 110 C40 131.45 40 152.9 40 175 C26.8 175 13.6 175 0 175 C0 141.01 0 107.02 0 72 C11.24771484 71.94392578 11.24771484 71.94392578 22.72265625 71.88671875 C27.47593436 71.85643921 32.22917501 71.82529135 36.98242188 71.79101562 C44.52529001 71.73670661 52.06808406 71.68559573 59.61108398 71.65356445 C65.69310658 71.62753597 71.77488017 71.58713613 77.85674858 71.53681374 C80.17590676 71.52014207 82.49510801 71.50862968 84.8143177 71.50238609 C88.06536017 71.49274859 91.31576514 71.4646922 94.56665039 71.43237305 C95.523311 71.43380814 96.47997162 71.43524323 97.46562195 71.4367218 C104.54978669 71.33726886 109.38223998 70.27631306 114.875 65.5 C118.3936596 61.36040047 118.26470854 57.64751499 118.234375 52.4453125 C117.9386241 49.3596448 116.84430288 47.45907051 115 45 C115 44.34 115 43.68 115 43 C108.05517903 39.11090026 101.43711896 38.69889034 93.65844727 38.68115234 C92.64305374 38.67110672 91.62766022 38.6610611 90.58149719 38.65071106 C87.24313902 38.61995215 83.90486079 38.60286406 80.56640625 38.5859375 C78.24469824 38.56722001 75.92299699 38.54764616 73.6013031 38.5272522 C67.50387564 38.47598656 61.40642613 38.43633092 55.30889893 38.39910889 C49.08152844 38.35903441 42.85424921 38.30795775 36.62695312 38.2578125 C24.41802657 38.16111903 12.20906216 38.0777104 0 38 C0 25.46 0 12.92 0 0 Z " fill="#FDFDFD" transform="translate(0,1)"/>
<path d="M0 0 C1.9992407 0.00373788 3.99848324 0.00658118 5.99772644 0.00857544 C11.21726691 0.01615089 16.43669312 0.03574592 21.65618896 0.0579834 C26.99929255 0.07857418 32.3424149 0.08760524 37.68554688 0.09765625 C48.13807868 0.11899853 58.59049627 0.15412985 69.04296875 0.1953125 C69.04296875 12.7353125 69.04296875 25.2753125 69.04296875 38.1953125 C62.85546875 38.23269531 56.66796875 38.27007812 50.29296875 38.30859375 C46.36455589 38.33888274 42.43618783 38.37003671 38.5078125 38.40429688 C32.27752989 38.45855036 26.04733589 38.5096633 19.81689453 38.54174805 C14.79170868 38.56782696 9.76682166 38.60826197 4.74182129 38.65849876 C2.82820361 38.67513644 0.91453427 38.68666997 -0.99914551 38.69292641 C-3.68724626 38.70260125 -6.37458782 38.73070063 -9.0625 38.76293945 C-10.23962807 38.76078682 -10.23962807 38.76078682 -11.4405365 38.7585907 C-17.73306208 38.86477315 -22.99208652 40.24469096 -28.33203125 43.7578125 C-30.92482645 47.6470053 -31.83812615 51.53703053 -31.95703125 56.1953125 C-31.05056894 60.13003037 -29.43871767 63.01475403 -26.265625 65.54296875 C-21.55067892 68.38415656 -17.43587393 69.31207881 -12.02758789 69.35302734 C-10.55939354 69.36842056 -10.55939354 69.36842056 -9.0615387 69.38412476 C-8.0074028 69.39142609 -6.95326691 69.39872742 -5.8671875 69.40625 C-3.6152274 69.43434244 -1.36327439 69.46300703 0.88867188 69.4921875 C4.42325459 69.533239 7.95770859 69.57014162 11.49243164 69.59667969 C32.40420734 69.76713615 50.89713924 70.44451489 66.85546875 85.7890625 C77.87542236 97.91101147 79.92999515 112.16816042 79.421875 127.9375 C78.66320574 141.30815386 73.05053786 153.76429111 63.35546875 163.0703125 C53.30210347 171.51452633 42.39278423 175.52914552 29.43579102 175.42236328 C28.49842606 175.42265533 27.5610611 175.42294739 26.59529114 175.42324829 C23.51655618 175.42186201 20.43806736 175.40633389 17.359375 175.390625 C15.21703727 175.38689238 13.07469783 175.38404658 10.93235779 175.38204956 C5.30831139 175.37443276 -0.31563084 175.35480104 -5.93963623 175.3326416 C-11.68435253 175.31214107 -17.42908575 175.30303885 -23.17382812 175.29296875 C-34.43494884 175.2715533 -45.69596506 175.23638707 -56.95703125 175.1953125 C-56.95703125 162.6553125 -56.95703125 150.1153125 -56.95703125 137.1953125 C-50.83011719 137.15792969 -44.70320313 137.12054688 -38.390625 137.08203125 C-34.50322737 137.05174618 -30.61587522 137.02059478 -26.72851562 136.98632812 C-20.56179116 136.93205146 -14.39515667 136.88093942 -8.22827148 136.84887695 C-3.25495887 136.82281903 1.71805074 136.78239876 6.69117546 136.73212624 C8.58608155 136.7154744 10.48104004 136.70394966 12.37600899 136.69769859 C15.03558043 136.68803922 17.69437958 136.65995815 20.35375977 136.62768555 C21.13275635 136.62912064 21.91175293 136.63055573 22.71435547 136.6320343 C28.48970282 136.53327787 33.14628633 135.39279572 37.85546875 131.8203125 C41.08320993 127.40340351 41.40254166 123.64491505 40.64453125 118.34765625 C39.67231294 114.86913488 37.90719013 113.29574151 35.04296875 111.1953125 C29.56414296 108.77945231 24.29194734 108.88327221 18.4140625 108.8515625 C17.38797379 108.8369397 16.36188507 108.82231689 15.30470276 108.80725098 C12.02999769 108.76089931 8.7553497 108.72665569 5.48046875 108.6953125 C-38.91897069 108.26550186 -38.91897069 108.26550186 -55.95703125 93.45703125 C-67.01367982 81.93146231 -70.33256111 67.37419818 -70.25805664 51.94384766 C-69.93839729 38.31357312 -65.43218698 25.0494057 -55.9296875 15.00390625 C-39.62512674 0.05536837 -20.89960461 -0.11577683 0 0 Z " fill="#FDFDFD" transform="translate(401.95703125,0.8046875)"/>
<path d="M0 0 C12.11012383 -0.06809326 24.22011807 -0.12299806 36.33039093 -0.15543652 C41.95519694 -0.17101448 47.57986385 -0.19210707 53.20458984 -0.22631836 C58.6446314 -0.25919486 64.08454014 -0.27691199 69.52467346 -0.28463173 C71.58803901 -0.29012491 73.65139826 -0.30084982 75.71470642 -0.31719017 C96.97764074 -0.47870524 115.58562812 1.02026172 131.78125 16.55859375 C141.92870917 27.72437188 146.37925297 41.48568691 146.2109375 56.3984375 C145.21397117 73.42071438 138.50383598 86.34495885 126.06640625 97.77734375 C117.64907289 104.6547076 107.33280656 108.13477871 96.55737305 108.11352539 C94.60921692 108.11334412 94.60921692 108.11334412 92.6217041 108.11315918 C91.25170849 108.10812463 89.88171335 108.10295811 88.51171875 108.09765625 C86.63208435 108.09614563 86.63208435 108.09614563 84.71447754 108.09460449 C80.03880903 108.08937712 75.36315359 108.07541585 70.6875 108.0625 C60.230625 108.041875 49.77375 108.02125 39 108 C39 130.11 39 152.22 39 175 C26.13 175 13.26 175 0 175 C0 140.35 0 105.7 0 70 C46 69.6875 46 69.6875 60.4921875 69.61206055 C64.80177569 69.57547016 64.80177569 69.57547016 69.11132812 69.5349884 C71.02177215 69.51890279 72.93227016 69.50857134 74.84277344 69.50288391 C77.74703578 69.49309742 80.65059986 69.46470515 83.5546875 69.43237305 C84.81839676 69.43451199 84.81839676 69.43451199 86.1076355 69.43669415 C91.69768904 69.34825099 95.90625729 68.35775437 101 66 C104.27473158 62.22146356 105.79580507 59.00277568 106 54 C105.02970947 48.46934396 103.4309789 45.46772262 99 42 C93.04912675 39.33329847 88.21388073 38.55632366 81.73828125 38.56762695 C80.84953812 38.5574353 79.96079498 38.54724365 79.04512024 38.53674316 C76.1341814 38.50676881 73.22357247 38.49737111 70.3125 38.48828125 C68.28368042 38.47142302 66.25487121 38.45327125 64.22607422 38.43388367 C58.90626263 38.38650185 53.58649311 38.35661606 48.26654053 38.33044434 C42.82995295 38.30057912 37.39351014 38.25406929 31.95703125 38.20898438 C21.30474682 38.12308559 10.65247713 38.05722039 0 38 C0 25.46 0 12.92 0 0 Z " fill="#FDFDFD" transform="translate(491,1)"/>
<path d="M0 0 C13.86 0 27.72 0 42 0 C42 57.75 42 115.5 42 175 C29 175 29 175 25.52734375 172.98046875 C24.67269531 172.05878906 23.81804687 171.13710937 22.9375 170.1875 C21.94748397 169.16972651 20.95657233 168.15282358 19.96484375 167.13671875 C19.47612793 166.61384277 18.98741211 166.0909668 18.48388672 165.55224609 C16.10961935 163.06860149 13.55357922 160.79627073 11 158.5 C9.99903366 157.58438864 8.9990341 156.66771926 8 155.75 C7.505 155.29625 7.01 154.8425 6.5 154.375 C-10 139.25 -10 139.25 -11.50048828 137.87451172 C-12.49880661 136.95941367 -13.49717886 136.04437445 -14.49560547 135.12939453 C-17.0217842 132.81421148 -19.54696832 130.4979599 -22.0703125 128.1796875 C-27.49934442 123.19384186 -32.95155822 118.23578108 -38.4375 113.3125 C-41.82321544 110.25709826 -45.1808191 107.17143016 -48.5390625 104.0859375 C-51.67667086 101.20577393 -54.83020941 98.34468386 -58 95.5 C-62.20684327 91.72462783 -66.37674853 87.91019552 -70.5390625 84.0859375 C-74.47558908 80.47240797 -78.44369811 76.89565138 -82.421875 73.328125 C-84.3158034 71.61785026 -86.2008641 69.90025771 -88.078125 68.171875 C-88.60535156 67.68654297 -89.13257813 67.20121094 -89.67578125 66.70117188 C-91.1652578 65.32811843 -92.65299437 63.95317818 -94.140625 62.578125 C-96.90433848 59.92168503 -96.90433848 59.92168503 -100.14208984 58.10766602 C-102.32974371 56.27378072 -102.93860802 55.29612498 -103.52514648 52.46694946 C-103.69575911 49.19523883 -103.67371918 45.97427482 -103.5859375 42.69921875 C-103.57744781 41.50770706 -103.56895813 40.31619537 -103.56021118 39.08857727 C-103.52665574 35.287294 -103.45136342 31.48814086 -103.375 27.6875 C-103.34490358 25.10875462 -103.31752723 22.52997595 -103.29296875 19.95117188 C-103.22685685 13.63338923 -103.12648321 7.31684679 -103 1 C-99.45052358 2.35184457 -97.03281224 3.58216423 -94.29296875 6.23046875 C-93.62330078 6.86919922 -92.95363281 7.50792969 -92.26367188 8.16601562 C-91.2359668 9.16665039 -91.2359668 9.16665039 -90.1875 10.1875 C-88.82812334 11.49484311 -87.46744739 12.80083658 -86.10546875 14.10546875 C-85.42983887 14.75306152 -84.75420898 15.4006543 -84.05810547 16.06787109 C-81.37773746 18.58417387 -78.61584746 20.99690874 -75.8371582 23.40356445 C-73.35374797 25.56157369 -70.92639156 27.77824387 -68.5 30 C-65.38092989 32.84524228 -62.25244609 35.6719958 -59.0625 38.4375 C-55.6531142 41.3988351 -52.3220569 44.44152486 -49 47.5 C-45.04137814 51.14414329 -41.0482324 54.73913717 -36.984375 58.265625 C-32.94625309 61.79500714 -28.98085319 65.40634226 -25 69 C-22.50858561 71.24304909 -20.01641063 73.48524596 -17.5234375 75.7265625 C-15.77556329 77.3012727 -14.03098862 78.8796501 -12.2890625 80.4609375 C-11.40992188 81.25757812 -10.53078125 82.05421875 -9.625 82.875 C-8.83351563 83.59429687 -8.04203125 84.31359375 -7.2265625 85.0546875 C-5.23055945 86.79856385 -3.12039738 88.40970196 -1 90 C-0.67 60.3 -0.34 30.6 0 0 Z " fill="#FDFDFD" transform="translate(1140,1)"/>
<path d="M0 0 C43.56 0 87.12 0 132 0 C132 12.54 132 25.08 132 38 C100.98 38 69.96 38 38 38 C38 47.9 38 57.8 38 68 C74.96 68 111.92 68 150 68 C150 80.54 150 93.08 150 106 C100.5 106 51 106 0 106 C0 71.02 0 36.04 0 0 Z " fill="#FDFDFD" transform="translate(178,70)"/>
<path d="M0 0 C3.80982538 1.46673665 5.04877743 3.27211422 6.9609375 6.8203125 C7.78053955 8.31655151 7.78053955 8.31655151 8.61669922 9.84301758 C9.19693848 10.92607178 9.77717773 12.00912598 10.375 13.125 C11.63350006 15.42422719 12.89396566 17.72237947 14.15625 20.01953125 C14.47689423 20.60564682 14.79753845 21.19176239 15.12789917 21.79563904 C18.27133571 27.53077605 21.55865057 33.17617821 24.875 38.8125 C29.95262238 47.46797681 34.96775157 56.15723857 39.9375 64.875 C46.96561901 77.20048783 54.04240601 89.49722356 61.14111328 101.78222656 C63.63731251 106.10320185 66.13091163 110.42567458 68.62426758 114.74829102 C69.86995482 116.90777408 71.11588394 119.06711765 72.36206055 121.22631836 C75.56572841 126.77746892 78.76602683 132.33052286 81.9609375 137.88671875 C83.26551777 140.15370754 84.57020356 142.42063562 85.875 144.6875 C86.49834229 145.77168213 87.12168457 146.85586426 87.76391602 147.97290039 C91.59554242 154.62022659 95.47666598 161.23314928 99.56396484 167.72729492 C101.22341839 170.41769518 102 171.76468929 102 175 C95.45439919 175.33089314 88.91096265 175.55774294 82.35888672 175.71411133 C80.13313246 175.77930823 77.90793135 175.86789945 75.68408203 175.98071289 C57.29306268 176.88997805 57.29306268 176.88997805 51.96533203 172.4987793 C49.84170981 169.08337672 48.41686851 165.75951471 47 162 C45.84280971 159.87109974 44.65283566 157.75967003 43.4296875 155.66796875 C42.24248127 153.50908141 41.05765353 151.34888469 39.875 149.1875 C35.05548219 140.42904276 30.13875085 131.73805449 25.0625 123.125 C19.84844597 114.26733655 14.81867586 105.3226179 9.875 96.3125 C5.22627824 87.84029136 0.55408228 79.38559744 -4.25 71 C-4.71954102 70.17532227 -5.18908203 69.35064453 -5.67285156 68.50097656 C-8.21639542 64.04845645 -10.81638404 59.63783923 -13.4765625 55.25390625 C-14.0447168 54.30193359 -14.61287109 53.34996094 -15.19824219 52.36914062 C-16.28873676 50.54381656 -17.39539284 48.72801843 -18.52050781 46.92382812 C-19.24898926 45.6950293 -19.24898926 45.6950293 -19.9921875 44.44140625 C-20.42901855 43.72670166 -20.86584961 43.01199707 -21.31591797 42.27563477 C-22.59865058 38.00855746 -20.37188163 34.69453873 -18.36767578 30.95141602 C-17.41610596 29.36864868 -17.41610596 29.36864868 -16.4453125 27.75390625 C-16.10249237 27.17970444 -15.75967224 26.60550262 -15.40646362 26.01390076 C-14.31807127 24.19344731 -13.22182049 22.37788534 -12.125 20.5625 C-11.39658515 19.34863733 -10.66871581 18.13444713 -9.94140625 16.91992188 C-8.56187801 14.61634329 -7.18053517 12.31389787 -5.79785156 10.01220703 C-3.82011622 6.69861406 -1.89203809 3.36307294 0 0 Z " fill="#FDFDFD" transform="translate(692,1)"/>
<path d="M0 0 C46.86 0 93.72 0 142 0 C142 12.87 142 25.74 142 39 C95.14 39 48.28 39 0 39 C0 26.13 0 13.26 0 0 Z " fill="#FDFDFD" transform="translate(178,1)"/>
<path d="M0 0 C0.66 0 1.32 0 2 0 C2.62660522 1.13260254 2.62660522 1.13260254 3.26586914 2.28808594 C4.85088523 5.15148191 6.43713788 8.01418605 8.02416992 10.87646484 C8.70433616 12.10373871 9.38404105 13.3312684 10.06323242 14.55908203 C10.72306575 15.75176374 11.38366007 16.94402475 12.04501343 18.13586426 C12.70602698 19.32819458 13.36473478 20.52180606 14.02114868 21.7166748 C15.6481142 24.65906461 17.3264218 27.51490624 19.12841797 30.35742188 C19.78600098 31.39962891 20.44358398 32.44183594 21.12109375 33.515625 C21.72236084 34.43118164 22.32362793 35.34673828 22.94311523 36.29003906 C24 39 24 39 23.38012695 41.97827148 C21.9843341 45.03429982 20.48458788 47.92665877 18.796875 50.83203125 C18.15314941 51.94795654 17.50942383 53.06388184 16.84619141 54.21362305 C16.14746201 55.41324932 15.44873151 56.61287496 14.75 57.8125 C13.29187057 60.33455454 11.83750791 62.85877612 10.3828125 65.3828125 C10.01461395 66.02045029 9.64641541 66.65808807 9.26705933 67.31504822 C5.65836684 73.57173925 2.13724118 79.87623511 -1.375 86.1875 C-5.45312062 93.49881879 -9.5704695 100.78234408 -13.8125 108 C-14.43487549 109.05997192 -14.43487549 109.05997192 -15.06982422 110.14135742 C-17.86733227 114.86733227 -17.86733227 114.86733227 -19 116 C-20.47354348 116.09304018 -21.95150591 116.11746265 -23.42797852 116.11352539 C-24.36887833 116.11344986 -25.30977814 116.11337433 -26.27919006 116.11329651 C-27.30209641 116.10813522 -28.32500275 116.10297394 -29.37890625 116.09765625 C-30.42070541 116.0962413 -31.46250458 116.09482635 -32.53587341 116.09336853 C-35.87811094 116.0877508 -39.22028257 116.0751953 -42.5625 116.0625 C-44.82226466 116.05748728 -47.08203037 116.05292398 -49.34179688 116.04882812 C-54.89455391 116.03777561 -60.44727225 116.02102024 -66 116 C-64.79144199 112.08052503 -63.40287385 108.66965476 -61.3046875 105.1484375 C-60.76207275 104.22949707 -60.21945801 103.31055664 -59.66040039 102.36376953 C-58.7766272 100.88432861 -58.7766272 100.88432861 -57.875 99.375 C-56.59906743 97.21424569 -55.32437705 95.05275748 -54.05078125 92.890625 C-53.3851416 91.76205078 -52.71950195 90.63347656 -52.03369141 89.47070312 C-48.6548775 83.72054675 -45.36251559 77.92058131 -42.0625 72.125 C-40.71147405 69.75490212 -39.35978954 67.38518046 -38.0078125 65.015625 C-37.50698906 64.13777344 -37.50698906 64.13777344 -36.99604797 63.2421875 C-32.27973422 54.98025741 -27.51819117 46.74440403 -22.7578125 38.5078125 C-20.469827 34.54881279 -18.18671461 30.58709306 -15.91020203 26.62149048 C-14.54156986 24.23750164 -13.17146192 21.85436236 -11.80130005 19.47125244 C-10.84000745 17.79788357 -9.88078834 16.12332408 -8.92163086 14.44873047 C-2.61881341 3.49175122 -2.61881341 3.49175122 0 0 Z " fill="#FDFDFD" transform="translate(657,60)"/>
<path d="M0 0 C3.62140464 1.81070232 5.65787249 3.34928122 8.5625 6.0625 C12.12296928 9.33018473 15.7393292 12.46479193 19.5 15.5 C23.97120755 19.11864679 28.27345192 22.87793615 32.515625 26.76171875 C34.78462997 28.93357681 34.78462997 28.93357681 36.74983215 30.10289001 C39.86333041 32.2353207 41.72173758 33.83231106 42.61599731 37.58494568 C42.81026196 40.80467887 42.78682497 43.95567943 42.68359375 47.1796875 C42.67368912 48.3475882 42.66378448 49.51548889 42.65357971 50.71878052 C42.61448158 54.43881263 42.52665737 58.155864 42.4375 61.875 C42.40238072 64.40099897 42.37044281 66.92704432 42.34179688 69.453125 C42.27068897 75.63748078 42.13370926 81.81541614 42 88 C28.14 88 14.28 88 0 88 C0 58.96 0 29.92 0 0 Z " fill="#FDFDFD" transform="translate(1037,88)"/>
<path d="M0 0 C5.69889851 3.40018314 10.52016894 8.35914473 12.90234375 14.6640625 C14.55552726 22.61573855 14.66157884 31.71881878 10.76953125 39.0078125 C6.47676362 44.94794473 1.25144435 48.49190264 -5.625 50.9375 C-8.37430237 51.21820955 -10.82914908 51.3691311 -13.5625 51.3125 C-14.26616699 51.30307373 -14.96983398 51.29364746 -15.69482422 51.28393555 C-22.97568432 51.07207653 -28.67131507 49.59754056 -34.2421875 44.58984375 C-39.91899477 37.80654015 -42.19602223 29.64558893 -41.625 20.9375 C-39.97926054 12.89022279 -37.19813417 6.75039286 -30.6875 1.625 C-21.71116241 -3.3211452 -9.47279814 -4.37649033 0 0 Z M-27 15 C-29.43925261 19.76576666 -29.37691341 24.72781425 -28.625 29.9375 C-27.31396001 33.9369085 -25.08521348 36.51015891 -22 39.375 C-17.41014279 41.4999339 -13.59988119 41.71533159 -8.625 40.9375 C-3.76240096 38.77634487 -1.41951317 35.89860335 0.6796875 31.14453125 C2.39754522 25.69178063 2.05292403 20.84044561 -0.25 15.625 C-2.4323849 11.82855959 -4.54736735 9.74978118 -8.625 7.9375 C-16.80684518 6.65825385 -21.83280948 8.3370438 -27 15 Z " fill="#FBFBFB" transform="translate(602.625,233.0625)"/>
<path d="M0 0 C6.4040625 -0.0928125 6.4040625 -0.0928125 12.9375 -0.1875 C14.26515381 -0.21481201 15.59280762 -0.24212402 16.96069336 -0.27026367 C32.25017497 -0.37694248 32.25017497 -0.37694248 37.61303711 4.45263672 C41.92393069 9.45633893 42.28126389 12.83776919 42.22265625 19.234375 C41.86696335 23.6524552 40.22483048 26.53020343 37.4375 29.875 C36 31 36 31 34 31 C34.89535257 32.64609493 35.79131399 34.29185868 36.6875 35.9375 C37.23019531 36.93523437 37.77289062 37.93296875 38.33203125 38.9609375 C40.22170475 42.40394917 42.1593557 45.81799907 44.1171875 49.22265625 C45 51 45 51 45 53 C40.87810616 53.54024822 37.10349731 53.75659874 33 53 C29.41375053 49.90766513 27.72797338 45.73289315 25.921875 41.43359375 C24.78472603 38.9390733 23.87244163 37.01130692 22 35 C18.14458749 33.90235423 15.07106421 33.95095103 11 34 C11 40.27 11 46.54 11 53 C7.37 53 3.74 53 0 53 C0 35.51 0 18.02 0 0 Z M11 10 C11 14.62 11 19.24 11 24 C13.41734542 24.08117951 15.83194949 24.14056926 18.25 24.1875 C18.93191406 24.21263672 19.61382813 24.23777344 20.31640625 24.26367188 C23.45825029 24.30942689 25.64004051 24.19829755 28.41796875 22.66796875 C30.80044566 20.15607335 31.06862499 18.43124963 31 15 C29.04555686 12.16372326 29.04555686 12.16372326 26 10 C23.1612599 9.63228755 20.98179849 9.51369196 18.1875 9.6875 C17.49462891 9.71005859 16.80175781 9.73261719 16.08789062 9.75585938 C14.39098427 9.81437339 12.69520139 9.9040452 11 10 Z " fill="#FCFCFC" transform="translate(679,231)"/>
<path d="M0 0 C12.87 0 25.74 0 39 0 C39 3.3 39 6.6 39 10 C30.09 10 21.18 10 12 10 C12 13.63 12 17.26 12 21 C20.25 21 28.5 21 37 21 C37 24.3 37 27.6 37 31 C28.75 31 20.5 31 12 31 C12 34.96 12 38.92 12 43 C21.24 43 30.48 43 40 43 C40 46.3 40 49.6 40 53 C26.8 53 13.6 53 0 53 C0 35.51 0 18.02 0 0 Z " fill="#FDFDFD" transform="translate(255,231)"/>
<path d="M0 0 C4.475625 -0.04125 8.95125 -0.0825 13.5625 -0.125 C14.96056885 -0.14320801 16.3586377 -0.16141602 17.79907227 -0.18017578 C31.34859603 -0.24063425 31.34859603 -0.24063425 37.75 3.6875 C41.60814154 7.65281214 42.83278708 11.49508374 43.4375 16.9375 C43.23189924 21.54116913 41.68311425 25.276663 39 29 C32.90450916 34.05796048 27.33602362 34.15066517 19.6875 34.0625 C17.150625 34.041875 14.61375 34.02125 12 34 C12 40.27 12 46.54 12 53 C8.04 53 4.08 53 0 53 C0 35.51 0 18.02 0 0 Z M12 10 C12 14.62 12 19.24 12 24 C14.4178712 24.10826289 16.83087556 24.18739789 19.25 24.25 C19.93191406 24.28351563 20.61382812 24.31703125 21.31640625 24.3515625 C24.78011666 24.41881901 26.6403231 24.26803947 29.453125 22.171875 C31.55748367 19.2172704 31.59194451 17.55166708 31 14 C29.51365801 11.67835292 29.51365801 11.67835292 27 10 C24.26317029 9.7088479 21.96059961 9.61677582 19.25 9.75 C18.55261719 9.76804688 17.85523438 9.78609375 17.13671875 9.8046875 C15.42388461 9.85161446 13.71176176 9.92335395 12 10 Z " fill="#FBFBFB" transform="translate(458,231)"/>
<path d="M0 0 C1.92578125 1.16796875 1.92578125 1.16796875 3.92578125 4.16796875 C2.27578125 6.47796875 0.62578125 8.78796875 -1.07421875 11.16796875 C-1.83734375 10.85859375 -2.60046875 10.54921875 -3.38671875 10.23046875 C-6.92362376 8.83215747 -9.78313559 7.99379041 -13.57421875 7.91796875 C-14.34765625 7.8921875 -15.12109375 7.86640625 -15.91796875 7.83984375 C-18.56252713 8.24227655 -19.40662677 9.13692724 -21.07421875 11.16796875 C-20.42446575 14.20566201 -20.42446575 14.20566201 -18.40356445 15.16357422 C-17.69288818 15.45119629 -16.98221191 15.73881836 -16.25 16.03515625 C-15.46818359 16.36386719 -14.68636719 16.69257813 -13.88085938 17.03125 C-13.05779297 17.36511719 -12.23472656 17.69898438 -11.38671875 18.04296875 C1.41458711 23.23740401 1.41458711 23.23740401 5.36328125 29.41796875 C6.52988328 35.12135647 5.90899488 39.60639417 2.80078125 44.54296875 C-3.81605947 50.58443201 -9.62512204 50.69621908 -18.39453125 50.53125 C-24.61864577 49.91676736 -28.9599506 47.57748085 -34.07421875 44.16796875 C-32.70267371 41.21387174 -31.08558151 38.72788499 -29.07421875 36.16796875 C-23.32421875 38.04296875 -23.32421875 38.04296875 -21.07421875 39.16796875 C-19.2647338 39.28973378 -17.45025604 39.34342667 -15.63671875 39.35546875 C-14.66863281 39.36964844 -13.70054687 39.38382812 -12.703125 39.3984375 C-9.84155148 39.35946326 -9.84155148 39.35946326 -7.07421875 37.16796875 C-7.07421875 35.84796875 -7.07421875 34.52796875 -7.07421875 33.16796875 C-8.77578125 32.53181641 -8.77578125 32.53181641 -10.51171875 31.8828125 C-29.34510356 24.62619914 -29.34510356 24.62619914 -33.07421875 17.16796875 C-33.73553754 11.84489459 -33.48801801 7.20299013 -30.4453125 2.67578125 C-22.64297396 -5.90456826 -9.68119267 -4.13550129 0 0 Z " fill="#FBFBFB" transform="translate(390.07421875,233.83203125)"/>
<path d="M0 0 C1.26339202 0.66256837 2.51690738 1.34511668 3.75 2.0625 C4.41 2.3925 5.07 2.7225 5.75 3.0625 C5.21930939 6.88347239 4.25298434 9.12421403 1.75 12.0625 C0.986875 11.753125 0.22375 11.44375 -0.5625 11.125 C-4.12181074 9.71783064 -6.93671809 8.90677735 -10.75 8.875 C-11.5234375 8.86082031 -12.296875 8.84664062 -13.09375 8.83203125 C-15.54680056 8.92588472 -15.54680056 8.92588472 -18.25 11.0625 C-18.01453527 13.00790355 -18.01453527 13.00790355 -17.25 15.0625 C-15.71876739 16.27148185 -15.71876739 16.27148185 -13.75 17.0625 C-13.02941406 17.39507812 -12.30882812 17.72765625 -11.56640625 18.0703125 C-10.0384148 18.72479788 -8.50455659 19.36577441 -6.96484375 19.9921875 C-1.2959783 22.34530146 4.880864 25.324228 7.75 31.0625 C8.47987361 35.52468182 8.69691914 39.44606901 6.36328125 43.4296875 C2.21518608 48.34261583 -1.13992361 50.75682392 -7.66796875 51.3984375 C-15.60832111 51.48072094 -22.26165923 51.0936692 -29.25 47.0625 C-29.91 46.4025 -30.57 45.7425 -31.25 45.0625 C-30.91306057 41.69310567 -29.36180592 39.63339417 -27.25 37.0625 C-25.01560626 37.55903194 -23.05515109 38.1491364 -20.95703125 39.08203125 C-18.01891987 40.14619569 -15.74038941 40.36212649 -12.625 40.375 C-11.21347656 40.40013672 -11.21347656 40.40013672 -9.7734375 40.42578125 C-6.88187653 40.0095039 -6.02449192 39.31932026 -4.25 37.0625 C-4.9062977 33.9837313 -4.9062977 33.9837313 -7.12011719 32.9909668 C-8.3213623 32.50623901 -8.3213623 32.50623901 -9.546875 32.01171875 C-10.4234375 31.64240234 -11.3 31.27308594 -12.203125 30.89257812 C-14.05022102 30.13800328 -15.89915543 29.38791113 -17.75 28.64257812 C-23.40681301 26.24835683 -26.86836765 24.25866677 -30.25 19.0625 C-31.85099349 14.94456002 -31.39609353 11.56953049 -30.1875 7.375 C-23.94308812 -3.30092999 -10.8962069 -4.89796923 0 0 Z " fill="#FAFAFA" transform="translate(919.25,232.9375)"/>
<path d="M0 0 C15.51 0 31.02 0 47 0 C47 3.3 47 6.6 47 10 C41.06 10 35.12 10 29 10 C29 24.19 29 38.38 29 53 C25.37 53 21.74 53 18 53 C18 38.81 18 24.62 18 10 C12.06 10 6.12 10 0 10 C0 6.7 0 3.4 0 0 Z " fill="#FDFDFD" transform="translate(781,231)"/>
</svg>
