<?xml version="1.0" encoding="UTF-8"?>
<svg version="1.1" xmlns="http://www.w3.org/2000/svg" width="500" height="500">
<path d="M0 0 C3.06205289 1.32804946 6.07926734 2.71173373 9.0625 4.20703125 C9.76181641 4.55749512 10.46113281 4.90795898 11.18164062 5.26904297 C18.54510897 9.03320403 25.57801401 13.30892894 32.63671875 17.609375 C38.50338551 21.17996654 44.43569515 24.63403305 50.375 28.08203125 C58.12215207 32.58018009 65.82882779 37.12848471 73.453125 41.83203125 C76.47214797 43.62204368 79.58968695 45.16546648 82.73828125 46.71484375 C88.98728764 49.80683542 94.99745329 53.22699679 101 56.76953125 C102.58119629 57.69741455 102.58119629 57.69741455 104.19433594 58.64404297 C117.8572062 66.68263933 117.8572062 66.68263933 122.48339844 69.84570312 C125.22830093 71.5808231 127.88027595 72.50136423 130.98413086 73.43457031 C137.26062984 75.67380999 142.27445077 78.24746502 146.0625 83.89453125 C150.10374528 95.82630758 148.36800888 110.23817304 147.9576416 122.61401367 C147.81978596 127.46074918 147.8022035 132.30787093 147.77148438 137.15625 C147.70844918 144.21616833 147.60514377 151.27319717 147.40161133 158.33056641 C147.38313644 159.07128387 147.36466156 159.81200134 147.34562683 160.57516479 C147.18110183 165.65732758 147.18110183 165.65732758 146.0625 167.89453125 C141.69119555 167.31511085 138.73797949 165.71112724 135.01171875 163.39453125 C134.43982819 163.04249634 133.86793762 162.69046143 133.27871704 162.32775879 C132.06020709 161.57689744 130.84369903 160.82277914 129.62905884 160.06567383 C126.48846307 158.1082655 123.33376226 156.17386815 120.1796875 154.23828125 C119.5624733 153.85877319 118.94525909 153.47926514 118.30934143 153.08825684 C112.19347514 149.33854825 105.96329447 145.81573283 99.67578125 142.36328125 C97.0625 140.89453125 97.0625 140.89453125 96.0625 139.89453125 C96.07554151 137.98612404 96.14527923 136.07805936 96.23828125 134.171875 C97.12633173 122.14933087 97.12633173 122.14933087 93.85498047 110.96386719 C90.70808245 108.14251035 86.92983631 106.8617402 82.95703125 105.57958984 C79.96275478 104.49686565 77.4608459 102.76595323 74.8125 101.01953125 C67.44752187 96.44662259 59.86574883 92.28991816 52.27197266 88.11181641 C39.98003417 81.33970532 27.84185586 74.30910132 15.7265625 67.2265625 C14.78200195 66.67822754 13.83744141 66.12989258 12.86425781 65.56494141 C10.97063015 64.43595914 9.10008734 63.26747441 7.25292969 62.06396484 C5.93276855 61.2124585 5.93276855 61.2124585 4.5859375 60.34375 C3.80911621 59.82514404 3.03229492 59.30653809 2.23193359 58.7722168 C0.12620368 57.64855719 0.12620368 57.64855719 -1.82397461 58.51489258 C-2.52143799 58.97017334 -3.21890137 59.4254541 -3.9375 59.89453125 C-4.90937256 60.44367188 -5.88124512 60.9928125 -6.88256836 61.55859375 C-8.00284424 62.20570313 -9.12312012 62.8528125 -10.27734375 63.51953125 C-11.51750539 64.23319932 -12.75774209 64.94673698 -13.99804688 65.66015625 C-15.9385752 66.77786913 -17.87851534 67.89656401 -19.81713867 69.01757812 C-21.69802408 70.10451355 -23.58124662 71.18730368 -25.46484375 72.26953125 C-26.58624756 72.91664063 -27.70765137 73.56375 -28.86303711 74.23046875 C-31.52363017 75.67052293 -34.12432392 76.80234629 -36.9375 77.89453125 C-37.36936731 91.99392576 -37.65931457 106.09028729 -37.7898407 120.19581795 C-37.85453366 126.74767639 -37.96323546 133.29243169 -38.17529297 139.84130859 C-38.37859859 146.17131695 -38.46266149 152.49306928 -38.46673584 158.8262291 C-38.48873396 161.23250291 -38.5525689 163.63879359 -38.66021729 166.04275894 C-39.20425275 177.2996102 -39.20425275 177.2996102 -35.9375 187.89453125 C-29.98242054 193.87141033 -22.36129646 197.30324665 -14.71740723 200.63799667 C-11.19418771 202.23051282 -8.09787268 204.14081451 -4.875 206.26953125 C-0.6311674 208.91634264 3.69322309 211.33087872 8.125 213.64453125 C14.05576729 216.74822498 19.82765455 220.06758135 25.5625 223.51953125 C26.38838623 224.01509521 27.21427246 224.51065918 28.06518555 225.02124023 C32.82826565 227.89484899 37.54764601 230.82818597 42.2421875 233.8125 C43.27408203 234.4607373 44.30597656 235.10897461 45.36914062 235.77685547 C47.37952452 237.04150339 49.38125725 238.32003392 51.37304688 239.61376953 C52.28892578 240.18724121 53.20480469 240.76071289 54.1484375 241.3515625 C54.9532959 241.8669458 55.7581543 242.3823291 56.58740234 242.91333008 C59.91006886 244.23053236 61.63968584 243.88050608 65.0625 242.89453125 C67.37752355 241.70226253 69.51280835 240.49761598 71.703125 239.11328125 C72.31138123 238.73973511 72.91963745 238.36618896 73.54632568 237.98132324 C75.47413921 236.79475721 77.39336631 235.5950742 79.3125 234.39453125 C80.61662519 233.58763214 81.92130776 232.78163315 83.2265625 231.9765625 C85.06003501 230.84566423 86.89257534 229.71351895 88.72076416 228.57409668 C90.8067354 227.27466464 92.86291972 225.99432139 95.0625 224.89453125 C95.0625 222.58453125 95.0625 220.27453125 95.0625 217.89453125 C94.46115234 217.57403809 93.85980469 217.25354492 93.24023438 216.92333984 C74.31744166 206.81473535 55.66431101 196.29469025 37.453125 184.94921875 C29.42858178 180.08641952 21.22409597 175.5222403 13.0625 170.89453125 C10.92641169 169.6826726 8.79059256 168.47036106 6.65600586 167.25585938 C4.93309594 166.27564205 3.20878735 165.29788429 1.484375 164.3203125 C-0.9375 162.89453125 -0.9375 162.89453125 -1.9375 161.89453125 C-2.03115006 160.14524405 -2.05494438 158.39216871 -2.05102539 156.64038086 C-2.05091209 154.95875099 -2.05091209 154.95875099 -2.05079651 153.2431488 C-2.04305458 151.41349327 -2.04305458 151.41349327 -2.03515625 149.546875 C-2.0337413 148.30531143 -2.03232635 147.06374786 -2.03086853 145.78456116 C-2.02620591 142.47847634 -2.01721497 139.17245979 -2.00616455 135.86639404 C-1.99594827 132.49491975 -1.99137045 129.12343842 -1.98632812 125.75195312 C-1.97527395 119.1327935 -1.95851736 112.51366632 -1.9375 105.89453125 C1.0625 104.89453125 1.0625 104.89453125 3.61523438 106.046875 C4.61876953 106.63597656 5.62230469 107.22507812 6.65625 107.83203125 C7.77 108.48042969 8.88375 109.12882812 10.03125 109.796875 C11.20836883 110.49603399 12.38545201 111.19525301 13.5625 111.89453125 C15.2640625 112.88646484 15.2640625 112.88646484 17 113.8984375 C22.25366732 116.97713475 27.43836466 120.11902575 32.53125 123.45703125 C37.67047815 126.7679162 43.03614037 129.42601871 48.5234375 132.10839844 C54.19976628 134.9731902 59.61921816 138.23892597 65.0625 141.51953125 C66.23526064 142.2207755 67.40836311 142.92144838 68.58178711 143.62158203 C70.94764709 145.03387819 73.31214514 146.44840477 75.67529297 147.86523438 C87.66612702 155.0490179 99.66800677 162.19264785 111.91796875 168.92700195 C119.03648832 172.85092697 126.08288317 176.89825654 133.125 180.95703125 C133.71269165 181.29498718 134.3003833 181.63294312 134.90588379 181.98114014 C136.57500208 182.94137214 138.24261319 183.90422254 139.91015625 184.8671875 C140.87961182 185.42672119 141.84906738 185.98625488 142.84790039 186.56274414 C145.0625 187.89453125 145.0625 187.89453125 146.0625 188.89453125 C146.22486772 190.87520516 146.31721112 192.86164948 146.38232422 194.84790039 C146.42420868 196.1233522 146.46609314 197.39880402 146.50924683 198.71290588 C146.6470778 203.80359364 146.74472888 208.89500059 146.81818962 213.98700809 C146.87473075 217.85175317 146.95605492 221.71232494 147.09814453 225.57495117 C147.23502607 229.31131597 147.30708794 233.04390643 147.33484268 236.78262138 C147.35623693 238.20278256 147.40012886 239.62280015 147.467556 241.04152107 C147.67446128 245.60703123 147.60411273 249.57054654 146.0625 253.89453125 C142.10099348 257.57372879 137.97822025 259.62756588 133.0625 261.89453125 C131.23873412 262.93757511 129.42400589 263.99683988 127.625 265.08203125 C126.15160156 265.93474609 126.15160156 265.93474609 124.6484375 266.8046875 C121.83027625 268.44027147 119.02711054 270.10006996 116.2265625 271.765625 C105.60203123 278.08134545 94.93623456 284.30820482 84.14550781 290.33666992 C79.95726396 292.67764813 75.79322598 295.03009262 71.71484375 297.55859375 C71.07611328 297.94813232 70.43738281 298.3376709 69.77929688 298.73901367 C68.14436557 299.74334785 66.5226508 300.76911404 64.90234375 301.796875 C62.0625 302.89453125 62.0625 302.89453125 59.37890625 302.4609375 C54.48347017 300.14872329 49.77502574 297.55728771 45.0625 294.89453125 C44.00546875 294.3025293 42.9484375 293.71052734 41.859375 293.10058594 C38.42055666 291.16826871 34.98921116 289.22320619 31.5625 287.26953125 C30.9503363 286.92070892 30.33817261 286.5718866 29.7074585 286.2124939 C21.32637329 281.42818111 13.07416626 276.48617326 4.95214844 271.27197266 C-7.00548819 263.61022771 -19.21430661 256.26964607 -31.8125 249.70703125 C-37.37028262 246.8116371 -42.66395603 243.62876437 -47.94335938 240.25512695 C-56.5648424 234.78832294 -65.42871494 229.72168418 -74.26220703 224.60766602 C-75.49512576 223.8908025 -76.72803627 223.17392486 -77.9609375 222.45703125 C-79.06356934 221.81894531 -80.16620117 221.18085938 -81.30224609 220.5234375 C-83.9375 218.89453125 -83.9375 218.89453125 -85.9375 216.89453125 C-86.18359566 214.00909996 -86.18359566 214.00909996 -86.17800903 210.23812866 C-86.17971788 209.54629946 -86.18142673 208.85447026 -86.18318737 208.14167655 C-86.18649429 205.81228345 -86.17545905 203.48317536 -86.16455078 201.15380859 C-86.16398693 199.4885102 -86.16430272 197.82321131 -86.16543579 196.15791321 C-86.16601131 191.62714116 -86.1542249 187.09647429 -86.14028788 182.56572676 C-86.12781359 177.8344828 -86.12661263 173.10323662 -86.12423706 168.37197876 C-86.11801256 159.4082407 -86.10158865 150.44455123 -86.08153808 141.4808346 C-86.05920922 131.27784526 -86.04819324 121.07485364 -86.03814721 110.87184596 C-86.01722324 89.87938057 -85.98202847 68.88695897 -85.9375 47.89453125 C-85.1710477 47.46965518 -85.1710477 47.46965518 -84.38911152 47.03619576 C-82.04144255 45.73442046 -79.69418084 44.43191247 -77.34692383 43.12939453 C-76.54329659 42.68392776 -75.73966934 42.238461 -74.91168976 41.77949524 C-68.43705159 38.18559964 -62.01409757 34.51373556 -55.625 30.76953125 C-54.59576416 30.16826416 -53.56652832 29.56699707 -52.50610352 28.94750977 C-47.42246896 25.96927978 -42.36963444 22.95698111 -37.375 19.83203125 C-31.34820489 16.07549229 -25.18096972 12.57800271 -19 9.08203125 C-18.00347412 8.51798584 -17.00694824 7.95394043 -15.98022461 7.37280273 C-13.30613801 5.86736921 -10.62313582 4.37922467 -7.9375 2.89453125 C-6.80183594 2.25128906 -5.66617188 1.60804687 -4.49609375 0.9453125 C-1.9375 -0.10546875 -1.9375 -0.10546875 0 0 Z " fill="#DA0000" transform="translate(252.9375,80.10546875)"/>
<path d="M0 0 C0.99 0.33 1.98 0.66 3 1 C2.98007681 2.28214827 2.98007681 2.28214827 2.95975113 3.59019852 C2.64294809 24.42375571 2.43754671 45.25584258 2.35490799 66.09169388 C2.31227794 76.16830745 2.23246949 86.24202307 2.06396484 96.31738281 C1.9171228 105.10319178 1.84122935 113.88631982 1.84919715 122.67340159 C1.85097076 127.3242491 1.81814314 131.9688442 1.70020294 136.61832428 C0.38664065 154.9528514 0.38664065 154.9528514 5.95582581 171.702528 C10.60078577 175.88757153 15.70563527 178.22075969 21.59942055 180.15737057 C25.03823578 181.36443202 27.85901418 183.12619535 30.9375 185.06640625 C32.95700593 186.23406963 34.97782597 187.39946339 37 188.5625 C38.64524658 189.51080688 38.64524658 189.51080688 40.32373047 190.47827148 C47.66960992 194.69843808 55.06902146 198.80789557 62.50805664 202.86083984 C77.5992179 211.11962346 92.38988 219.92112647 107 229 C114.28335819 233.51009507 121.54826423 237.86251269 129.25 241.625 C135.39877995 244.63293558 141.59477349 247.75978347 147 252 C147.33 252.99 147.66 253.98 148 255 C138.89871435 260.51327881 129.74492436 265.93546798 120.5625 271.3125 C119.54478516 271.91078613 118.52707031 272.50907227 117.47851562 273.12548828 C114.66316988 274.77023804 111.83656803 276.39217573 109 278 C108.23284668 278.44263184 107.46569336 278.88526367 106.67529297 279.34130859 C103.8428701 280.8884972 101.66300511 282.01292214 98.39453125 281.94921875 C87.99210357 277.82558102 78.27579073 271.47856569 68.625 265.875 C67.61526123 265.28952393 66.60552246 264.70404785 65.56518555 264.10083008 C61.13966722 261.51201669 56.77732429 258.89238467 52.54296875 256 C47.13139749 252.33631794 41.41800113 249.25654712 35.6875 246.125 C33.28233028 244.80093156 30.87929797 243.47301097 28.4765625 242.14453125 C27.86214798 241.80509995 27.24773346 241.46566864 26.61470032 241.11595154 C-7.15444543 222.43393492 -7.15444543 222.43393492 -19.47986507 214.47087193 C-23.63475652 211.84023686 -27.53749269 209.71001341 -32.20935059 208.1472168 C-38.21979742 205.8788626 -43.16665707 203.29595698 -47 198 C-50.70882164 186.86743392 -49.8516748 174.4391595 -49.68651009 162.85050583 C-49.63555085 158.15538857 -49.68292133 153.4610208 -49.7142334 148.76586914 C-49.75053303 140.88315963 -49.70292187 133.00420783 -49.60742188 125.12207031 C-49.49856016 116.03267283 -49.53382546 106.95224496 -49.64394999 97.86306477 C-49.73498353 90.03347389 -49.7473947 82.20656989 -49.6951766 74.37662029 C-49.66413207 69.71134769 -49.65941956 65.0502796 -49.72590637 60.38528442 C-50.07374821 32.19207844 -50.07374821 32.19207844 -45.01679802 25.29524422 C-40.36127151 21.121893 -35.25972614 18.77131391 -29.36527061 16.83004189 C-26.04897356 15.66625731 -23.36244292 13.98506549 -20.41015625 12.08984375 C-18.62803639 11.03832961 -16.84550756 9.9875082 -15.0625 8.9375 C-13.24079974 7.86342655 -11.41918216 6.78921285 -9.59765625 5.71484375 C-8.82945557 5.26230225 -8.06125488 4.80976074 -7.26977539 4.34350586 C-5.61763389 3.36558452 -3.99787508 2.33232451 -2.40014648 1.26782227 C-1.60809814 0.84944092 -0.8160498 0.43105957 0 0 Z " fill="#F8F8F8" transform="translate(153,136)"/>
<path d="M0 0 C1.87755009 0.91143208 3.75192223 1.8294119 5.625 2.75 C6.66914063 3.26046875 7.71328125 3.7709375 8.7890625 4.296875 C9.84867187 4.85890625 10.90828125 5.4209375 12 6 C13.03995621 6.53116425 14.07991241 7.06232849 15.15138245 7.60958862 C18 10 18 10 18.76622009 13.58059692 C18.80428457 15.03648893 18.8095178 16.49346462 18.78881836 17.94970703 C18.80717239 19.14545349 18.80717239 19.14545349 18.82589722 20.36535645 C18.85906324 22.99678072 18.84984372 25.62622692 18.83984375 28.2578125 C18.85363388 30.08578469 18.86990845 31.9137397 18.88856506 33.7416687 C18.93031547 38.55131757 18.93543331 43.36036385 18.93383789 48.17016602 C18.93871228 52.1031503 18.96958788 56.0357277 19.00185299 59.9685688 C19.03980243 64.64827375 19.06659321 69.32801366 19.08984375 74.0078125 C19.0944908 74.90439701 19.09913784 75.80098152 19.1039257 76.72473526 C19.1142376 79.25288465 19.1170396 81.78091408 19.11694336 84.30908203 C19.12222298 85.43901077 19.12222298 85.43901077 19.12760925 86.59176636 C19.11531234 91.76937533 19.11531234 91.76937533 18 94 C13.50651855 93.43220312 10.17088553 91.56381804 6.38671875 89.21875 C5.77230423 88.84520386 5.15788971 88.47165771 4.52485657 88.08679199 C3.23438827 87.30015277 1.94610439 86.50992003 0.65991211 85.71630859 C-1.31858387 84.49624832 -3.30411144 83.28833967 -5.29101562 82.08203125 C-6.54469845 81.31580339 -7.79796882 80.54890016 -9.05078125 79.78125 C-9.6475618 79.41769409 -10.24434235 79.05413818 -10.85920715 78.67956543 C-12.25707367 77.8141844 -13.63144523 76.91102852 -15 76 C-15 75.67 -15 75.34 -15 75 C-12.125 74.875 -12.125 74.875 -9 75 C-7 77 -7 77 -6 79 C-4.68 79 -3.36 79 -2 79 C-1.67 79.66 -1.34 80.32 -1 81 C0.64363134 81.72159424 2.31050386 82.39351421 4 83 C4 83.66 4 84.32 4 85 C5.32 85 6.64 85 8 85 C8 85.66 8 86.32 8 87 C10.475 86.505 10.475 86.505 13 86 C13.12375 86.639375 13.2475 87.27875 13.375 87.9375 C13.58125 88.618125 13.7875 89.29875 14 90 C14.66 90.33 15.32 90.66 16 91 C16 64.6 16 38.2 16 11 C15.01 11 14.02 11 13 11 C12.34 10.34 11.68 9.68 11 9 C7.61738504 6.11851318 4.0845095 4.64951345 0 3 C0 2.01 0 1.02 0 0 Z " fill="#B80E0F" transform="translate(381,154)"/>
<path d="M0 0 C0 3.18672853 -0.01313646 6.37322064 -0.0269165 9.55992126 C-0.10789981 28.76924107 -0.16810282 47.97852755 -0.20724869 67.1879797 C-0.22789769 77.05694858 -0.25607837 86.92579037 -0.30175781 96.79467773 C-0.3415898 105.40453678 -0.36742338 114.01430377 -0.37635398 122.62425238 C-0.38157288 127.18183244 -0.39385652 131.73914864 -0.42292023 136.29664421 C-0.450031 140.58206552 -0.45845386 144.86711376 -0.45243073 149.15261269 C-0.45353272 150.72642417 -0.46151 152.30024791 -0.4768219 153.87398529 C-0.49668886 156.02081583 -0.49195293 158.16623268 -0.48101807 160.31309509 C-0.48470524 161.51490386 -0.48839241 162.71671263 -0.49219131 163.95493984 C0.09870043 167.61063398 1.12805132 168.7454608 4 171 C4.66 171.33 5.32 171.66 6 172 C6 172.66 6 173.32 6 174 C6.99 174.33 7.98 174.66 9 175 C8.34 175.33 7.68 175.66 7 176 C3.31323018 174.58247967 0.63957251 172.96517005 -2 170 C-3.36840955 164.63729991 -3.13852037 159.29546928 -3.02172852 153.80517578 C-3.01918855 152.13928872 -3.0206174 150.47339159 -3.02571106 148.80751038 C-3.02829113 144.29266107 -2.97542187 139.77996823 -2.91254544 135.26561975 C-2.85624246 130.54518254 -2.85099375 125.82469457 -2.84031677 121.10397339 C-2.81235521 112.16824833 -2.73851696 103.23351551 -2.64817137 94.29822719 C-2.5475372 84.12429874 -2.49808136 73.95032263 -2.45291245 63.77602029 C-2.3588657 42.85012659 -2.20058664 21.92512583 -2 1 C-1.34 0.67 -0.68 0.34 0 0 Z " fill="#901616" transform="translate(169,127)"/>
<path d="M0 0 C1.98 0 3.96 0 6 0 C-2.44827586 7 -2.44827586 7 -6 7 C-6.22026559 21.18669749 -6.35298986 35.37192869 -6.38603115 49.56034756 C-6.40391021 56.14938121 -6.44946217 62.73577414 -6.55883789 69.32397461 C-6.66342382 75.68556283 -6.69455699 82.04370745 -6.67534065 88.40608406 C-6.6808174 90.82988624 -6.71251411 93.25377888 -6.77114677 95.67687798 C-7.63227015 107.93384758 -7.63227015 107.93384758 -3.44701004 118.93004227 C0.594521 122.35649685 5.01622464 124.31108026 10 126 C8.08203125 126.578125 8.08203125 126.578125 6 127 C4.97591432 126.0246803 3.98165594 125.01801357 3 124 C0.68191636 122.96514123 -1.65175298 121.9644586 -4 121 C-4.99 120.34 -5.98 119.68 -7 119 C-7.36914349 116.97352409 -7.36914349 116.97352409 -7.36076355 114.43161011 C-7.36488754 113.46964722 -7.36901154 112.50768433 -7.3732605 111.51657104 C-7.36247467 110.4577774 -7.35168884 109.39898376 -7.34057617 108.30810547 C-7.34101425 107.19590637 -7.34145233 106.08370728 -7.34190369 104.93780518 C-7.33980722 101.24742307 -7.31643527 97.55749061 -7.29296875 93.8671875 C-7.28737586 91.3141403 -7.28310432 88.76108989 -7.28010559 86.20803833 C-7.26980646 80.16605023 -7.24614246 74.12425629 -7.21605712 68.08234608 C-7.18255144 61.20458167 -7.16603678 54.32680959 -7.15097082 47.44898391 C-7.11959381 33.2992326 -7.06680943 19.14962518 -7 5 C-6.34 5 -5.68 5 -5 5 C-5 4.34 -5 3.68 -5 3 C-3.35 2.67 -1.7 2.34 0 2 C0 1.34 0 0.68 0 0 Z " fill="#C10A08" transform="translate(222,151)"/>
<path d="M0 0 C1.98 0.99 3.96 1.98 6 3 C6.30210937 11.33617388 6.53261205 19.67004007 6.67355824 28.01034546 C6.74123454 31.88403459 6.83286814 35.75396408 6.98071289 39.62548828 C7.1226904 43.36707923 7.19982374 47.10507413 7.23340416 50.84915161 C7.25730583 52.27215244 7.30399678 53.69496994 7.37449074 55.11642456 C7.5921994 59.6911476 7.53866364 63.66431383 6 68 C2.02907003 71.66756624 -2.08077544 73.74145675 -7 76 C-8.40550406 76.83815853 -9.80392689 77.68861395 -11.1875 78.5625 C-12.115625 79.036875 -13.04375 79.51125 -14 80 C-14.66 79.67 -15.32 79.34 -16 79 C-14.02 78.01 -14.02 78.01 -12 77 C-12 76.34 -12 75.68 -12 75 C-11.01 75 -10.02 75 -9 75 C-9 74.01 -9 73.02 -9 72 C-6.03 71.505 -6.03 71.505 -3 71 C-3 70.34 -3 69.68 -3 69 C-1.35 69 0.3 69 2 69 C2 68.34 2 67.68 2 67 C2.66 67 3.32 67 4 67 C4 46.54 4 26.08 4 5 C2.68 4.34 1.36 3.68 0 3 C0 2.01 0 1.02 0 0 Z " fill="#940909" transform="translate(393,266)"/>
<path d="M0 0 C2.475 0.99 2.475 0.99 5 2 C3.68 2.33 2.36 2.66 1 3 C1 20.49 1 37.98 1 56 C4.29754371 57.64877185 6.44004117 58.53158436 10 59 C10.99 58.505 10.99 58.505 12 58 C12 59.32 12 60.64 12 62 C12.66 62.33 13.32 62.66 14 63 C14 63.66 14 64.32 14 65 C8.35010684 63.55130945 3.01984436 61.30274946 -1 57 C-2.26292839 52.72716478 -2.07500527 48.62394755 -1.9140625 44.19921875 C-1.90369965 42.96710159 -1.89333679 41.73498444 -1.88265991 40.4655304 C-1.83898036 36.53759282 -1.73218481 32.6141652 -1.625 28.6875 C-1.58294656 26.02543608 -1.55582774 23.36344234 -1.52734375 20.70117188 C-1.4606635 15.8530408 -1.38381555 11.00588339 -1.25634766 6.15893555 C-1.23142242 5.1844194 -1.20649719 4.20990326 -1.18081665 3.20585632 C-1 1 -1 1 0 0 Z " fill="#5E0708" transform="translate(252,185)"/>
<path d="M0 0 C2.875 -0.125 2.875 -0.125 6 0 C8 2 8 2 9 4 C10.32 4 11.64 4 13 4 C13.33 4.66 13.66 5.32 14 6 C15.64363134 6.72159424 17.31050386 7.39351421 19 8 C19 8.66 19 9.32 19 10 C20.32 10 21.64 10 23 10 C23 10.66 23 11.32 23 12 C24.65 11.67 26.3 11.34 28 11 C28.33 12.98 28.66 14.96 29 17 C29.99 17 30.98 17 32 17 C32 12.38 32 7.76 32 3 C32.33 3 32.66 3 33 3 C33.19441368 5.2910905 33.38033135 7.58290337 33.5625 9.875 C33.71912109 11.78925781 33.71912109 11.78925781 33.87890625 13.7421875 C34 17 34 17 33 19 C28.50651855 18.43220312 25.17088553 16.56381804 21.38671875 14.21875 C20.77230423 13.84520386 20.15788971 13.47165771 19.52485657 13.08679199 C18.23438827 12.30015277 16.94610439 11.50992003 15.65991211 10.71630859 C13.68141613 9.49624832 11.69588856 8.28833967 9.70898438 7.08203125 C8.45530155 6.31580339 7.20203118 5.54890016 5.94921875 4.78125 C5.3524382 4.41769409 4.75565765 4.05413818 4.14079285 3.67956543 C2.74292633 2.8141844 1.36855477 1.91102852 0 1 C0 0.67 0 0.34 0 0 Z " fill="#790506" transform="translate(366,229)"/>
<path d="M0 0 C2.64 0.33 5.28 0.66 8 1 C8 1.66 8 2.32 8 3 C8.99 3 9.98 3 11 3 C11 3.66 11 4.32 11 5 C11.99 5 12.98 5 14 5 C14 5.66 14 6.32 14 7 C16.475 7.99 16.475 7.99 19 9 C19 9.66 19 10.32 19 11 C20.093125 11.103125 21.18625 11.20625 22.3125 11.3125 C26.08456978 12.01576725 26.6431678 12.30647749 29 15 C31.10332891 15.71447643 31.10332891 15.71447643 33 16 C33.495 17.98 33.495 17.98 34 20 C27.88062929 17.73420215 22.35956434 14.35428029 16.71484375 11.12304688 C14.74572594 9.99755707 12.77151775 8.8813864 10.796875 7.765625 C9.54655558 7.05264319 8.29654443 6.33912046 7.046875 5.625 C5.91088867 4.97789062 4.77490234 4.33078125 3.60449219 3.6640625 C1 2 1 2 0 0 Z " fill="#920609" transform="translate(255,138)"/>
<path d="M0 0 C4.0358161 0.5889076 6.88921159 1.87471846 10.38671875 3.94921875 C11.40830078 4.55056641 12.42988281 5.15191406 13.48242188 5.77148438 C14.54009766 6.40376953 15.59777344 7.03605469 16.6875 7.6875 C17.72583984 8.30044922 18.76417969 8.91339844 19.83398438 9.54492188 C26.24081575 13.33278519 32.62209391 17.16367218 39 21 C38.01 21.495 38.01 21.495 37 22 C34.71484375 20.92578125 34.71484375 20.92578125 31.9375 19.3125 C27.66890715 16.88933034 23.42598152 14.78913594 18.875 12.95703125 C17 12 17 12 15.5078125 10.484375 C13.72305785 8.72736265 12.24362778 8.20227834 9.875 7.4375 C7.7421875 6.74609375 7.7421875 6.74609375 6 6 C5.67 5.34 5.34 4.68 5 4 C4.01 3.67 3.02 3.34 2 3 C2 2.34 2 1.68 2 1 C1.34 0.67 0.68 0.34 0 0 Z " fill="#6E0606" transform="translate(330,125)"/>
<path d="M0 0 C0.33 0 0.66 0 1 0 C2.19073238 6.56108003 3.29328666 13.59638968 1 20 C-3.74098346 25.28544492 -11.22286978 29.00983704 -18 31 C-18.66 30.67 -19.32 30.34 -20 30 C-18.68 29.34 -17.36 28.68 -16 28 C-16 27.34 -16 26.68 -16 26 C-15.01 26 -14.02 26 -13 26 C-13 25.01 -13 24.02 -13 23 C-11.02 22.67 -9.04 22.34 -7 22 C-7 21.34 -7 20.68 -7 20 C-5.35 20 -3.7 20 -2 20 C-2 19.34 -2 18.68 -2 18 C-1.34 18 -0.68 18 0 18 C0 12.06 0 6.12 0 0 Z " fill="#AB0A0B" transform="translate(397,315)"/>
<path d="M0 0 C1.32 0 2.64 0 4 0 C4.33 0.66 4.66 1.32 5 2 C6.670625 2.4640625 6.670625 2.4640625 8.375 2.9375 C11.9338726 3.98061783 12.65721582 4.44423544 15 7 C16.2375 7.495 16.2375 7.495 17.5 8 C20.06360584 9.02544234 21.13026588 10.04527796 23 12 C23.99 12.33 24.98 12.66 26 13 C26 13.99 26 14.98 26 16 C21.12215803 14.61695335 17.1820355 12.41911105 13 9.625 C12.11441406 9.04492188 12.11441406 9.04492188 11.2109375 8.453125 C10.04149966 7.68552043 8.87475581 6.91379361 7.7109375 6.13769531 C6.55463958 5.36880999 5.39299226 4.60791846 4.2265625 3.85449219 C2.80092542 2.92833007 1.3979327 1.96747172 0 1 C0 0.67 0 0.34 0 0 Z " fill="#810406" transform="translate(248,344)"/>
<path d="M0 0 C0.66 0.33 1.32 0.66 2 1 C1.21753906 1.45890625 0.43507812 1.9178125 -0.37109375 2.390625 C-1.38300781 3.00421875 -2.39492187 3.6178125 -3.4375 4.25 C-4.44683594 4.85328125 -5.45617187 5.4565625 -6.49609375 6.078125 C-9.41752927 7.908041 -9.41752927 7.908041 -10 12 C-13.3 12 -16.6 12 -20 12 C-20 12.66 -20 13.32 -20 14 C-21.32 13.67 -22.64 13.34 -24 13 C-20.56501573 11.01644267 -17.12659767 9.03891556 -13.6875 7.0625 C-12.71103516 6.49853516 -11.73457031 5.93457031 -10.72851562 5.35351562 C-9.79072266 4.81533203 -8.85292969 4.27714844 -7.88671875 3.72265625 C-7.02264404 3.22515869 -6.15856934 2.72766113 -5.26831055 2.21508789 C-3 1 -3 1 0 0 Z M-14 12 C-12 13 -12 13 -12 13 Z " fill="#980405" transform="translate(248,82)"/>
<path d="M0 0 C4.17356405 1.24720208 7.50814545 2.77073328 11.125 5.1875 C16.96262063 9.00965601 22.95007319 12.5263073 29 16 C25.71699532 17.05833703 24.99446362 16.99812159 21.5 15.8125 C18.19021574 14.09850458 16.58105234 12.58105234 14 10 C12.00174671 8.91523393 9.97765379 7.95545745 7.90234375 7.02734375 C5.86954593 5.92954944 4.623062 4.623062 3 3 C2.01 2.67 1.02 2.34 0 2 C0 1.34 0 0.68 0 0 Z " fill="#830407" transform="translate(279,95)"/>
<path d="M0 0 C9.37699257 4.49870708 18.23823196 9.39654369 27 15 C26.01 15.495 26.01 15.495 25 16 C23.33216294 15.03265451 21.66668313 14.06075563 20.01953125 13.05859375 C16.80292511 11.37251974 13.54261487 10.74581366 10 10 C9.67 8.68 9.34 7.36 9 6 C6.03 5.505 6.03 5.505 3 5 C3 4.34 3 3.68 3 3 C2.01 2.67 1.02 2.34 0 2 C0 1.34 0 0.68 0 0 Z " fill="#780606" transform="translate(255,291)"/>
<path d="M0 0 C4.23386593 0.94370705 7.90123459 2.8007177 11.75 4.75 C12.46285156 5.10835938 13.17570312 5.46671875 13.91015625 5.8359375 C18.784604 8.31326195 23.44684068 10.96456045 28 14 C26 15 26 15 23.6171875 14.22265625 C22.71226562 13.83980469 21.80734375 13.45695312 20.875 13.0625 C19.96492188 12.68222656 19.05484375 12.30195312 18.1171875 11.91015625 C17.41851562 11.60980469 16.71984375 11.30945313 16 11 C16 10.34 16 9.68 16 9 C15.01 9 14.02 9 13 9 C12.67 8.34 12.34 7.68 12 7 C9.84211688 6.05431417 7.64787878 5.19047955 5.4375 4.375 C4.23996094 3.92898437 3.04242188 3.48296875 1.80859375 3.0234375 C0.88175781 2.68570313 -0.04507813 2.34796875 -1 2 C-0.67 1.34 -0.34 0.68 0 0 Z " fill="#810709" transform="translate(251,80)"/>
<path d="M0 0 C5.43683334 1.49212776 9.69063815 4.1009183 14.375 7.125 C15.47908203 7.82689453 15.47908203 7.82689453 16.60546875 8.54296875 C18.40730078 9.68958913 20.20416431 10.84401076 22 12 C17.82412255 13.39195915 15.86525224 11.82323219 12 10 C12 9.34 12 8.68 12 8 C9.36 7.67 6.72 7.34 4 7 C4 6.01 4 5.02 4 4 C3.34 4 2.68 4 2 4 C1.34 2.68 0.68 1.36 0 0 Z " fill="#860507" transform="translate(318,223)"/>
<path d="M0 0 C2.99138172 1.45212705 5.96814093 2.9252209 8.9296875 4.4375 C10.64458154 5.31021961 12.3712886 6.16320378 14.1328125 6.9375 C15.75 7.75 15.75 7.75 18 10 C18.48283002 13.39053971 18.3502395 16.60137965 18 20 C16 18 16 18 15.875 14.375 C15.91625 13.26125 15.9575 12.1475 16 11 C15.01 11 14.02 11 13 11 C12.34 10.34 11.68 9.68 11 9 C7.61738504 6.11851318 4.0845095 4.64951345 0 3 C0 2.01 0 1.02 0 0 Z " fill="#95070A" transform="translate(381,154)"/>
<path d="M0 0 C2.97 0.495 2.97 0.495 6 1 C6 1.66 6 2.32 6 3 C6.763125 2.938125 7.52625 2.87625 8.3125 2.8125 C11 3 11 3 12.6875 4.4375 C13.120625 4.953125 13.55375 5.46875 14 6 C14.66 6.33 15.32 6.66 16 7 C16 7.66 16 8.32 16 9 C17.32 9.33 18.64 9.66 20 10 C20 10.66 20 11.32 20 12 C15.37909884 10.35800988 11.36156215 7.9659032 7.1875 5.4375 C6.49462891 5.02564453 5.80175781 4.61378906 5.08789062 4.18945312 C3.37298683 3.15713173 1.68380945 2.08229765 0 1 C0 0.67 0 0.34 0 0 Z " fill="#970608" transform="translate(277,256)"/>
<path d="M0 0 C8.22492784 3.98121507 16.16219859 8.30287788 24 13 C20.83170302 14.05609899 20.01480825 14.13055309 17 13 C15.97803008 12.02246356 14.98020375 11.0194119 14 10 C11.3064109 8.18000736 8.98106117 6.99393957 5.875 6 C3.0637889 5.02218744 1.76439426 4.35252568 0 2 C0 1.34 0 0.68 0 0 Z " fill="#92080B" transform="translate(344,238)"/>
<path d="M0 0 C2.875 -0.125 2.875 -0.125 6 0 C8 2 8 2 9 4 C10.32 4 11.64 4 13 4 C13.33 4.66 13.66 5.32 14 6 C15.64363134 6.72159424 17.31050386 7.39351421 19 8 C16.38798188 9.30600906 14.86499344 8.70083838 12.15234375 7.875 C7.83429295 6.11956737 3.83038612 3.64350591 0 1 C0 0.67 0 0.34 0 0 Z " fill="#A8070A" transform="translate(366,229)"/>
<path d="M0 0 C0.2582959 0.61133789 0.5165918 1.22267578 0.78271484 1.85253906 C2.13480211 4.23780974 3.12940678 5.00677679 5.4765625 6.359375 C6.146875 6.75253906 6.8171875 7.14570313 7.5078125 7.55078125 C8.20648438 7.94652344 8.90515625 8.34226562 9.625 8.75 C10.33140625 9.16121094 11.0378125 9.57242187 11.765625 9.99609375 C13.50498447 11.00680263 15.25179403 12.00467105 17 13 C15.08203125 13.578125 15.08203125 13.578125 13 14 C11.97591432 13.0246803 10.98165594 12.01801357 10 11 C7.68191636 9.96514123 5.34824702 8.9644586 3 8 C2.01 7.34 1.02 6.68 0 6 C-0.1875 2.875 -0.1875 2.875 0 0 Z " fill="#910607" transform="translate(215,264)"/>
<path d="M0 0 C1.65 0 3.3 0 5 0 C5 0.66 5 1.32 5 2 C5.66 2 6.32 2 7 2 C7 11.57 7 21.14 7 31 C6.67 31 6.34 31 6 31 C5.99589111 30.19780029 5.99178223 29.39560059 5.98754883 28.5690918 C5.95469409 24.94114008 5.88405693 21.31488594 5.8125 17.6875 C5.80379883 15.79354492 5.80379883 15.79354492 5.79492188 13.86132812 C5.76591797 12.65283203 5.73691406 11.44433594 5.70703125 10.19921875 C5.68346558 8.52605591 5.68346558 8.52605591 5.65942383 6.8190918 C5.27323523 3.77312587 5.27323523 3.77312587 2.45581055 2.17504883 C1.64539307 1.78728271 0.83497559 1.3995166 0 1 C0 0.67 0 0.34 0 0 Z " fill="#5F0101" transform="translate(343,189)"/>
<path d="M0 0 C3.3 0 6.6 0 10 0 C10.28875 0.78375 10.5775 1.5675 10.875 2.375 C11.84912254 5.09671632 11.84912254 5.09671632 14 7 C13.01 7.495 13.01 7.495 12 8 C9.1796875 6.6015625 9.1796875 6.6015625 5.875 4.625 C4.77929688 3.97789062 3.68359375 3.33078125 2.5546875 2.6640625 C1.71164063 2.11492187 0.86859375 1.56578125 0 1 C0 0.67 0 0.34 0 0 Z " fill="#9B0504" transform="translate(193,312)"/>
<path d="M0 0 C4.34510827 0.65834974 8.05797217 2.06617503 12 4 C12.99 5.485 12.99 5.485 14 7 C14.99 7.33 15.98 7.66 17 8 C17 8.66 17 9.32 17 10 C12.97683781 8.51463956 9.38707358 6.60123107 5.6875 4.4375 C4.61886719 3.81746094 3.55023438 3.19742187 2.44921875 2.55859375 C1.64097656 2.04425781 0.83273437 1.52992188 0 1 C0 0.67 0 0.34 0 0 Z " fill="#800507" transform="translate(311,276)"/>
<path d="M0 0 C4.14032846 1.54385129 7.93553053 3.51028938 11.8125 5.625 C12.40998047 5.94984375 13.00746094 6.2746875 13.62304688 6.609375 C15.08337135 7.40379151 16.54187491 8.20155376 18 9 C18 9.33 18 9.66 18 10 C14.37314539 10.20149192 12.08771148 9.95555061 9 8 C8.54625 7.505 8.0925 7.01 7.625 6.5 C5.3606234 4.40980621 2.92348316 3.8445618 0 3 C0 2.01 0 1.02 0 0 Z " fill="#8E0609" transform="translate(264,192)"/>
<path d="M0 0 C4.04301175 1.48518799 7.61146256 3.42877998 11.3125 5.625 C12.38113281 6.25664062 13.44976562 6.88828125 14.55078125 7.5390625 C15.76314453 8.26222656 15.76314453 8.26222656 17 9 C14 10 14 10 11.66015625 8.85546875 C10.80292969 8.30503906 9.94570312 7.75460937 9.0625 7.1875 C6.09242621 5.30152554 3.17910796 3.51210472 0 2 C0 1.34 0 0.68 0 0 Z " fill="#89080A" transform="translate(232,278)"/>
<path d="M0 0 C2.64 0.33 5.28 0.66 8 1 C8 1.66 8 2.32 8 3 C8.99 3 9.98 3 11 3 C11 3.66 11 4.32 11 5 C11.99 5 12.98 5 14 5 C14 5.66 14 6.32 14 7 C8.39958947 6.57996921 4.411509 4.31423011 0 1 C0 0.67 0 0.34 0 0 Z " fill="#9A0609" transform="translate(255,138)"/>
<path d="M0 0 C4.84659077 0.59104765 8.60748167 1.97944157 13 4 C13 4.99 13 5.98 13 7 C13.99 7.33 14.98 7.66 16 8 C15.01 8.495 15.01 8.495 14 9 C11.54961707 7.75717988 9.226675 6.47117661 6.875 5.0625 C6.21628906 4.67642578 5.55757813 4.29035156 4.87890625 3.89257812 C3.248387 2.93553422 1.62363816 1.96867185 0 1 C0 0.67 0 0.34 0 0 Z " fill="#92090B" transform="translate(330,287)"/>
<path d="M0 0 C2.64 0 5.28 0 8 0 C8 0.66 8 1.32 8 2 C8.66 2 9.32 2 10 2 C10.66 3.65 11.32 5.3 12 7 C7.69235185 5.43358249 3.93828536 3.31663844 0 1 C0 0.67 0 0.34 0 0 Z M10 1 C12 2 12 2 12 2 Z " fill="#AA0709" transform="translate(307,168)"/>
<path d="M0 0 C5.9057882 1.55415479 10.97738893 4.59534467 16 8 C16 8.33 16 8.66 16 9 C12.28400809 9.20086443 11.22791555 9.1519437 8 7 C8 6.34 8 5.68 8 5 C7.01 5 6.02 5 5 5 C5 4.34 5 3.68 5 3 C3.35 2.67 1.7 2.34 0 2 C0 1.34 0 0.68 0 0 Z " fill="#82070B" transform="translate(368,252)"/>
<path d="M0 0 C1.98 0 3.96 0 6 0 C-2.44827586 7 -2.44827586 7 -7 7 C-7 6.34 -7 5.68 -7 5 C-6.34 5 -5.68 5 -5 5 C-5 4.34 -5 3.68 -5 3 C-3.35 2.67 -1.7 2.34 0 2 C0 1.34 0 0.68 0 0 Z " fill="#960508" transform="translate(222,151)"/>
<path d="M0 0 C4.75 0.875 4.75 0.875 7 2 C7 2.66 7 3.32 7 4 C11.455 4.99 11.455 4.99 16 6 C14.02 6.99 14.02 6.99 12 8 C8.984375 6.69921875 8.984375 6.69921875 5.75 4.6875 C4.67234375 4.03136719 3.5946875 3.37523437 2.484375 2.69921875 C1.66453125 2.13847656 0.8446875 1.57773437 0 1 C0 0.67 0 0.34 0 0 Z " fill="#920A0A" transform="translate(301,375)"/>
<path d="M0 0 C-5.94 3.465 -5.94 3.465 -12 7 C-12 5.33333333 -12 3.66666667 -12 2 C-10.02 2 -8.04 2 -6 2 C-6 1.34 -6 0.68 -6 0 C-3 -1 -3 -1 0 0 Z " fill="#87080A" transform="translate(343,367)"/>
<path d="M0 0 C0.66 0.33 1.32 0.66 2 1 C1.01 1.33 0.02 1.66 -1 2 C-1.33 2.99 -1.66 3.98 -2 5 C-4.06640625 5.94921875 -4.06640625 5.94921875 -6.5625 6.6875 C-7.38878906 6.93886719 -8.21507812 7.19023438 -9.06640625 7.44921875 C-9.70449219 7.63097656 -10.34257812 7.81273438 -11 8 C-11 8.66 -11 9.32 -11 10 C-12.32 9.67 -13.64 9.34 -15 9 C-12.54732365 7.46931512 -10.08866106 5.95031377 -7.625 4.4375 C-6.92632812 3.99986328 -6.22765625 3.56222656 -5.5078125 3.11132812 C-3.70814097 2.01249022 -1.85677657 0.99932133 0 0 Z " fill="#6C0204" transform="translate(222,96)"/>
<path d="M0 0 C1.77395508 0.42466497 3.54410631 0.8652409 5.3125 1.3125 C6.29863281 1.55613281 7.28476562 1.79976563 8.30078125 2.05078125 C11.01647874 3.00579499 12.28403325 3.72180523 14 6 C14 6.66 14 7.32 14 8 C8.76481294 6.56032356 4.36973991 4.18303389 0 1 C0 0.67 0 0.34 0 0 Z " fill="#7D0305" transform="translate(297,268)"/>
<path d="M0 0 C0.12375 0.639375 0.2475 1.27875 0.375 1.9375 C0.58125 2.618125 0.7875 3.29875 1 4 C1.66 4.33 2.32 4.66 3 5 C3 5.66 3 6.32 3 7 C-1.50802601 5.74194623 -4.4912812 4.09592835 -8 1 C-6.865625 1.020625 -5.73125 1.04125 -4.5625 1.0625 C-1.18424326 1.41577477 -1.18424326 1.41577477 0 0 Z " fill="#880708" transform="translate(263,243)"/>
<path d="M0 0 C1.32 0 2.64 0 4 0 C4.33 0.66 4.66 1.32 5 2 C6.155 2.309375 7.31 2.61875 8.5 2.9375 C9.655 3.288125 10.81 3.63875 12 4 C12.33 4.99 12.66 5.98 13 7 C7.92990529 6.52467862 4.02506742 3.95637706 0 1 C0 0.67 0 0.34 0 0 Z " fill="#8D060A" transform="translate(248,344)"/>
<path d="M0 0 C4.95696581 1.23924145 7.11658466 2.78577758 10 7 C8.02 7 6.04 7 4 7 C4 6.01 4 5.02 4 4 C3.34 4 2.68 4 2 4 C1.34 2.68 0.68 1.36 0 0 Z " fill="#9D0508" transform="translate(318,223)"/>
<path d="M0 0 C1.32 0 2.64 0 4 0 C4.08121924 1.60332791 4.13929134 3.20784026 4.1875 4.8125 C4.22230469 5.70582031 4.25710938 6.59914063 4.29296875 7.51953125 C4 10 4 10 2.625 11.84375 C1 13 1 13 -1.1875 12.6875 C-1.785625 12.460625 -2.38375 12.23375 -3 12 C-2.175 11.649375 -1.35 11.29875 -0.5 10.9375 C0.325 10.298125 1.15 9.65875 2 9 C2.58342353 5.45769191 2.58342353 5.45769191 2 2 C1.34 1.34 0.68 0.68 0 0 Z " fill="#710203" transform="translate(346,296)"/>
<path d="M0 0 C2.4375 0.8125 2.4375 0.8125 5 2 C5.33 2.99 5.66 3.98 6 5 C5.67 5.66 5.34 6.32 5 7 C2.13275314 6.42655063 1.1385485 6.1385485 -1 4 C-0.34 3.34 0.32 2.68 1 2 C0.67 1.34 0.34 0.68 0 0 Z " fill="#C70509" transform="translate(250,289)"/>
<path d="M0 0 C4.75481646 0.57634139 7.97048212 2.55068521 12 5 C8.84979535 6.38609004 7.68081978 5.89180331 4.3125 4.75 C1 3 1 3 0 0 Z " fill="#9B0608" transform="translate(296,106)"/>
<path d="M0 0 C2.64 0.33 5.28 0.66 8 1 C8.103125 1.639375 8.20625 2.27875 8.3125 2.9375 C8.6528125 3.9584375 8.6528125 3.9584375 9 5 C9.99 5.33 10.98 5.66 12 6 C11.01 6.495 11.01 6.495 10 7 C7.6171875 5.8203125 7.6171875 5.8203125 4.875 4.125 C3.96492187 3.57070313 3.05484375 3.01640625 2.1171875 2.4453125 C1.41851562 1.96835937 0.71984375 1.49140625 0 1 C0 0.67 0 0.34 0 0 Z " fill="#6F0506" transform="translate(206,320)"/>
<path d="M0 0 C0 0.66 0 1.32 0 2 C-0.66 2 -1.32 2 -2 2 C-2.33 2.99 -2.66 3.98 -3 5 C-5.31 5.33 -7.62 5.66 -10 6 C-7.35570758 3.077361 -4.105808 0 0 0 Z " fill="#9C0709" transform="translate(328,318)"/>
<path d="M0 0 C4.30764815 1.56641751 8.06171464 3.68336156 12 6 C10 7 10 7 7.6171875 6.22265625 C6.71226562 5.83980469 5.80734375 5.45695312 4.875 5.0625 C3.96492188 4.68222656 3.05484375 4.30195312 2.1171875 3.91015625 C1.41851562 3.60980469 0.71984375 3.30945313 0 3 C0 2.01 0 1.02 0 0 Z " fill="#900407" transform="translate(308,112)"/>
<path d="M0 0 C1.17219543 0.78345715 2.33763668 1.57702836 3.5 2.375 C4.47453125 3.03628906 4.47453125 3.03628906 5.46875 3.7109375 C5.9740625 4.13632812 6.479375 4.56171875 7 5 C7 5.66 7 6.32 7 7 C7.99 7.33 8.98 7.66 10 8 C9.01 8.495 9.01 8.495 8 9 C6.0546875 8.14453125 6.0546875 8.14453125 3.875 6.8125 C3.15054688 6.38582031 2.42609375 5.95914062 1.6796875 5.51953125 C1.12539062 5.01808594 0.57109375 4.51664062 0 4 C0 2.68 0 1.36 0 0 Z " fill="#94090A" transform="translate(168,294)"/>
<path d="M0 0 C-3.63 1.98 -7.26 3.96 -11 6 C-11 4.68 -11 3.36 -11 2 C-9.73392393 1.46770674 -8.46189588 0.94955456 -7.1875 0.4375 C-6.47980469 0.14746094 -5.77210938 -0.14257812 -5.04296875 -0.44140625 C-3 -1 -3 -1 0 0 Z " fill="#93090A" transform="translate(329,375)"/>
<path d="M0 0 C4.30764815 1.56641751 8.06171464 3.68336156 12 6 C11.01 6.66 10.02 7.32 9 8 C9 7.34 9 6.68 9 6 C7.88625 5.7525 6.7725 5.505 5.625 5.25 C2 4 2 4 0.5625 1.875 C0.376875 1.25625 0.19125 0.6375 0 0 Z " fill="#890505" transform="translate(369,147)"/>
<path d="M0 0 C-1.05041579 2.86477034 -1.70124563 3.83913226 -4.4375 5.3125 C-7 6 -7 6 -10 5 C-8.71186658 4.16121545 -7.41936744 3.32913217 -6.125 2.5 C-5.40570313 2.0359375 -4.68640625 1.571875 -3.9453125 1.09375 C-2 0 -2 0 0 0 Z " fill="#8E0507" transform="translate(338,312)"/>
<path d="M0 0 C3.3 1.65 6.6 3.3 10 5 C10 5.66 10 6.32 10 7 C6.25418786 6.49380917 4.48705839 5.84235245 2 3 C1.34 2.67 0.68 2.34 0 2 C0 1.34 0 0.68 0 0 Z " fill="#740406" transform="translate(342,131)"/>
<path d="M0 0 C0.66 0.33 1.32 0.66 2 1 C0.76055724 1.86941494 -0.49207059 2.72005457 -1.75 3.5625 C-2.44609375 4.03816406 -3.1421875 4.51382813 -3.859375 5.00390625 C-6 6 -6 6 -8.265625 5.65234375 C-8.83796875 5.43707031 -9.4103125 5.22179687 -10 5 C-8.38007835 4.13624104 -6.75388139 3.28424146 -5.125 2.4375 C-4.22007812 1.96183594 -3.31515625 1.48617187 -2.3828125 0.99609375 C-1.20332031 0.50302734 -1.20332031 0.50302734 0 0 Z " fill="#720C0B" transform="translate(248,82)"/>
<path d="M0 0 C2.31 0.33 4.62 0.66 7 1 C7 1.66 7 2.32 7 3 C7.66 3 8.32 3 9 3 C9.33 3.99 9.66 4.98 10 6 C6.40992874 4.66654496 3.20429093 3.1056769 0 1 C0 0.67 0 0.34 0 0 Z " fill="#710304" transform="translate(274,360)"/>
<path d="M0 0 C3.79303725 1.00193437 6.71536341 1.81024227 10 4 C10 4.66 10 5.32 10 6 C6.40992874 4.66654496 3.20429093 3.1056769 0 1 C0 0.67 0 0.34 0 0 Z " fill="#950807" transform="translate(238,338)"/>
<path d="M0 0 C2.97 0.33 5.94 0.66 9 1 C9 1.99 9 2.98 9 4 C6.69 4 4.38 4 2 4 C2 3.34 2 2.68 2 2 C1.34 2 0.68 2 0 2 C0 1.34 0 0.68 0 0 Z " fill="#9D0708" transform="translate(309,323)"/>
<path d="M0 0 C2.97 0.495 2.97 0.495 6 1 C6 1.99 6 2.98 6 4 C6.66 4 7.32 4 8 4 C7.67 4.66 7.34 5.32 7 6 C4.0625 4.6875 4.0625 4.6875 1 3 C0.67 2.01 0.34 1.02 0 0 Z " fill="#C9060A" transform="translate(296,265)"/>
<path d="M0 0 C4.7517398 0.43197635 6.92000054 1.32769295 10 5 C5.75354935 5 3.61475228 3.18249194 0 1 C0 0.67 0 0.34 0 0 Z " fill="#700707" transform="translate(289,158)"/>
<path d="M0 0 C1.98 0 3.96 0 6 0 C6.66 1.65 7.32 3.3 8 5 C4.62496331 3.8141763 2.35277269 2.72426311 0 0 Z " fill="#8F0507" transform="translate(366,229)"/>
<path d="M0 0 C4.75 0.875 4.75 0.875 7 2 C7 2.66 7 3.32 7 4 C7.99 4.33 8.98 4.66 10 5 C9.01 5.495 9.01 5.495 8 6 C6.0546875 5.0390625 6.0546875 5.0390625 3.875 3.625 C3.15054687 3.16351563 2.42609375 2.70203125 1.6796875 2.2265625 C1.12539063 1.82179687 0.57109375 1.41703125 0 1 C0 0.67 0 0.34 0 0 Z " fill="#760405" transform="translate(267,145)"/>
<path d="M0 0 C4.455 0.99 4.455 0.99 9 2 C9 2.99 9 3.98 9 5 C4.89198233 3.81323934 3.10551666 3.10551666 0 0 Z " fill="#720303" transform="translate(218,327)"/>
<path d="M0 0 C3.3 1.65 6.6 3.3 10 5 C6.37673261 6.2077558 5.35853631 5.54311128 2 4 C2 3.34 2 2.68 2 2 C1.34 2 0.68 2 0 2 C0 1.34 0 0.68 0 0 Z " fill="#630504" transform="translate(300,212)"/>
<path d="M0 0 C-6.75 4 -6.75 4 -9 4 C-9 3.01 -9 2.02 -9 1 C-3.375 -1.125 -3.375 -1.125 0 0 Z " fill="#7C0305" transform="translate(352,362)"/>
<path d="M0 0 C3.37503669 1.1858237 5.64722731 2.27573689 8 5 C5.125 4.75 5.125 4.75 2 4 C0.625 1.9375 0.625 1.9375 0 0 Z " fill="#7A0406" transform="translate(282,307)"/>
<path d="M0 0 C3.68754757 0.49831724 5.60490662 1.10067643 8 4 C7.01 4.33 6.02 4.66 5 5 C5 4.34 5 3.68 5 3 C3.68 3 2.36 3 1 3 C0.67 2.01 0.34 1.02 0 0 Z " fill="#87060C" transform="translate(291,208)"/>
</svg>
