<?xml version="1.0" encoding="UTF-8"?>
<svg version="1.1" xmlns="http://www.w3.org/2000/svg" width="512" height="512">
<path d="M0 0 C0.75638711 -0.00350607 1.51277423 -0.00701215 2.29208216 -0.01062447 C4.83515579 -0.01995323 7.37800116 -0.01501137 9.9210844 -0.01015663 C11.759361 -0.01389215 13.59763601 -0.01849327 15.4359085 -0.02388728 C20.49428691 -0.03614488 25.55259933 -0.03585356 30.61098921 -0.03349853 C36.0637401 -0.03309106 41.51646964 -0.04412281 46.96921062 -0.05361366 C57.6547246 -0.0702397 68.34021651 -0.07572393 79.02574233 -0.07683842 C87.70976914 -0.07778812 96.39378865 -0.08189452 105.07781315 -0.08823967 C129.68828817 -0.10585635 154.29874675 -0.11509 178.909228 -0.11357872 C179.90431272 -0.11351889 179.90431272 -0.11351889 180.91950017 -0.11345784 C182.26103627 -0.11337697 183.60257238 -0.11329337 184.94410849 -0.11320706 C205.8164818 -0.11198153 226.68879012 -0.12699458 247.56114483 -0.15435219 C271.00866959 -0.1850724 294.45615872 -0.20225938 317.90370578 -0.20042574 C330.31962197 -0.19976121 342.7354649 -0.20528116 355.15136433 -0.22678185 C365.72195607 -0.24496941 376.29244132 -0.24936091 386.86304191 -0.235763 C392.25742712 -0.22922116 397.65160787 -0.22916007 403.04597378 -0.2464695 C407.98386355 -0.26215139 412.92138593 -0.25938656 417.85926648 -0.24190123 C419.6459248 -0.23882056 421.43261021 -0.24250372 423.21923659 -0.25362138 C441.17507946 -0.35795818 441.17507946 -0.35795818 448.68394756 6.22211266 C449.22277569 6.87308922 449.76160381 7.52406578 450.31676006 8.19476891 C450.87105694 8.84316734 451.42535381 9.49156578 451.99644756 10.15961266 C454.88784251 14.35604261 455.69196695 18.01176048 455.69902897 23.06636333 C455.70547786 24.23483911 455.71192675 25.40331488 455.71857107 26.60719901 C455.71392526 28.52653236 455.71392526 28.52653236 455.7091856 30.48464012 C455.71292259 31.86093971 455.71752431 33.23723719 455.72291625 34.61353129 C455.73515568 38.39493964 455.73488467 42.17625957 455.73252749 45.95768321 C455.73211957 50.0361916 455.74315619 54.11467157 455.75264263 58.19316673 C455.76925881 66.18357345 455.77475246 74.17395065 455.77586739 82.1643732 C455.77681758 88.65923215 455.78092641 95.15408136 455.78726864 101.64893723 C455.80488279 120.06161061 455.81410725 138.47426067 455.81260769 156.88694254 C455.81252778 157.87967026 455.81244787 158.87239798 455.81236553 159.89520836 C455.81228377 160.8891477 455.81220201 161.88308704 455.81211777 162.90714576 C455.81130484 179.01604747 455.83044392 195.12485569 455.85864227 211.23373035 C455.88736529 227.77279544 455.90118288 244.31181493 455.89945471 260.8509056 C455.89879061 270.13691606 455.90429192 279.42282852 455.92581081 288.70881653 C455.94401496 296.61509925 455.94837628 304.52123954 455.93479197 312.42753414 C455.9282584 316.46096544 455.92815896 320.49412341 455.94549847 324.52752876 C455.96121736 328.22197627 455.95837809 331.91593347 455.9409302 335.61036893 C455.93640519 337.57563009 455.95152697 339.54090639 455.96740949 341.50610858 C455.90378007 349.64380704 454.99179492 355.20613569 449.47691631 361.49945641 C448.82593975 362.03828453 448.17496319 362.57711266 447.50426006 363.13226891 C446.85586163 363.68656578 446.20746319 364.24086266 445.53941631 364.81195641 C441.59792142 367.52769776 438.08143981 368.50782789 433.32278728 368.49777794 C432.31462963 368.50052727 431.30647198 368.5032766 430.26776409 368.50610924 C429.17300259 368.49891869 428.07824108 368.49172813 426.95030499 368.48431969 C425.20819744 368.48475777 425.20819744 368.48475777 423.43089581 368.4852047 C419.5945973 368.4838121 415.75849336 368.46825389 411.92222881 368.45258141 C409.26136223 368.44885103 406.6005064 368.44590578 403.93963909 368.44400597 C397.65343793 368.43779565 391.36730653 368.42139094 385.08113605 368.40130699 C377.92276226 368.37893399 370.7643851 368.36795104 363.60598505 368.35791612 C348.88454025 368.3370243 334.16315368 368.30145307 319.44176006 368.25726891 C319.44176006 373.53726891 319.44176006 378.81726891 319.44176006 384.25726891 C320.84168194 384.16187828 322.24160381 384.06648766 323.68394756 383.96820641 C325.56151137 383.85555258 327.43911804 383.74361156 329.31676006 383.63226891 C330.23457256 383.56781578 331.15238506 383.50336266 332.09801006 383.43695641 C344.16120216 382.75733995 354.5507117 385.4650105 364.19176006 392.94476891 C371.56865393 399.92835183 374.98145808 409.48545312 378.16685772 418.90741539 C378.81931255 420.82727967 379.49844687 422.73625484 380.18004131 424.64594078 C382.4865975 431.35879049 384.43766127 437.14884362 383.44176006 444.25726891 C381.38812738 446.95200508 380.20497056 448.10982324 376.84642315 448.75866556 C375.35737469 448.75963968 375.35737469 448.75963968 373.83824444 448.76063347 C372.69019329 448.77106446 371.54214214 448.78149545 370.35930157 448.79224253 C369.09745037 448.78331964 367.83559917 448.77439675 366.53551006 448.76520348 C365.18196726 448.76981137 363.82842946 448.77616355 362.47490215 448.78411245 C358.75181005 448.80084457 355.02912691 448.79254209 351.30603313 448.78016758 C347.29232767 448.77113516 343.27869363 448.7850778 339.26500225 448.79608727 C331.40075284 448.81389648 323.53665592 448.81002185 315.67240047 448.7984367 C309.28235654 448.78941208 302.89235541 448.78817416 296.50230694 448.79253197 C295.13937449 448.79345137 295.13937449 448.79345137 293.74890804 448.79438934 C291.90320109 448.79566821 290.05749415 448.79696506 288.21178722 448.7982797 C270.89467675 448.80969254 253.57765091 448.79656078 236.26055431 448.77507824 C221.39383051 448.75720661 206.52723162 448.76031052 191.66051006 448.77875328 C174.40639977 448.80014759 157.1523637 448.80859383 139.898242 448.79630423 C138.05923241 448.79503 136.2202228 448.79377251 134.38121319 448.79253197 C133.47632782 448.79191487 132.57144245 448.79129776 131.63913631 448.79066196 C125.25496677 448.78720474 118.87084421 448.79304541 112.48668194 448.80245018 C104.70906835 448.81365557 96.93161629 448.81066098 89.15402126 448.7893272 C85.18388507 448.778797 81.21401843 448.77472821 77.24388409 448.78792381 C73.61188181 448.7998132 69.98039978 448.79334311 66.34844494 448.7720136 C64.40703569 448.76540442 62.46559053 448.77851457 60.52421856 448.79224253 C58.80214184 448.77659604 58.80214184 448.77659604 57.04527569 448.76063347 C56.05257671 448.75998406 55.05987774 448.75933465 54.03709698 448.75866556 C50.68101904 448.11030032 49.49829571 446.94562911 47.44176006 444.25726891 C46.22401147 436.19493336 49.12109517 428.91803811 51.75694561 421.40082359 C52.50016725 419.26900851 53.20930825 417.12787096 53.91636944 414.98383141 C58.10291725 402.6422252 63.95308163 393.19138169 75.78551006 387.03851891 C87.35368499 381.91337812 99.15612559 383.37270322 111.44176006 384.25726891 C111.44176006 378.97726891 111.44176006 373.69726891 111.44176006 368.25726891 C109.96868389 368.26615135 108.49560772 368.2750338 106.97789288 368.28418541 C93.08839408 368.3653093 79.19891372 368.42549336 65.30923748 368.46451759 C58.16858159 368.48511451 51.02810295 368.51317975 43.88756084 368.55902672 C37.66150254 368.59898293 31.43557265 368.62472258 25.20938969 368.63362288 C21.91471549 368.63882294 18.62049273 368.65310416 15.32591534 368.68018913 C11.64165344 368.70927024 7.95814972 368.71322275 4.27379131 368.71137047 C3.18981564 368.72575157 2.10583996 368.74013268 0.98901653 368.75494957 C-6.62334551 368.71359965 -11.91992808 367.44554568 -17.80042744 362.29242516 C-18.33925556 361.64144859 -18.87808369 360.99047203 -19.43323994 360.31976891 C-19.98753681 359.67137047 -20.54183369 359.02297203 -21.11292744 358.35492516 C-24.00432238 354.1584952 -24.80844683 350.50277733 -24.81550884 345.44817448 C-24.82195773 344.2796987 -24.82840663 343.11122293 -24.83505094 341.9073388 C-24.83195374 340.62778323 -24.82885653 339.34822767 -24.82566547 338.02989769 C-24.82940247 336.6535981 -24.83400418 335.27730062 -24.83939612 333.90100652 C-24.85163555 330.11959818 -24.85136455 326.33827824 -24.84900737 322.55685461 C-24.84859944 318.47834621 -24.85963607 314.39986625 -24.86912251 310.32137108 C-24.88573868 302.33096436 -24.89123233 294.34058716 -24.89234726 286.35016461 C-24.89329745 279.85530566 -24.89740628 273.36045645 -24.90374851 266.86560059 C-24.92136266 248.4529272 -24.93058712 230.04027714 -24.92908756 211.62759527 C-24.92900765 210.63486755 -24.92892774 209.64213983 -24.92884541 208.61932945 C-24.92876364 207.62539011 -24.92868188 206.63145077 -24.92859764 205.60739205 C-24.92778471 189.49849034 -24.94692379 173.38968212 -24.97512214 157.28080746 C-25.00384516 140.74174237 -25.01766275 124.20272288 -25.01593459 107.66363221 C-25.01527048 98.37762175 -25.02077179 89.09170929 -25.04229069 79.80572128 C-25.06049483 71.89943856 -25.06485615 63.99329827 -25.05127184 56.08700367 C-25.04473827 52.05357237 -25.04463883 48.02041441 -25.06197834 43.98700905 C-25.07769724 40.29256154 -25.07485796 36.59860434 -25.05741008 32.90416888 C-25.05288507 30.93890772 -25.06800684 28.97363142 -25.08388937 27.00842923 C-25.02025994 18.87073077 -24.10827479 13.30840212 -18.59339619 7.01508141 C-17.94241962 6.47625328 -17.29144306 5.93742516 -16.62073994 5.38226891 C-15.9723415 4.82797203 -15.32394306 4.27367516 -14.65589619 3.70258141 C-9.93276091 0.44827963 -5.61890187 -0.03299062 0 0 Z M-6.55823994 19.25726891 C-8.59549043 22.76149528 -8.80912745 25.85062346 -8.81271553 29.85330677 C-8.81854772 30.9742484 -8.82437992 32.09519004 -8.83038884 33.2500996 C-8.82660952 34.47654613 -8.8228302 35.70299266 -8.81893635 36.96660423 C-8.8227619 38.27337972 -8.82658744 39.5801552 -8.83052891 40.92652994 C-8.84082428 44.5521833 -8.8386232 48.17773794 -8.83434832 51.80339944 C-8.8318839 55.71417586 -8.84089171 59.62492834 -8.84838581 63.53569603 C-8.86114256 71.19656838 -8.8629253 78.85740569 -8.86058555 86.51828688 C-8.85880338 92.74428395 -8.86054984 98.97027038 -8.86480999 105.19626617 C-8.86540518 106.08197198 -8.86600037 106.96767779 -8.86661359 107.88022317 C-8.86782533 109.67946112 -8.86903946 111.47869906 -8.87025597 113.277937 C-8.88113518 130.15539059 -8.87896716 147.03282421 -8.87287112 163.91027892 C-8.86770113 179.35446454 -8.87895889 194.79858709 -8.89796934 210.24276023 C-8.91733515 226.09702746 -8.92560598 241.95126483 -8.92184609 257.80554396 C-8.9199322 266.70805693 -8.92243994 275.61051622 -8.93656063 284.51301956 C-8.94845936 292.09142817 -8.94989627 299.66975005 -8.93777046 307.24815982 C-8.93187126 311.11522811 -8.93081098 314.98213765 -8.94277287 318.84919548 C-8.95558535 323.03990684 -8.9451921 327.23023845 -8.93246174 331.42094994 C-8.93983602 332.64516574 -8.94721031 333.86938155 -8.95480806 335.13069481 C-9.02782917 343.18284814 -9.02782917 343.18284814 -5.55823994 350.25726891 C-1.40458526 352.87973523 3.2123062 352.53253735 7.97748089 352.49777794 C8.83521546 352.49948679 9.69295002 352.50119564 10.57667655 352.50295627 C13.4495141 352.50624936 16.32211787 352.4952504 19.19493389 352.48431969 C21.25475846 352.48375553 23.31458343 352.48407221 25.37440777 352.4852047 C30.96694371 352.48577905 36.55939404 352.47401129 42.15191007 352.46005678 C47.99621825 352.44756325 53.84052835 352.44638001 59.68484783 352.44400597 C70.75219005 352.43778715 81.8194928 352.42137088 92.88681763 352.40130699 C105.48644652 352.37896049 118.08607728 352.3679577 130.68572104 352.35791612 C156.6044226 352.33700502 182.52308912 352.30182122 208.44176006 352.25726891 C206.50868509 350.96855226 204.55129136 349.71524448 202.56676006 348.50726891 C197.65966378 344.97415958 194.32804826 341.09975447 192.44176006 335.25726891 C191.63581749 327.413386 191.34504117 319.66542424 196.44176006 313.25726891 C199.96029394 309.53862884 203.4756969 306.76213653 208.44176006 305.25726891 C208.44176006 304.92726891 208.44176006 304.59726891 208.44176006 304.25726891 C142.11176006 304.25726891 75.78176006 304.25726891 7.44176006 304.25726891 C7.44176006 214.49726891 7.44176006 124.73726891 7.44176006 32.25726891 C144.72176006 32.25726891 282.00176006 32.25726891 423.44176006 32.25726891 C423.44176006 122.01726891 423.44176006 211.77726891 423.44176006 304.25726891 C357.11176006 304.25726891 290.78176006 304.25726891 222.44176006 304.25726891 C224.37483503 305.54598555 226.33222877 306.79929333 228.31676006 308.00726891 C233.22385635 311.54037823 236.55547187 315.41478334 238.44176006 321.25726891 C239.24770263 329.10115181 239.53847895 336.84911358 234.44176006 343.25726891 C230.92322619 346.97590897 227.40782322 349.75240128 222.44176006 351.25726891 C222.44176006 351.58726891 222.44176006 351.91726891 222.44176006 352.25726891 C249.58833234 352.3273236 276.73489109 352.38023975 303.88153553 352.41270542 C316.48595099 352.42817989 329.09031032 352.44928055 341.69468975 352.48358727 C352.67957403 352.51347179 363.66441766 352.53283969 374.64934146 352.53953439 C380.46675611 352.54344823 386.28405445 352.5526585 392.10143185 352.57445908 C397.57606869 352.59480917 403.05054121 352.60110564 408.52521229 352.59659195 C410.53517264 352.59741781 412.54513845 352.60339217 414.55506611 352.61488533 C417.29884115 352.62980622 420.04199538 352.6262239 422.78578472 352.61803246 C423.58151587 352.62677098 424.37724701 352.6355095 425.19709122 352.64451283 C429.96404533 352.6060336 433.40000093 352.057018 437.44176006 349.25726891 C439.27133141 345.64455416 439.69263227 342.68098867 439.69623566 338.66123104 C439.70206785 337.54028941 439.70790004 336.41934777 439.71390897 335.26443821 C439.71012965 334.03799168 439.70635032 332.81154515 439.70245647 331.54793358 C439.70628202 330.24115809 439.71010757 328.93438261 439.71404904 327.58800787 C439.7243444 323.96235451 439.72214333 320.33679988 439.71786845 316.71113837 C439.71540402 312.80036195 439.72441183 308.88960947 439.73190594 304.97884178 C439.74466268 297.31796943 439.74644543 289.65713212 439.74410567 281.99625093 C439.74232351 275.77025386 439.74406997 269.54426744 439.74833012 263.31827164 C439.7492229 261.98971292 439.7492229 261.98971292 439.75013372 260.63431464 C439.75134545 258.83507669 439.75255959 257.03583875 439.7537761 255.23660081 C439.76465531 238.35914722 439.76248729 221.4817136 439.75639125 204.60425889 C439.75122126 189.16007327 439.76247902 173.71595072 439.78148947 158.27177758 C439.80085528 142.41751036 439.80912611 126.56327298 439.80536622 110.70899385 C439.80345232 101.80648088 439.80596007 92.90402159 439.82008076 84.00151825 C439.83197949 76.42310964 439.8334164 68.84478776 439.82129059 61.26637799 C439.81539138 57.3993097 439.81433111 53.53240016 439.82629299 49.66534233 C439.83910548 45.47463098 439.82871223 41.28429936 439.81598186 37.09358788 C439.82335615 35.86937207 439.83073043 34.64515626 439.83832818 33.383843 C439.9113493 25.33168967 439.9113493 25.33168967 436.44176006 18.25726891 C432.31190203 16.09086889 428.71257332 16.00585417 424.09657669 16.00279331 C422.99655308 15.99798359 422.99655308 15.99798359 421.87430677 15.99307671 C419.40961586 15.98475563 416.94516663 15.99070833 414.48047161 15.99657249 C412.6985171 15.99355278 410.91656389 15.9896642 409.13461298 15.98497993 C404.23199128 15.9746681 399.32944244 15.97688983 394.42681468 15.98116052 C389.14179509 15.98362196 383.85679332 15.97462086 378.5717802 15.96712303 C368.21580172 15.95435798 357.85984914 15.95258457 347.50386412 15.95492329 C339.08869915 15.95670453 330.67354206 15.95496101 322.25837803 15.95069885 C321.06183176 15.95010366 319.86528549 15.94950847 318.63248025 15.94889525 C316.2018983 15.94768353 313.77131636 15.9464694 311.34073441 15.94525287 C288.53454863 15.93437046 265.72837763 15.9365432 242.92219102 15.94263772 C222.04612973 15.94780803 201.17011509 15.93654965 180.29406304 15.9175395 C158.87109626 15.89818048 137.44815157 15.88990166 116.02517599 15.89366275 C103.99275264 15.89557767 91.960369 15.89305893 79.92795277 15.87894821 C69.68523158 15.86705812 59.44257456 15.86560285 49.19985253 15.87773838 C43.97181984 15.88364364 38.74390463 15.88468112 33.51587963 15.87273598 C28.73234639 15.86193322 23.94902953 15.86491334 19.16550665 15.87899766 C17.4327211 15.88166011 15.6999189 15.87922986 13.96714962 15.8712618 C11.61543168 15.86119604 9.26447177 15.86954271 6.91278458 15.8825388 C5.6054598 15.88248378 4.29813502 15.88242876 2.95119435 15.88237208 C-0.94490563 16.29857463 -3.30982094 17.0708332 -6.55823994 19.25726891 Z M23.44176006 48.25726891 C23.44176006 127.45726891 23.44176006 206.65726891 23.44176006 288.25726891 C150.16176006 288.25726891 276.88176006 288.25726891 407.44176006 288.25726891 C407.44176006 209.05726891 407.44176006 129.85726891 407.44176006 48.25726891 C280.72176006 48.25726891 154.00176006 48.25726891 23.44176006 48.25726891 Z M210.06676006 322.88226891 C207.95469501 325.96913322 207.82980861 327.58556021 208.44176006 331.25726891 C209.94176006 333.75726891 209.94176006 333.75726891 212.44176006 335.25726891 C216.11346876 335.86922036 217.72989575 335.74433396 220.81676006 333.63226891 C222.92882512 330.54540459 223.05371151 328.9289776 222.44176006 325.25726891 C220.94176006 322.75726891 220.94176006 322.75726891 218.44176006 321.25726891 C214.77005137 320.64531746 213.15362438 320.77020385 210.06676006 322.88226891 Z M127.44176006 368.25726891 C127.44176006 373.53726891 127.44176006 378.81726891 127.44176006 384.25726891 C185.52176006 384.25726891 243.60176006 384.25726891 303.44176006 384.25726891 C303.44176006 378.97726891 303.44176006 373.69726891 303.44176006 368.25726891 C245.36176006 368.25726891 187.28176006 368.25726891 127.44176006 368.25726891 Z M76.92613506 407.99164391 C72.29779462 414.20951542 67.44176006 424.31546795 67.44176006 432.25726891 C165.12176006 432.25726891 262.80176006 432.25726891 363.44176006 432.25726891 C359.71580128 416.72862902 359.71580128 416.72862902 350.44176006 404.25726891 C342.63578141 399.9206141 334.13689688 400.10864587 325.44241619 400.12355614 C324.46328945 400.12129058 323.48416271 400.11902502 322.47536546 400.11669081 C319.20918732 400.11038342 315.94305102 400.11117808 312.67686749 400.11200523 C310.32903267 400.10901172 307.98119835 400.10560875 305.63336468 400.10182762 C299.26553168 400.0930033 292.89771213 400.09065017 286.52987361 400.09001184 C281.88053052 400.08918102 277.23119042 400.0862801 272.58184839 400.08317536 C260.07233951 400.07487672 247.56283774 400.07113235 235.05332621 400.07184509 C233.98912758 400.07190503 233.98912758 400.07190503 232.90342999 400.07196617 C231.83792281 400.07202749 231.83792281 400.07202749 230.75089023 400.07209005 C219.24193237 400.0724964 207.73300723 400.06292789 196.22405883 400.0488278 C184.38913025 400.03444346 172.55421761 400.02755874 160.71928006 400.02842158 C154.08193767 400.02875282 147.44462545 400.02584142 140.80729008 400.01524353 C134.56348477 400.00554587 128.31975184 400.00549486 122.07594395 400.01276016 C119.7891126 400.0138039 117.50227671 400.01145567 115.21545315 400.0053997 C112.08423605 399.99764702 108.95326688 400.00234626 105.82205486 400.01003075 C104.92572549 400.00488718 104.02939611 399.99974362 103.10590523 399.99444419 C93.60352201 400.04567561 83.54102319 400.42202966 76.92613506 407.99164391 Z " fill="#000000" transform="translate(40.55823993682861,31.74273109436035)"/>
<path d="M0 0 C3.63303084 1.69586126 5.94549046 3.73800488 8.75 6.625 C9.54921875 7.44226563 10.3484375 8.25953125 11.171875 9.1015625 C11.77515625 9.72804687 12.3784375 10.35453125 13 11 C11.36256066 15.17615799 8.30218208 17.9648153 5.17333984 21.05371094 C4.28045006 21.9470388 4.28045006 21.9470388 3.36952209 22.8584137 C1.40469823 24.82184643 -0.56711039 26.77810373 -2.5390625 28.734375 C-3.90427479 30.0958564 -5.26904561 31.45778061 -6.63339233 32.82012939 C-10.22273159 36.40183824 -13.8180368 39.9774999 -17.41461182 43.55194092 C-21.08471319 47.20157121 -24.74914829 50.85688092 -28.4140625 54.51171875 C-35.60383652 61.68005329 -42.79992516 68.842013 -50 76 C-53.63303084 74.30413874 -55.94549046 72.26199512 -58.75 69.375 C-59.54921875 68.55773437 -60.3484375 67.74046875 -61.171875 66.8984375 C-61.77515625 66.27195312 -62.3784375 65.64546875 -63 65 C-61.36256066 60.82384201 -58.30218208 58.0351847 -55.17333984 54.94628906 C-54.57807999 54.35073715 -53.98282013 53.75518524 -53.36952209 53.1415863 C-51.40469823 51.17815357 -49.43288961 49.22189627 -47.4609375 47.265625 C-46.09572521 45.9041436 -44.73095439 44.54221939 -43.36660767 43.17987061 C-39.77726841 39.59816176 -36.1819632 36.0225001 -32.58538818 32.44805908 C-28.91528681 28.79842879 -25.25085171 25.14311908 -21.5859375 21.48828125 C-14.39616348 14.31994671 -7.20007484 7.157987 0 0 Z " fill="#000000" transform="translate(305,170)"/>
<path d="M0 0 C3.63303084 1.69586126 5.94549046 3.73800488 8.75 6.625 C9.54921875 7.44226563 10.3484375 8.25953125 11.171875 9.1015625 C11.77515625 9.72804687 12.3784375 10.35453125 13 11 C11.42476254 14.85308766 8.82252556 17.44743914 5.90771484 20.31933594 C5.39048355 20.83685928 4.87325226 21.35438263 4.34034729 21.8875885 C2.63524329 23.59130289 0.92317232 25.28782978 -0.7890625 26.984375 C-1.974913 28.16649407 -3.16032174 29.34905645 -4.3453064 30.53204346 C-7.46117638 33.64028728 -10.58300634 36.74247737 -13.70611572 39.84344482 C-16.89363619 43.01048502 -20.0754832 46.18321387 -23.2578125 49.35546875 C-29.49966976 55.57589403 -35.74783485 61.78993537 -42 68 C-45.63303084 66.30413874 -47.94549046 64.26199512 -50.75 61.375 C-51.54921875 60.55773437 -52.3484375 59.74046875 -53.171875 58.8984375 C-53.77515625 58.27195313 -54.3784375 57.64546875 -55 57 C-53.42476254 53.14691234 -50.82252556 50.55256086 -47.90771484 47.68066406 C-47.39048355 47.16314072 -46.87325226 46.64561737 -46.34034729 46.1124115 C-44.63524329 44.40869711 -42.92317232 42.71217022 -41.2109375 41.015625 C-40.025087 39.83350593 -38.83967826 38.65094355 -37.6546936 37.46795654 C-34.53882362 34.35971272 -31.41699366 31.25752263 -28.29388428 28.15655518 C-25.10636381 24.98951498 -21.9245168 21.81678613 -18.7421875 18.64453125 C-12.50033024 12.42410597 -6.25216515 6.21006463 0 0 Z " fill="#000000" transform="translate(241,186)"/>
<path d="M0 0 C5.28 0 10.56 0 16 0 C16 23.76 16 47.52 16 72 C5.44 72 -5.12 72 -16 72 C-16 66.72 -16 61.44 -16 56 C-10.72 56 -5.44 56 0 56 C0 37.52 0 19.04 0 0 Z " fill="#000000" transform="translate(416,232)"/>
<path d="M0 0 C15.84 0 31.68 0 48 0 C48 5.28 48 10.56 48 16 C37.44 16 26.88 16 16 16 C16 29.2 16 42.4 16 56 C10.72 56 5.44 56 0 56 C0 37.52 0 19.04 0 0 Z " fill="#000000" transform="translate(80,96)"/>
<path d="M0 0 C15.84 0 31.68 0 48 0 C48 5.28 48 10.56 48 16 C32.16 16 16.32 16 0 16 C0 10.72 0 5.44 0 0 Z " fill="#000000" transform="translate(416,352)"/>
<path d="M0 0 C5.28 0 10.56 0 16 0 C16 5.28 16 10.56 16 16 C10.72 16 5.44 16 0 16 C0 10.72 0 5.44 0 0 Z " fill="#000000" transform="translate(80,352)"/>
<path d="M0 0 C5.28 0 10.56 0 16 0 C16 5.28 16 10.56 16 16 C10.72 16 5.44 16 0 16 C0 10.72 0 5.44 0 0 Z " fill="#000000" transform="translate(48,352)"/>
<path d="M0 0 C5.28 0 10.56 0 16 0 C16 5.28 16 10.56 16 16 C10.72 16 5.44 16 0 16 C0 10.72 0 5.44 0 0 Z " fill="#000000" transform="translate(80,168)"/>
</svg>
