<?xml version="1.0" encoding="UTF-8"?>
<svg version="1.1" xmlns="http://www.w3.org/2000/svg" width="512" height="512">
<path d="M0 0 C30.03 0 60.06 0 91 0 C91 19.8 91 39.6 91 60 C229.93 60 368.86 60 512 60 C512 188.7 512 317.4 512 450 C432.47 450 352.94 450 271 450 C271 430.2 271 410.4 271 390 C261.1 390 251.2 390 241 390 C241 409.8 241 429.6 241 450 C201.4 450 161.8 450 121 450 C121 430.2 121 410.4 121 390 C111.1 390 101.2 390 91 390 C91 409.8 91 429.6 91 450 C81.1 450 71.2 450 61 450 C61 311.4 61 172.8 61 30 C40.87 30 20.74 30 0 30 C0 20.1 0 10.2 0 0 Z M91 90 C91 99.9 91 109.8 91 120 C122.35 120 153.7 120 186 120 C191.20720342 110.1063135 196.37354244 100.17820664 201 90 C164.7 90 128.4 90 91 90 Z M236 90 C225.72421736 109.52398701 215.86689189 129.26621622 206 149 C149.075 149.495 149.075 149.495 91 150 C91 219.3 91 288.6 91 360 C220.03 360 349.06 360 482 360 C482 270.9 482 181.8 482 90 C400.82 90 319.64 90 236 90 Z M151 390 C151 399.9 151 409.8 151 420 C170.8 420 190.6 420 211 420 C211 410.1 211 400.2 211 390 C191.2 390 171.4 390 151 390 Z M301 390 C301 399.9 301 409.8 301 420 C360.73 420 420.46 420 482 420 C482 410.1 482 400.2 482 390 C422.27 390 362.54 390 301 390 Z " fill="#000000" transform="translate(0,31)"/>
<path d="M0 0 C22.51801889 16.92659424 37.91966375 41.95141896 42 70 C42.88593119 85.84289362 43.17654686 101.85739095 38 117 C37.79101074 117.62825684 37.58202148 118.25651367 37.36669922 118.90380859 C32.44227617 133.41149088 24.79496676 146.11986585 14 157 C13.195625 157.845625 12.39125 158.69125 11.5625 159.5625 C10.716875 160.366875 9.87125 161.17125 9 162 C8.34128906 162.65355469 7.68257812 163.30710937 7.00390625 163.98046875 C-3.82341993 174.30998683 -16.8047578 181.40293904 -31 186 C-31.64146973 186.21027832 -32.28293945 186.42055664 -32.94384766 186.63720703 C-51.40196676 192.38064246 -74.52452192 192.73826613 -93 187 C-93.93827637 186.70996094 -93.93827637 186.70996094 -94.89550781 186.4140625 C-123.07395454 177.44126963 -144.70954556 158.74152114 -158.72265625 132.8125 C-170.49820546 108.71930469 -173.60984416 78.60295763 -165 53 C-164.649375 51.8965625 -164.29875 50.793125 -163.9375 49.65625 C-154.4210445 22.42861343 -134.437029 1.35151731 -108.6875 -11.25 C-73.10277599 -26.9439999 -31.41100527 -22.93572554 0 0 Z M-56 11 C-62.75741605 20.52795664 -66.55854737 28.19114217 -67 40 C-58.80672564 40.94537781 -53.37917061 39.64760288 -46.14404297 35.71191406 C-36.63450926 30.55251406 -26.63140494 29.31922543 -16 28 C-25.86026872 17.44697236 -41.79000345 11.74789456 -56 11 Z M-118.80859375 33.6328125 C-120.45994346 35.23309657 -120.45994346 35.23309657 -122 38 C-121.40247068 44.72220485 -115.45527443 50.87209549 -110.5390625 55.1328125 C-108.39108558 56.80647275 -106.22512667 58.43080636 -104 60 C-100.60743886 58.5961816 -98.93708741 57.11733372 -97 54 C-96.62215731 51.7207024 -96.62215731 51.7207024 -96.77734375 49.2890625 C-96.80731445 47.92515381 -96.80731445 47.92515381 -96.83789062 46.53369141 C-96.87076172 45.57382324 -96.90363281 44.61395508 -96.9375 43.625 C-97.10525253 34.83679225 -96.65453398 26.65675813 -95 18 C-103.17878672 18 -113.06608317 28.4484293 -118.80859375 33.6328125 Z M-26 60 C-25.66226563 60.72445312 -25.32453125 61.44890625 -24.9765625 62.1953125 C-24.53054688 63.16210938 -24.08453125 64.12890625 -23.625 65.125 C-23.18414062 66.07632813 -22.74328125 67.02765625 -22.2890625 68.0078125 C-21 71 -21 71 -20.12109375 74.13671875 C-18.77823794 77.56638186 -17.43155382 78.60243905 -14.4375 80.6875 C-4.82433456 87.98741093 1.29851987 97.49534368 7 108 C11.67779263 100.98331105 11.31021494 93.08157075 11.25 84.9375 C11.25773437 83.88755859 11.26546875 82.83761719 11.2734375 81.75585938 C11.2931635 73.65268805 11.2931635 73.65268805 9 66 C6.48760026 64.16011992 6.48760026 64.16011992 3.375 63.1875 C2.29347656 62.795625 1.21195313 62.40375 0.09765625 62 C-0.92457031 61.67 -1.94679688 61.34 -3 61 C-4.11568359 60.62875 -4.11568359 60.62875 -5.25390625 60.25 C-12.13270633 58.24889452 -19.04611568 58.57356219 -26 60 Z M-76.875 77.125 C-78.56484251 81.44348642 -78.65960983 85.4267052 -78 90 C-75.83701163 94.40608743 -73.60319521 97.1987497 -69 99 C-63.95674616 99.68426057 -60.16923116 99.5739862 -55.5625 97.3125 C-52.20343988 94.28115306 -50.30644369 92.25860352 -49.68359375 87.66796875 C-49.41786348 81.95048191 -50.03152848 78.39749547 -54 74 C-57.83713196 70.61429533 -61.63401462 70.48708828 -66.5625 70.6484375 C-71.22526146 71.32095117 -73.85190292 73.69882331 -76.875 77.125 Z M-138 73 C-138.05872928 76.8124338 -138.09383916 80.62474906 -138.125 84.4375 C-138.14175781 85.50677734 -138.15851563 86.57605469 -138.17578125 87.67773438 C-138.21520778 94.12397159 -137.66458433 99.76763898 -136 106 C-125.23596845 106.43056126 -116.07436764 106.4248203 -106 102 C-106.30959473 97.92366936 -107.04517138 94.61154587 -109 91 C-112.34237247 88.72387917 -115.70583501 87.20630255 -119.40625 85.62109375 C-125.14327227 83.03319783 -129.77739258 79.3169247 -134.1171875 74.79296875 C-135.80806687 72.77012745 -135.80806687 72.77012745 -138 73 Z M-28 112 C-29.66877721 113.68805632 -29.66877721 113.68805632 -31.375 115.8125 C-34.68766173 119.81833984 -34.68766173 119.81833984 -37.08203125 121.2109375 C-40.1715667 124.09282596 -40.44608638 127.78247712 -41.3125 131.8125 C-43.16465739 139.67985197 -45.77186389 146.33366173 -49.64453125 153.41015625 C-51.15456912 155.80814407 -51.15456912 155.80814407 -51 158 C-39.9825763 156.95419598 -25.65476884 152.53060052 -18 144 C-16.95314842 140.81103594 -17.38556346 138.25443084 -18 135 C-18.09023438 134.14277344 -18.18046875 133.28554688 -18.2734375 132.40234375 C-19.25665398 124.80972761 -22.3129147 118.6437103 -26 112 C-26.66 112 -27.32 112 -28 112 Z M-92.125 128.6875 C-100.01870084 132.81063654 -108.39960543 134.84034536 -117 137 C-110.22377903 144.02040911 -102.17150901 150.46011933 -93 154 C-84.84415387 151.0400874 -77.7612664 142.50169306 -73.96484375 134.9375 C-73.26035305 133.31225633 -72.6219668 131.65857814 -72 130 C-73.74692795 129.32532438 -75.49768525 128.66055844 -77.25 128 C-78.71179688 127.443125 -78.71179688 127.443125 -80.203125 126.875 C-85.20525301 125.31008844 -87.76392912 126.22119639 -92.125 128.6875 Z " fill="#000000" transform="translate(410,171)"/>
<path d="M0 0 C29.7 0 59.4 0 90 0 C90 9.9 90 19.8 90 30 C60.3 30 30.6 30 0 30 C0 20.1 0 10.2 0 0 Z " fill="#000000" transform="translate(121,331)"/>
<path d="M0 0 C29.7 0 59.4 0 90 0 C90 9.9 90 19.8 90 30 C60.3 30 30.6 30 0 30 C0 20.1 0 10.2 0 0 Z " fill="#000000" transform="translate(121,211)"/>
<path d="M0 0 C9.9 0 19.8 0 30 0 C30 9.9 30 19.8 30 30 C20.1 30 10.2 30 0 30 C0 20.1 0 10.2 0 0 Z " fill="#000000" transform="translate(181,271)"/>
<path d="M0 0 C9.9 0 19.8 0 30 0 C30 9.9 30 19.8 30 30 C20.1 30 10.2 30 0 30 C0 20.1 0 10.2 0 0 Z " fill="#000000" transform="translate(121,271)"/>
</svg>
